<?xml version="1.0" encoding="utf-8"?>
<!-- Generator: Adobe Illustrator 21.1.0, SVG Export Plug-In . SVG Version: 6.00 Build 0)  -->
<svg version="1.1" id="Layer_1" xmlns="http://www.w3.org/2000/svg" xmlns:xlink="http://www.w3.org/1999/xlink" x="0px" y="0px"
	 viewBox="0 0 1600 900" style="enable-background:new 0 0 1600 900;" xml:space="preserve">
<style type="text/css">
	.st0{fill:#BD8FFF;}
	.st1{fill:#A160FF;}
	.st2{fill:#FFFFFF;}
	.st3{fill:#00D6FF;}
	.st4{fill:#00B4FC;}
	.st5{fill:#BE2EE4;}
	.st6{fill:#8500B2;}
</style>
<g id="XMLID_2037_">
	<g id="XMLID_2042_">
		<path id="XMLID_2044_" class="st0" d="M765.3,307.1c0,2.1,1.5,4.7,3.3,5.7l13.9,8c1.8,1,3.3,0.2,3.3-1.9v-16.1
			c0-2.1-1.5-4.7-3.3-5.7l-13.9-8c-1.8-1-3.3-0.2-3.3,1.9L765.3,307.1z"/>
		<path id="XMLID_2043_" class="st1" d="M785.9,318.9v-16.1c0-2.1-1.5-4.7-3.3-5.7l-13.9-8c-0.9-0.5-1.7-0.6-2.3-0.3v0l3.5-2
			c0.6-0.3,1.4-0.2,2.3,0.3l13.9,8c1.8,1,3.3,3.6,3.3,5.7l0,16.1c0,1-0.3,1.7-0.9,2.1l-3.6,2v0C785.5,320.7,785.9,320,785.9,318.9z"
			/>
	</g>
	<path id="XMLID_2038_" class="st2" d="M781.5,307.2c-0.1-0.9-0.4-1.8-0.8-2.6l0.7-0.9l-1.4-2.4l-1.1,0.2c-0.6-0.8-1.2-1.4-1.9-2
		l-0.3-1.7l-1.9-1.1l-0.3,1.4c-0.7-0.2-1.3-0.3-1.9-0.2l-1.1-1.5l-1.4,0.8l0.7,1.7c-0.4,0.4-0.6,1-0.8,1.7l-1.3-0.4v2.2l1.3,1.1
		c0.1,0.9,0.4,1.8,0.8,2.6l-0.7,0.9l1.4,2.4l1.1-0.2c0.6,0.8,1.2,1.4,1.9,2l0.3,1.7l1.9,1.1l0.3-1.4c0.7,0.2,1.3,0.3,1.9,0.2
		l1.1,1.5l1.4-0.8l-0.7-1.7c0.4-0.4,0.6-1,0.8-1.7l1.3,0.4v-2.2L781.5,307.2z M775.9,309.3c-1.8-1.1-3.3-3.7-3.3-5.8
		c0-2.1,1.5-3,3.3-1.9c1.8,1.1,3.3,3.7,3.3,5.8C779.2,309.5,777.7,310.3,775.9,309.3z"/>
</g>
<g id="XMLID_1916_">
	<g id="XMLID_2028_">
		<path id="XMLID_2030_" class="st3" d="M862,401.3c0,2.1,1.5,4.7,3.3,5.7l13.9,8c1.8,1,3.3,0.2,3.3-1.9V397c0-2.1-1.5-4.7-3.3-5.7
			l-13.9-8c-1.8-1-3.3-0.2-3.3,1.9V401.3z"/>
		<path id="XMLID_2029_" class="st4" d="M882.5,413.1V397c0-2.1-1.5-4.7-3.3-5.7l-13.9-8c-0.9-0.5-1.7-0.6-2.3-0.3v0l3.5-2
			c0.6-0.3,1.4-0.2,2.3,0.3l13.9,8c1.8,1,3.3,3.6,3.3,5.7l0,16.1c0,1-0.3,1.7-0.9,2.1l-3.6,2v0C882.1,414.9,882.5,414.2,882.5,413.1
			z"/>
	</g>
	<g id="XMLID_1917_">
		<path id="XMLID_2027_" class="st2" d="M875,403.4l-2.8,1.6l-2.8-4.8c-1.6,0.2-2.7,1.6-2.7,3.9l10.9,6.3
			C877.7,408,876.6,405.4,875,403.4z"/>
		<path id="XMLID_1998_" class="st2" d="M872.2,400.3c2.2,1.3,4,0.2,4-2.3c0-2.5-1.8-5.6-4-6.9c-2.2-1.3-4-0.2-4,2.3
			C868.3,396,870,399,872.2,400.3z"/>
	</g>
</g>
<g id="XMLID_241_">
	<g id="XMLID_268_">
		<g id="XMLID_311_">
			<path id="XMLID_326_" class="st5" d="M860.2,553.7c0,2.1,1.5,4.7,3.3,5.7l13.9,8c1.8,1,3.3,0.2,3.3-1.9v-16.1
				c0-2.1-1.5-4.7-3.3-5.7l-13.9-8c-1.8-1-3.3-0.2-3.3,1.9V553.7z"/>
			<path id="XMLID_325_" class="st6" d="M880.7,565.5v-16.1c0-2.1-1.5-4.7-3.3-5.7l-13.9-8c-0.9-0.5-1.7-0.6-2.3-0.3v0l3.5-2
				c0.6-0.3,1.4-0.2,2.3,0.3l13.9,8c1.8,1,3.3,3.6,3.3,5.7l0,16.1c0,1-0.3,1.7-0.9,2.1l-3.6,2v0
				C880.4,567.3,880.7,566.5,880.7,565.5z"/>
		</g>
	</g>
	<path id="XMLID_249_" class="st2" d="M870.3,543.5c-2.8-1.6-5-0.3-5,2.9c0,0.9,0.2,2.3,1.2,4.6c1.2,2.8,3.8,9.3,3.8,9.3
		s2.6-3.5,3.8-4.9c1-1.1,1.2-2.3,1.2-3.2C875.3,549,873.1,545.1,870.3,543.5z M870.3,552c-1.5-0.9-2.7-3-2.7-4.7
		c0-1.7,1.2-2.5,2.7-1.6c1.5,0.9,2.7,3,2.7,4.7C873,552.2,871.8,552.9,870.3,552z"/>
</g>
</svg>
