<svg xmlns="http://www.w3.org/2000/svg" xmlns:xlink="http://www.w3.org/1999/xlink" version="1.1" style="" xml:space="preserve" width="1430" height="849"><rect id="backgroundrect" width="100%" height="100%" x="0" y="0" fill="none" stroke="none"/>
<style type="text/css">
	.st0{fill:#197ABF;}
	.st1{clip-path:url(#XMLID_4_);fill:#00B6E3;}
</style>


<g class="currentLayer" style=""><title>Layer 1</title><path id="XMLID_6_" class="st0" d="M839.6666725341947,0.5438795722362723 c0,0 -83.32844201599613,156.35289486101888 -452.1185227086427,194.84461965063687 C7.925371670825873,237.4943057384078 -1.3333441087292517,557.1300094494607 -1.3333441087292517,557.1300094494607 V-1 L839.6666725341947,0.5438795722362723 z"/><g id="XMLID_2_">
	<defs>
		<rect id="XMLID_3_" x="0" width="1430" height="850"/>
	</defs>
	<clipPath id="XMLID_4_">
		<use xlink:href="#XMLID_3_" style="overflow:visible;" id="svg_1"/>
	</clipPath>
	<path id="XMLID_5_" class="st1" d="M1430.09,471.98c-0.01,30.32-27.16,66.34-44.92,88.03c-135.46,165.5-364.63,173.97-558.8,205.73   c-72.47,11.85-144.55,26.1-216.07,42.73C545.57,823.51,400,890,397,890c0,0,1033,0,1033,0S1430.08,472.16,1430.09,471.98z"/>
</g></g></svg>