<?xml version="1.0" encoding="utf-8"?>
<!-- Generator: Adobe Illustrator 21.1.0, SVG Export Plug-In . SVG Version: 6.00 Build 0)  -->
<svg version="1.1" id="Layer_1" xmlns="http://www.w3.org/2000/svg" xmlns:xlink="http://www.w3.org/1999/xlink" x="0px" y="0px"
	 viewBox="0 0 1600 900" style="enable-background:new 0 0 1600 900;" xml:space="preserve">
<style type="text/css">
	.st0{fill:none;}
	.st1{opacity:0.25;fill:#C3E1FF;}
	.st2{fill:#E9F6FF;}
	.st3{fill:url(#XMLID_14_);}
	.st4{fill:#BFE9FF;}
	.st5{fill:#D3EEFF;}
	.st6{fill:#0034A5;}
	.st7{opacity:0.46;fill:#FFFFFF;}
	.st8{fill:#593254;}
	.st9{fill:#154284;}
	.st10{fill:#FAFDFF;}
	.st11{fill:#FFC2B0;}
	.st12{fill:#FFB2A1;}
	.st13{fill:#1F55A9;}
	.st14{fill:#00BDF8;}
	.st15{fill:#FFFFFF;}
	.st16{fill:#44426E;}
	.st17{fill:#D3EDFF;}
	.st18{fill:#8787CF;}
	.st19{fill:url(#XMLID_16_);}
	.st20{opacity:0.4;fill:#9CC4E6;}
	.st21{fill:#DFF1FF;}
	.st22{fill:url(#XMLID_17_);}
	.st23{fill:#CEE3F4;}
	.st24{opacity:0.56;}
	.st25{fill:#63B1F2;}
	.st26{fill:url(#XMLID_18_);}
	.st27{fill:#FF9355;}
	.st28{fill:#FFFFFF;stroke:#9FDDFF;stroke-width:0.7569;stroke-miterlimit:10;}
	.st29{fill:none;stroke:#9FDDFF;stroke-width:0.7571;stroke-miterlimit:10;}
	.st30{fill:none;stroke:#9FDDFF;stroke-width:0.5392;stroke-miterlimit:10;}
	.st31{fill:none;stroke:#9FDDFF;stroke-width:0.9448;stroke-miterlimit:10;}
	.st32{fill:none;stroke:#0034A5;stroke-width:2;stroke-linecap:round;stroke-linejoin:round;stroke-miterlimit:10;}
	.st33{fill:#A9D4EE;}
	.st34{fill:none;stroke:#FFFFFF;stroke-width:0.584;stroke-linecap:round;stroke-linejoin:round;stroke-miterlimit:10;}
	.st35{fill:none;stroke:#FFFFFF;stroke-width:0.6639;stroke-miterlimit:10;}
	.st36{fill:none;stroke:#0034A5;stroke-linecap:round;stroke-linejoin:round;stroke-miterlimit:10;}
	.st37{fill:#00A2D6;}
	.st38{fill:#B1D0E7;}
	.st39{fill:#FF7630;}
	.st40{fill:#0077C2;}
	.st41{fill:#008CE6;}
	.st42{fill:#9EECFF;}
	.st43{fill:#FFFFFF;stroke:#9FDDFF;stroke-width:0.6795;stroke-miterlimit:10;}
	.st44{fill:#FF5C99;}
	.st45{fill:#C6E7F4;}
	.st46{fill:#FF8A6B;}
	.st47{fill:#9CC4E6;}
	.st48{fill:#DDEAF4;}
	.st49{fill:#6ABDEC;}
	.st50{fill:#D4EEFF;}
	.st51{opacity:0.4;}
	.st52{fill:#003884;}
	.st53{fill:#18225F;}
</style>
<path id="XMLID_2_" class="st0" d="M1485-37"/>
<path id="XMLID_1_" class="st0" d="M1485,813"/>
<g id="XMLID_3_">
	<path id="XMLID_1607_" class="st1" d="M680.6,616.9l-45.5-26.3c-77.6-44.8-67.9-123.1,21.7-174.9l0,0c10.6-6.1,21.9-11.6,33.6-16.5
		c87.3-35.9,372.5,87.1,365.7,120.7c-6,29.8-30.5,60-72.7,84.4l0,0C893.9,656.1,758.2,661.7,680.6,616.9z"/>
	<polygon id="XMLID_1606_" class="st2" points="818.2,427.3 684.8,350.3 817.4,273.8 952,350.6 	"/>
	<linearGradient id="XMLID_14_" gradientUnits="userSpaceOnUse" x1="818.1841" y1="440.5994" x2="952.0352" y2="440.5994">
		<stop  offset="5.913980e-02" style="stop-color:#70B6EC"/>
		<stop  offset="0.9409" style="stop-color:#AED5EB"/>
	</linearGradient>
	<polygon id="XMLID_1552_" class="st3" points="818.2,427.3 818.4,530.6 952,454 952,350.6 	"/>
	<polygon id="XMLID_1551_" class="st4" points="685,350.3 685,453.6 818.4,530.6 818.4,427.3 	"/>
	<g id="XMLID_2427_">
		<path id="XMLID_1550_" class="st5" d="M635.4,531.4c-6.7,3.8-17.5,3.8-24.2,0c-6.7-3.9-6.7-10.1-0.1-14c6.7-3.8,17.5-3.8,24.2,0
			C642,521.3,642,527.6,635.4,531.4z"/>
		<path id="XMLID_1549_" class="st6" d="M633.9,525.5l-6.9-2.3l-2.1,1.6c-1.1,1.4-1.5,2.2-1,3.6c0.5,1.2,2.5,1.7,3.6,1.8l5.3-0.1
			c3.9,0.1,4.3-1.2,4.6-2.4l0,0C637.7,526.3,636.2,525.8,633.9,525.5z"/>
		<path id="XMLID_1548_" class="st6" d="M618.5,515.9l-7.1,1.4l-1,2.5c-0.2,1.8-0.2,2.7,1,3.6c1,0.8,3,0.2,4-0.3l4.6-2.7
			c3.4-1.9,3.1-3.2,2.8-4.4l0,0C622.3,514.8,620.7,515.1,618.5,515.9z"/>
		<path id="XMLID_1547_" class="st7" d="M626.6,422.7l-0.1,0.7c0,0-0.2,2.2-2.3,0.8c-2-1.5-1.5-4.2-1.5-4.2S624.4,420,626.6,422.7z"
			/>
		<path id="XMLID_2508_" class="st8" d="M624.2,424.3c2.6,1.9,2.9-0.7,2.9-0.7l0,0l0-0.9c-2.8-3.2-4.8-3.4-4.8-3.4
			S621.6,422.4,624.2,424.3z M622.8,420.1c0,0,1.6,0.2,3.8,2.6l-0.1,0.6c0,0-0.2,1.9-2.2,0.5C622.3,422.5,622.8,420.1,622.8,420.1z"
			/>
		<polygon id="XMLID_1544_" class="st8" points="628.1,424.2 626.5,423.2 626.6,422.2 628.2,423.3 		"/>
		<path id="XMLID_1543_" class="st8" d="M622.4,420.1l-0.3-0.2c-0.2-0.1-0.3-0.4-0.3-0.6l0,0c0-0.2,0.1-0.3,0.3-0.2l0.3,0.2
			c0.2,0.1,0.3,0.4,0.3,0.6l0,0C622.7,420.1,622.5,420.2,622.4,420.1z"/>
		<path id="XMLID_1542_" class="st8" d="M632.6,426.7l-0.3-0.2c-0.2-0.1-0.3-0.4-0.3-0.6l0,0c0-0.2,0.1-0.3,0.3-0.2l0.3,0.2
			c0.2,0.1,0.3,0.4,0.3,0.6l0,0C632.9,426.7,632.8,426.8,632.6,426.7z"/>
		<g id="XMLID_2474_">
			<g>
				<g id="XMLID_130_">
					<g>
						<path class="st6" d="M632.5,425.9c0,0-1.9-2.4-4.8-2.9l0,0.9l0,0c0,0,0,2.8,2.7,4.3C632.9,429.8,632.5,425.9,632.5,425.9z
							 M630.2,427.8c-2-1.1-2-3.2-2-3.2l0-0.7c2.2,0.3,3.8,2.3,3.8,2.3S632.2,428.9,630.2,427.8z"/>
					</g>
				</g>
				<g id="XMLID_126_">
					<path id="XMLID_128_" class="st9" d="M628.6,425.1L628.6,425.1c-0.1-0.1-0.1-0.2,0-0.2l0.6-0.5c0.1,0,0.1,0,0.2,0.1l0,0
						c0.1,0.1,0.1,0.2,0,0.2l-0.6,0.5C628.7,425.2,628.6,425.2,628.6,425.1z"/>
				</g>
			</g>
		</g>
		<path id="XMLID_1538_" class="st10" d="M622.9,421.3L622.9,421.3c-0.1-0.1-0.1-0.2,0-0.2l0.6-0.5c0.1,0,0.1,0,0.2,0.1l0,0
			c0.1,0.1,0.1,0.2,0,0.2l-0.6,0.5C623.1,421.4,623,421.4,622.9,421.3z"/>
		<path id="XMLID_1537_" class="st11" d="M618.3,435.2l1.6-7.2l4.4,2.9l-1.3,6.5C622.8,438.5,618,437.6,618.3,435.2z"/>
		<path id="XMLID_1536_" class="st11" d="M622.4,417.3c0,0-3.9-3.7-5,3.7c-0.8,5.1,1.6,10,5.5,12.6c2.4,1.6,5.8,0.5,6.4-2
			c1.2-3.6,1.7-7.1,0.9-10.2c0.6-3-1.6-2.3-5.2-3L622.4,417.3z"/>
		<path id="XMLID_1535_" class="st6" d="M617.8,431.2c0,0-4.7-2.6-3.2-9.6c1.7-7.5,8.6-5.8,12.5-5.6c1.7,0.1,3,0,4.5,1.9
			c1.4,1.7-0.6,4.7-2.9,4.5c-0.9-0.1-0.9,2.5-1.2,3.3c-0.6,1.5-1.6,2-2.2,3.4c-0.5,1.3-2.9,3.2-4.2,3.1
			C618.7,432.2,617.8,431.2,617.8,431.2z"/>
		<path id="XMLID_1534_" class="st6" d="M632.5,426.9l-6.5-0.3c-0.2,0-0.4-0.2-0.4-0.4l0,0c0-0.2,0.2-0.4,0.4-0.4l6.5,0.3
			c0.2,0,0.4,0.2,0.4,0.4l0,0C632.9,426.8,632.7,427,632.5,426.9z"/>
		<path id="XMLID_1533_" class="st11" d="M626.8,427.8c-0.1,1.2-0.8,2.2-1.7,2.1c-0.1,0-0.2,0-0.3-0.1c-0.7-0.2-1.2-1.2-1.2-2.3
			c0.1-1.2,0.8-2.2,1.7-2.1C626.2,425.5,626.8,426.6,626.8,427.8z"/>
		<path id="XMLID_1532_" class="st12" d="M642.2,452.5L642.2,452.5c-1-0.3-1.5-1.4-1.1-2.3l1.4-4.1c0.3-1,1.4-1.5,2.3-1.1l0,0
			c1,0.3,1.5,1.4,1.1,2.3l-1.4,4.1C644.2,452.3,643.1,452.9,642.2,452.5z"/>
		<g id="XMLID_2459_">
			<path id="XMLID_1531_" class="st12" d="M612.4,445.1c2,3.9,5.2,7.3,9.4,8.7c5.8,2.1,11.7-0.5,16.4-3.9c2.1-1.6,0-5.1-2.1-3.5
				c-3.7,2.8-8.5,5.3-13.2,3.5c-3.2-1.2-5.5-3.9-6.9-6.9C614.7,440.7,611.2,442.7,612.4,445.1L612.4,445.1z"/>
		</g>
		<g id="XMLID_2457_">
			<path id="XMLID_1530_" class="st13" d="M621.8,480.9c2.7,8,3,16.5,2.7,24.9c-0.2,6.2-1.2,12.5-1,18.7c0.1,4.1,6.4,4.1,6.3,0
				c-0.2-6.4,0.9-12.8,1-19.2c0.2-8.7-0.1-17.7-3-26C626.6,475.3,620.5,477,621.8,480.9L621.8,480.9z"/>
		</g>
		<g id="XMLID_2455_">
			<path id="XMLID_1529_" class="st13" d="M609,473.7c1.4,5.2,2.1,10.6,2.6,15.9c0.3,3.1,0.7,6.1,0.3,9.2
				c-0.7,6.3-1.8,12.7-1.8,19.1c0,4.1,6.4,4.1,6.3,0c0-6.5,1.2-13,1.8-19.4c0.3-3.2-0.1-6.4-0.4-9.6c-0.6-5.7-1.2-11.4-2.8-17
				C614.1,468.1,608,469.8,609,473.7L609,473.7z"/>
		</g>
		<g id="XMLID_1528_">
			<path class="st13" d="M614.2,482.1L614.2,482.1c0.6,0.7-1.9-2.5-1.2-2.1c1.6,0.9,10.4,6.9,12.2,7c2.2,0,0.9-2.1,2.6-3.6
				c1.6-1.4,1.9-3.7,2.1-5.8c0-0.6,0.1-1.2-0.2-1.7c-0.2-0.6-0.8-1-1.3-1.4c-3.9-3-11.6-10.3-17.1-7.9
				C605.1,469.3,611.4,479,614.2,482.1z"/>
		</g>
		<path id="XMLID_1413_" class="st14" d="M609.7,435.2c-1.2,1.5-1,2.4-1,4.5c0.1,2,1.4,3.7,3.3,4.3l19.6,5.5c0,0,1.1-7.5-2.7-9.8
			c-2.1-1.2-5.3-3.2-7.9-4.7C617.3,432.6,612.3,431.8,609.7,435.2z"/>
		<path id="XMLID_1412_" class="st14" d="M608.6,470.7c-1.2-0.5-1-21.9,0.2-33.8l22.1,10.5c-0.1,10.1-1.4,18.1-0.2,30.3L608.6,470.7
			z"/>
		<path id="XMLID_1411_" class="st14" d="M623.3,479.9c-5.5-2-10.7-4.2-13.7-7.9c-1.5-0.9-1.3-2.4,0.4-3.4l0,0
			c1.7-1,4.4-1.1,5.9-0.2l13.7,7.9c1.5,0.9,1.3,2.4-0.4,3.4l0,0C627.5,480.7,624.8,480.8,623.3,479.9z"/>
		<path id="XMLID_1410_" class="st14" d="M630.9,447.4l-3.6-1.7c-0.1,9.8-1.4,17.7-0.2,29.8l-0.1,0c0,0.7-0.5,1.4-1.4,2l0,0
			c-1.7,1-4.4,1.1-5.9,0.2c-2.6-1-5.2-2-7.5-3.2c3,2.3,7,3.9,11.1,5.4c1.5,0.9,4.1,0.8,5.9-0.2l0,0c1-0.6,1.5-1.3,1.4-2l0.1,0
			C629.5,465.4,630.8,457.5,630.9,447.4z"/>
		<path id="XMLID_1407_" class="st15" d="M626.4,437.6c-5.1-0.8-8.5,2.4-9.7-4.9l0,0c0.7-0.5,1.7-0.2,2.2,0.5c0.9,1.3,2.7,2,4.8,1.8
			c0.6-0.1,1.2,0.2,1.5,0.7L626.4,437.6z"/>
		<g id="XMLID_2444_">
			<path id="XMLID_1406_" class="st12" d="M626.2,444.7c0.2,3.3,0.2,6.7,1.4,9.8c1.1,2.9,2.4,6.6,4.8,8.7
				c6.4,5.5,10.8-6.7,12.1-10.8c0.8-2.5-3.1-3.6-3.9-1.1c-0.9,2.8-1.9,6.3-4,8.4c-1,1-1.3,0.9-2.2-0.4c-3.1-4.5-3.7-9.4-4.1-14.6
				C630.1,442.1,626.1,442.1,626.2,444.7L626.2,444.7z"/>
		</g>
		<path id="XMLID_1405_" class="st14" d="M625.1,444.6c1.2,10.4,4.5,17.1,9.1,20.5c2.4,1.3,4.6-2.5,3.7-4.7
			c-4.5-4-6.1-10.3-6.6-17.5c-0.6-1.5-2.3-2.2-3.9-1.8v0C625.8,441.4,624.7,443.1,625.1,444.6z"/>
		<path id="XMLID_1403_" class="st15" d="M637.8,458.9c0.4,1.6,0.9,5.2-1.8,6.5c-0.4,0.2-0.9,0.2-1.3,0l-0.8-0.4
			c-0.8-0.4-1.2-1.4-0.7-2.2c0.6-1,1.3-2.4,1.6-3.9c0.2-0.9,1.2-1.5,2-1.1l0,0C637.3,458,637.7,458.4,637.8,458.9z"/>
		<g id="XMLID_2428_">
			<g id="XMLID_2430_">
				<path id="XMLID_1402_" class="st14" d="M642.1,452.3l-4.4-3.3c-0.3-0.2-0.3-0.6-0.2-1l4.3-8.8c0.2-0.3,0.5-0.5,0.8-0.3l4.4,3.2
					c0.3,0.2,0.3,0.6,0.2,1l-4.3,8.8c-0.1,0.2-0.2,0.2-0.4,0.3L642.1,452.3z"/>
				<path id="XMLID_1401_" class="st14" d="M642.6,443.4c0,0-5.3,5-5.1,4.6l4.3-9.1l0.4,0c0.1,0,0.2,0,0.4,0.1l4.4,3.2
					c0.1,0.1,0.2,0.2,0.2,0.4L642.6,443.4z"/>
				<path id="XMLID_1400_" class="st6" d="M641.7,452.3l-4.4-3.2c-0.3-0.2-0.3-0.6-0.2-1l4.3-8.8c0.2-0.3,0.5-0.5,0.8-0.3l4.4,3.2
					c0.3,0.2,0.3,0.6,0.2,1l-4.3,8.8C642.3,452.4,641.9,452.5,641.7,452.3z"/>
				<path id="XMLID_1399_" class="st16" d="M646.6,443.9l-0.2,0.5c0,0,0,0.1,0,0l0,0c0,0,0.1,0,0.1-0.1l0.2-0.5c0,0,0-0.1,0,0
					L646.6,443.9C646.6,443.8,646.6,443.9,646.6,443.9z"/>
				<path id="XMLID_1398_" class="st16" d="M646.2,444.8l-0.2,0.5c0,0,0,0.1,0,0l0,0c0,0,0.1,0,0.1-0.1l0.2-0.5c0,0,0-0.1,0,0
					L646.2,444.8C646.2,444.7,646.2,444.8,646.2,444.8z"/>
				<path id="XMLID_1397_" class="st17" d="M642.3,450.8l-4.3-3.2l3.8-7.8l4.3,3.1l-3.8,7.6C642.2,450.7,642.4,450.9,642.3,450.8z"
					/>
				<path id="XMLID_1396_" class="st18" d="M644.9,441.7l-1.4-1c0,0-0.1-0.1,0-0.2l0,0c0-0.1,0.1-0.1,0.1,0l1.4,1c0,0,0.1,0.1,0,0.2
					l0,0C645,441.8,645,441.8,644.9,441.7z"/>
			</g>
			<path id="XMLID_1395_" class="st12" d="M643.9,451l0.5-1.1c-0.4,0-0.9,1.7-0.9,1.4l0-4.9c0-0.4,0.4-0.6,0.8-0.6l0,0
				c0.4,0,0.8,0.3,0.8,0.7l-0.1,2.4C645,449.2,644.3,451.1,643.9,451z"/>
		</g>
	</g>
	<polygon id="XMLID_1394_" class="st2" points="758.9,581.3 674.2,532.4 758.4,483.8 843.9,532.6 	"/>
	<linearGradient id="XMLID_16_" gradientUnits="userSpaceOnUse" x1="758.8864" y1="580.7353" x2="843.9067" y2="580.7353">
		<stop  offset="5.913980e-02" style="stop-color:#70B6EC"/>
		<stop  offset="0.9409" style="stop-color:#AED5EB"/>
	</linearGradient>
	<polygon id="XMLID_1393_" class="st19" points="758.9,581.3 759,628.9 843.9,580.2 843.9,532.6 	"/>
	<polygon id="XMLID_1392_" class="st4" points="674.3,532.4 674.3,580 759,628.9 759,581.3 	"/>
	<g id="XMLID_2290_">
		<path id="XMLID_1391_" class="st20" d="M895.3,375.8l-76.4-43.2c-0.9-0.5-0.8-1.4,0.2-2l35.8-20.9c1-0.6,2.5-0.6,3.4-0.1
			l76.4,43.2c0.9,0.5,0.8,1.4-0.2,2l-35.8,20.9C897.7,376.3,896.2,376.3,895.3,375.8z"/>
		<g id="XMLID_2417_">
			<path id="XMLID_1390_" class="st21" d="M901.8,292.3c1.6,0.9,2.9,2.9,2.8,4.5l-1.9,70.9c0,1.6-1.4,2.1-3,1.2L782.3,301
				c-1.6-0.9-2.9-2.9-2.8-4.5l1.9-70.9c0-1.6,1.4-2.1,3-1.2L901.8,292.3z"/>
		</g>
		<linearGradient id="XMLID_17_" gradientUnits="userSpaceOnUse" x1="782.1751" y1="286.9296" x2="907.6381" y2="286.9296">
			<stop  offset="0" style="stop-color:#DFF1FF"/>
			<stop  offset="0.3509" style="stop-color:#DCEFFE"/>
			<stop  offset="0.5956" style="stop-color:#D3E7FB"/>
			<stop  offset="0.8072" style="stop-color:#C4DBF6"/>
			<stop  offset="1" style="stop-color:#AEC9EE"/>
		</linearGradient>
		<path id="XMLID_1389_" class="st22" d="M907.6,277.3L907.6,277.3C907.6,277.3,907.6,277.3,907.6,277.3
			C907.6,277.3,907.6,277.3,907.6,277.3c0-0.1,0-0.1,0-0.2c0,0,0-0.1,0-0.1c0,0,0,0,0,0c0,0,0,0,0,0c0,0,0-0.1,0-0.1
			c0,0,0-0.1,0-0.1c0,0,0,0,0,0c0,0,0,0,0,0c0,0,0-0.1,0-0.1c0,0,0-0.1,0-0.1c0,0,0,0,0-0.1c0,0,0,0,0,0c0,0,0,0,0,0
			c0,0,0-0.1,0-0.1c0,0,0-0.1,0-0.1c0,0,0,0,0,0c0,0,0,0,0,0c0,0,0-0.1,0-0.1c0,0,0-0.1,0-0.1c0,0,0,0,0,0c0,0,0,0,0,0
			c0,0,0,0,0-0.1c0,0,0-0.1-0.1-0.1c0,0,0-0.1,0-0.1c0,0,0,0,0,0c0,0,0,0,0,0c0,0,0-0.1-0.1-0.1c0,0,0-0.1-0.1-0.1c0,0,0,0,0,0
			c0,0,0,0,0,0c0,0,0,0,0,0c0,0,0-0.1-0.1-0.1c0,0,0-0.1-0.1-0.1c0,0,0,0,0,0c0,0,0,0,0,0c0,0,0-0.1-0.1-0.1c0,0,0-0.1-0.1-0.1
			c0,0,0,0,0-0.1c0,0,0,0,0,0c0-0.1-0.1-0.1-0.1-0.2c0,0,0,0,0-0.1c0,0,0,0,0,0c-0.1-0.1-0.1-0.1-0.2-0.2c0,0,0,0,0,0c0,0,0,0,0,0
			c0,0,0,0-0.1-0.1c0,0-0.1-0.1-0.1-0.1c0,0,0,0,0,0c0,0,0,0,0,0c0,0,0,0,0,0c0,0-0.1-0.1-0.1-0.1c0,0-0.1,0-0.1-0.1c0,0,0,0,0,0
			c0,0,0,0,0,0c0,0-0.1-0.1-0.1-0.1c0,0-0.1-0.1-0.1-0.1c0,0,0,0,0,0c0,0,0,0,0,0c0,0-0.1-0.1-0.1-0.1c0,0-0.1-0.1-0.1-0.1
			c0,0,0,0,0,0c0,0,0,0,0,0c0,0-0.1,0-0.1-0.1c0,0-0.1-0.1-0.1-0.1c0,0,0,0,0,0c0,0,0,0,0,0c0,0,0,0,0,0c0,0,0,0-0.1,0
			c0,0-0.1,0-0.1-0.1c0,0-2.8-1.6-2.8-1.6l0,0l-114.3-66c0,0,0,0,0,0l-0.2-0.1c0,0,0,0,0,0c-0.1-0.1-0.3-0.2-0.3-0.2
			c0,0-0.1,0-0.1-0.1c0,0-0.1,0-0.1-0.1c0,0-0.1,0-0.1-0.1c0,0-0.1,0-0.1,0c0,0-0.1,0-0.1,0c0,0-0.1,0-0.1,0c0,0,0,0,0,0l0,0
			c0,0,0,0,0,0c0,0-0.1,0-0.1,0c0,0,0,0-0.1,0c0,0,0,0,0,0c0,0,0,0,0,0c0,0-0.1,0-0.1,0c0,0,0,0,0,0l0,0c-0.1,0-0.1,0-0.2,0
			c0,0,0,0,0,0c0,0,0,0-0.1,0c0,0-0.1,0-0.1,0c0,0,0,0,0,0c0,0-0.1,0-0.1,0c0,0,0,0-0.1,0c0,0,0,0,0,0c-0.1,0-0.1,0-0.2,0
			c0,0,0,0,0,0c0,0,0,0,0,0c-0.1,0-0.2,0.1-0.2,0.1l-2.9,1.7c0.1,0,0.2-0.1,0.2-0.1c0,0,0.1,0,0.1,0c0,0,0.1,0,0.1,0
			c0,0,0.1,0,0.2,0c0,0,0,0,0.1,0c0.1,0,0.1,0,0.2,0c0,0,0,0,0,0c0.1,0,0.2,0,0.2,0c0,0,0,0,0,0c0.1,0,0.2,0,0.3,0.1c0,0,0,0,0,0
			c0.1,0,0.2,0.1,0.3,0.1c0,0,0,0,0,0c0.1,0,0.2,0.1,0.3,0.1c0,0,0.1,0,0.1,0.1c0,0,0.1,0,0.1,0.1l0.6,0.4l114.1,65.9l-0.1,0.1
			c0,0,3,1.6,3,1.6c0,0,0.1,0.1,0.1,0.1c0,0,0.1,0.1,0.1,0.1c0,0,0.1,0.1,0.1,0.1c0,0,0,0,0,0c0.1,0,0.1,0.1,0.2,0.2v0l0,0
			c0.1,0.1,0.1,0.1,0.2,0.2c0,0,0,0,0,0c0.1,0.1,0.1,0.1,0.2,0.2c0,0,0,0,0,0c0.1,0.1,0.1,0.1,0.2,0.2c0,0,0,0,0,0
			c0.1,0.1,0.1,0.1,0.2,0.2c0,0,0.1,0.1,0.1,0.1c0,0,0.1,0.1,0.1,0.1c0,0,0.1,0.1,0.1,0.1c0,0,0,0.1,0.1,0.1c0,0,0,0.1,0.1,0.1
			c0,0,0.1,0.1,0.1,0.1c0,0,0,0,0,0c0,0.1,0.1,0.1,0.1,0.2c0,0,0,0,0,0c0,0.1,0.1,0.1,0.1,0.2c0,0,0,0,0,0c0,0.1,0.1,0.1,0.1,0.2
			c0,0,0,0,0,0c0,0.1,0.1,0.1,0.1,0.2c0,0,0,0,0,0c0,0.1,0.1,0.1,0.1,0.2c0,0,0,0,0,0c0,0.1,0,0.1,0.1,0.2c0,0,0,0,0,0
			c0,0.1,0,0.1,0.1,0.2c0,0,0,0,0,0c0,0.1,0,0.1,0,0.2c0,0,0,0.1,0,0.1c0,0,0,0.1,0,0.1c0,0,0,0.1,0,0.1c0,0,0,0.1,0,0.1
			c0,0,0,0.1,0,0.1c0,0,0,0.1,0,0.1c0,0,0,0.1,0,0.2l-0.3,11.2c-0.1-0.1-0.6-0.4-0.6-0.4l-3,1.6c0,0,0.8,0.5,0.9,0.5
			c0,0,0.1,0.1,0.1,0.1c0,0,0.1,0.1,0.1,0.1c0,0,0.1,0.1,0.1,0.1c0,0,0,0,0,0c0.1,0,0.1,0.1,0.2,0.2v0l0,0c0.1,0.1,0.1,0.1,0.2,0.2
			c0,0,0,0,0,0c0.1,0.1,0.1,0.1,0.2,0.2c0,0,0,0,0,0c0.1,0.1,0.1,0.1,0.2,0.2c0,0,0,0,0,0c0.1,0.1,0.1,0.1,0.2,0.2
			c0,0,0.1,0.1,0.1,0.1c0,0,0.1,0.1,0.1,0.1c0,0,0.1,0.1,0.1,0.1c0,0,0,0.1,0.1,0.1c0,0,0,0.1,0.1,0.1c0,0,0.1,0.1,0.1,0.1
			c0,0,0,0,0,0c0,0.1,0.1,0.1,0.1,0.2c0,0,0,0,0,0c0,0.1,0.1,0.1,0.1,0.2c0,0,0,0,0,0c0,0.1,0.1,0.1,0.1,0.2c0,0,0,0,0,0
			c0,0.1,0.1,0.1,0.1,0.2c0,0,0,0,0,0c0,0.1,0.1,0.1,0.1,0.2c0,0,0,0,0,0c0,0.1,0,0.1,0.1,0.2c0,0,0,0,0,0c0,0.1,0,0.1,0.1,0.2
			c0,0,0,0,0,0c0,0.1,0,0.1,0,0.2c0,0,0,0.1,0,0.1c0,0,0,0,0,0.1l-1.4,53c0,0.3-1,2.4-0.7,2.3l0.7-0.7l-0.4,16c0,0.3-1,2.4-0.7,2.3
			l2.7-2.5c0.6-0.5,0.9-1.3,0.9-2.1l1.8-68.5c0-0.3,0-0.8,0-0.8c0,0,0-0.1,0-0.1c0,0,0-0.1,0-0.1c0,0,0,0,0,0c0,0,0,0,0,0
			c0,0,0,0,0,0c0,0,0-0.1,0-0.1c0,0,0-0.1,0-0.1c0,0,0,0,0,0c0,0,0,0,0,0c0,0,0,0,0-0.1l0.4-16.2c0-0.3,0-0.8,0-0.8
			C907.6,277.5,907.6,277.5,907.6,277.3C907.6,277.4,907.6,277.4,907.6,277.3z"/>
		<g id="XMLID_2406_">
			<g>
				<g id="XMLID_49_">
					<path id="XMLID_50_" class="st6" d="M901.9,284.1c1.6,0.9,2.7,0,2.7,1.6l-1.6,73.8c0,1.6-1.5,2.1-3.1,1.1l-117.5-67.9
						c-1.6-0.9-2.9-2.9-2.8-4.5l1.9-70.9c0-1.6,1.4-2.1,3-1.2L901.9,284.1z"/>
				</g>
			</g>
		</g>
		<g id="XMLID_2398_">
			<g>
				<g id="XMLID_47_">
					<path id="XMLID_48_" class="st6" d="M901.9,274.8c1.6,0.9,2.9,2.9,2.8,4.5l-1.8,70.9c0,1.6-1.5,2.1-3.1,1.1l-117.5-67.9
						c-1.6-0.9-2.8,2.6-2.7,1l1.8-76.3c0-1.6,1.4-2.1,3-1.2L901.9,274.8z"/>
				</g>
			</g>
		</g>
		<path id="XMLID_1354_" class="st14" d="M901.7,283.4c0.1-1.3-1.1-3.1-2.6-3.9l-111.3-63.3c-1.5-0.9-2.8-0.5-2.8,0.8l-0.3,8.6
			c0,0.1-0.1,0.3-0.1,0.5l-1.5,59.5c-0.1,1.3,1.7,3.7,3.2,4.6l110,62.5c1.5,0.9,2.8,0.5,2.8-0.8l0.3-8.6c0-0.1,0.1-0.3,0.1-0.5
			L901.7,283.4z"/>
		<path id="XMLID_1353_" class="st6" d="M900.3,373.7l0-4.7l-4.5,2.9l-1-2.2l-113.2-65.4c-1.4-0.8-4.1-0.7-5.6,0.2l-49,28.1v-0.8
			l-7.4,3.6l-1-0.4l0.1,3.4c0.1,0.8,0.4,1.1,0.9,1.3L837.2,408c1.4,0.8,3.8,0.8,5.3-0.1l56.5-32.6
			C899.9,374.9,900.3,374.2,900.3,373.7L900.3,373.7z"/>
		<path id="XMLID_1352_" class="st23" d="M837.1,403.5l-117.8-68c-1.4-0.8-1.2-2.2,0.4-3.1l56.5-32.6c1.6-0.9,4-1,5.3-0.2l117.8,68
			c1.4,0.8,1.2,2.2-0.4,3.1l-56.5,32.6C840.9,404.1,838.5,404.2,837.1,403.5z"/>
		<g id="XMLID_2291_" class="st24">
			<g id="XMLID_2292_">
				<g>
					<path id="XMLID_612_" class="st25" d="M783.2,312.1c-0.2,0.1-0.5,0.1-0.8-0.1l-7.2-4.1c-0.3-0.1-0.3-0.4-0.2-0.4l4.7-2.7
						c0.2-0.1,0.5-0.1,0.8,0.1l7.2,4.1c0.3,0.1,0.3,0.3,0.2,0.4L783.2,312.1z"/>
					<path id="XMLID_611_" class="st25" d="M791.5,324.5c-0.2,0.1-0.5,0.1-0.8-0.1l-7.2-4.1c-0.3-0.1-0.3-0.3-0.2-0.4l4.7-2.7
						c0.2-0.1,0.5-0.1,0.8,0.1l7.2,4.1c0.3,0.2,0.3,0.4,0.2,0.4L791.5,324.5z"/>
					<path id="XMLID_610_" class="st25" d="M787.3,329.6c-0.2,0.1-0.5,0.1-0.8-0.1l-7.2-4.1c-0.3-0.1-0.3-0.3-0.2-0.4l4.7-2.7
						c0.2-0.1,0.5-0.1,0.8,0.1l7.2,4.1c0.3,0.1,0.3,0.4,0.2,0.4L787.3,329.6z"/>
					<path id="XMLID_609_" class="st25" d="M776,330.6c-0.2,0.1-0.5,0.1-0.8-0.1l-7.2-4.1c-0.3-0.1-0.3-0.3-0.2-0.4l4.7-2.7
						c0.2-0.1,0.5-0.1,0.8,0.1l7.2,4.1c0.3,0.1,0.3,0.3,0.2,0.4L776,330.6z"/>
					<path id="XMLID_608_" class="st25" d="M756.3,327.7c-0.2,0.1-0.5,0.1-0.8-0.1l-7.2-4.1c-0.3-0.1-0.3-0.4-0.2-0.4l5.6-3.2
						c0.2-0.1,0.5-0.1,0.8,0.1l7.2,4.1c0.3,0.1,0.3,0.4,0.2,0.4L756.3,327.7z"/>
					<path id="XMLID_607_" class="st25" d="M768.6,334.8c-0.2,0.1-0.6,0-0.9-0.2l-9.4-5.4c-0.3-0.2-0.5-0.4-0.3-0.5l5.6-3.2
						c0.2-0.1,0.6,0,0.9,0.2l9.4,5.4c0.3,0.2,0.5,0.4,0.3,0.5L768.6,334.8z"/>
					<path id="XMLID_606_" class="st25" d="M830.2,370.4c-0.1,0.1-0.5,0-0.7-0.1l-7.1-4.1c-0.3-0.2-0.4-0.3-0.2-0.4l2.1-1.2
						c0.1-0.1,0.5,0,0.7,0.1l7.1,4.1c0.3,0.1,0.4,0.3,0.2,0.4L830.2,370.4z"/>
					<path id="XMLID_605_" class="st25" d="M839.8,376.1c-0.1,0.1-0.5,0-0.7-0.1l-7.1-4.1c-0.3-0.2-0.4-0.3-0.2-0.4l2.1-1.2
						c0.1-0.1,0.5,0,0.7,0.1l7.1,4.1c0.3,0.1,0.4,0.3,0.2,0.4L839.8,376.1z"/>
					<path id="XMLID_604_" class="st25" d="M849.9,381.8c-0.1,0.1-0.5,0-0.7-0.1l-7.1-4.1c-0.3-0.1-0.4-0.3-0.2-0.4l2-1.1
						c0.1-0.1,0.5,0,0.7,0.1l7.1,4.1c0.3,0.1,0.4,0.3,0.2,0.4L849.9,381.8z"/>
					<path id="XMLID_603_" class="st25" d="M843.7,373.9c-0.1,0.1-0.5,0-0.7-0.1l-7.1-4.1c-0.3-0.1-0.4-0.3-0.2-0.4l2-1.1
						c0.1-0.1,0.5,0,0.7,0.1l7.1,4.1c0.3,0.1,0.4,0.3,0.2,0.4L843.7,373.9z"/>
					<path id="XMLID_602_" class="st25" d="M817.8,363.2c-0.2,0.1-0.5,0.1-0.8-0.1l-46.5-26.9c-0.3-0.1-0.3-0.4-0.2-0.4l5.6-3.2
						c0.2-0.1,0.5-0.1,0.8,0.1l46.5,26.9c0.3,0.1,0.3,0.4,0.2,0.5L817.8,363.2z"/>
					<path id="XMLID_601_" class="st25" d="M767.4,333C767.3,333,767.3,333,767.4,333l-5.5-3.2c0,0,0,0,0,0l0.3-0.2c0,0,0,0,0.1,0
						l5.5,3.2c0,0,0,0,0,0L767.4,333z"/>
					<path id="XMLID_600_" class="st25" d="M753.3,324.3C753.3,324.4,753.3,324.4,753.3,324.3L751,323c0,0,0,0,0,0l0.3-0.2
						c0,0,0,0,0,0l2.3,1.3c0,0,0,0,0,0L753.3,324.3z"/>
					<path id="XMLID_599_" class="st25" d="M785.8,336.2c-0.2,0.1-0.5,0.1-0.8-0.1l-7.2-4.1c-0.3-0.1-0.3-0.4-0.2-0.4l4.7-2.7
						c0.2-0.1,0.5-0.1,0.8,0.1l7.2,4.1c0.3,0.1,0.3,0.4,0.2,0.4L785.8,336.2z"/>
					<path id="XMLID_598_" class="st25" d="M795.6,341.9c-0.2,0.1-0.5,0.1-0.8-0.1l-7.2-4.1c-0.3-0.1-0.3-0.4-0.2-0.4l4.7-2.7
						c0.2-0.1,0.5-0.1,0.8,0.1l7.2,4.1c0.3,0.1,0.3,0.3,0.2,0.4L795.6,341.9z"/>
					<path id="XMLID_597_" class="st25" d="M805.5,347.6c-0.2,0.1-0.5,0.1-0.8-0.1l-7.2-4.1c-0.3-0.1-0.3-0.3-0.2-0.4l4.7-2.7
						c0.2-0.1,0.5-0.1,0.8,0.1l7.2,4.1c0.3,0.1,0.3,0.3,0.2,0.4L805.5,347.6z"/>
					<path id="XMLID_596_" class="st25" d="M815.3,353.3c-0.2,0.1-0.5,0.1-0.8-0.1l-7.2-4.1c-0.3-0.1-0.3-0.4-0.2-0.4l4.7-2.7
						c0.2-0.1,0.5-0.1,0.8,0.1l7.2,4.1c0.3,0.1,0.3,0.4,0.2,0.4L815.3,353.3z"/>
					<path id="XMLID_595_" class="st25" d="M825.2,359c-0.2,0.1-0.5,0.1-0.8-0.1l-7.2-4.1c-0.3-0.1-0.3-0.3-0.2-0.4l4.7-2.7
						c0.2-0.1,0.5-0.1,0.8,0.1l7.2,4.1c0.3,0.1,0.3,0.4,0.2,0.5L825.2,359z"/>
					<path id="XMLID_594_" class="st25" d="M835,364.6c-0.2,0.1-0.5,0.1-0.8-0.1l-7.2-4.1c-0.3-0.1-0.3-0.4-0.2-0.4l4.7-2.7
						c0.2-0.1,0.5-0.1,0.8,0.1l7.2,4.1c0.3,0.1,0.3,0.4,0.2,0.4L835,364.6z"/>
					<path id="XMLID_593_" class="st25" d="M857.2,377.4c-0.2,0.1-0.5,0.1-0.8-0.1L837,366.1c-0.3-0.1-0.3-0.4-0.2-0.4l4.7-2.7
						c0.2-0.1,0.5-0.1,0.8,0.1l19.5,11.2c0.3,0.1,0.3,0.4,0.2,0.4L857.2,377.4z"/>
					<path id="XMLID_592_" class="st25" d="M797.1,335.2c-0.2,0.1-0.5,0.1-0.8-0.1l-7.2-4.1c-0.3-0.1-0.3-0.3-0.2-0.4l4.7-2.7
						c0.2-0.1,0.5-0.1,0.8,0.1l7.2,4.1c0.3,0.1,0.3,0.3,0.2,0.4L797.1,335.2z"/>
					<path id="XMLID_591_" class="st25" d="M807,340.9c-0.2,0.1-0.5,0.1-0.8-0.1l-7.2-4.1c-0.3-0.1-0.3-0.3-0.2-0.4l4.7-2.7
						c0.2-0.1,0.5-0.1,0.8,0.1l7.2,4.1c0.3,0.1,0.3,0.3,0.2,0.4L807,340.9z"/>
					<path id="XMLID_590_" class="st25" d="M816.8,346.6c-0.2,0.1-0.5,0.1-0.8-0.1l-7.2-4.1c-0.3-0.1-0.3-0.3-0.2-0.4l4.7-2.7
						c0.2-0.1,0.5-0.1,0.8,0.1l7.2,4.1c0.3,0.1,0.3,0.4,0.2,0.4L816.8,346.6z"/>
					<path id="XMLID_589_" class="st25" d="M826.7,352.3c-0.2,0.1-0.5,0.1-0.8-0.1l-7.2-4.1c-0.3-0.1-0.3-0.3-0.2-0.4l4.7-2.7
						c0.2-0.1,0.5-0.1,0.8,0.1l7.2,4.1c0.3,0.1,0.3,0.3,0.2,0.4L826.7,352.3z"/>
					<path id="XMLID_588_" class="st25" d="M836.5,358c-0.2,0.1-0.5,0.1-0.8-0.1l-7.2-4.1c-0.3-0.1-0.3-0.3-0.2-0.4l4.7-2.7
						c0.2-0.1,0.5-0.1,0.8,0.1l7.2,4.1c0.3,0.1,0.3,0.3,0.2,0.4L836.5,358z"/>
					<path id="XMLID_587_" class="st25" d="M846.4,363.6c-0.2,0.1-0.5,0.1-0.8-0.1l-7.2-4.1c-0.3-0.1-0.3-0.4-0.2-0.4l4.7-2.7
						c0.2-0.1,0.5-0.1,0.8,0.1l7.2,4.1c0.3,0.1,0.3,0.3,0.2,0.4L846.4,363.6z"/>
					<path id="XMLID_586_" class="st25" d="M856.2,369.3c-0.2,0.1-0.5,0.1-0.8-0.1l-7.2-4.1c-0.3-0.1-0.3-0.3-0.2-0.4l4.7-2.7
						c0.2-0.1,0.5-0.1,0.8,0.1l7.2,4.1c0.3,0.1,0.3,0.3,0.2,0.4L856.2,369.3z"/>
					<path id="XMLID_585_" class="st25" d="M801.3,330.1c-0.2,0.1-0.5,0.1-0.8-0.1l-7.2-4.1c-0.3-0.1-0.3-0.3-0.2-0.4l4.7-2.7
						c0.2-0.1,0.5-0.1,0.8,0.1l7.2,4.1c0.3,0.1,0.3,0.4,0.2,0.4L801.3,330.1z"/>
					<path id="XMLID_584_" class="st25" d="M811.2,335.8c-0.2,0.1-0.5,0.1-0.8-0.1l-7.2-4.1c-0.3-0.1-0.3-0.3-0.2-0.4l4.7-2.7
						c0.2-0.1,0.5-0.1,0.8,0.1l7.2,4.1c0.3,0.1,0.3,0.3,0.2,0.4L811.2,335.8z"/>
					<path id="XMLID_583_" class="st25" d="M821,341.5c-0.2,0.1-0.5,0.1-0.8-0.1l-7.2-4.1c-0.3-0.1-0.3-0.3-0.2-0.4l4.7-2.7
						c0.2-0.1,0.5-0.1,0.8,0.1l7.2,4.1c0.3,0.1,0.3,0.4,0.2,0.4L821,341.5z"/>
					<path id="XMLID_582_" class="st25" d="M830.9,347.2c-0.2,0.1-0.5,0.1-0.8-0.1l-7.2-4.1c-0.3-0.1-0.3-0.4-0.2-0.4l4.7-2.7
						c0.2-0.1,0.5-0.1,0.8,0.1l7.2,4.1c0.3,0.1,0.3,0.3,0.2,0.4L830.9,347.2z"/>
					<path id="XMLID_581_" class="st25" d="M840.7,352.8c-0.2,0.1-0.5,0.1-0.8-0.1l-7.2-4.1c-0.3-0.1-0.3-0.3-0.2-0.4l4.7-2.7
						c0.2-0.1,0.5-0.1,0.8,0.1l7.2,4.1c0.3,0.1,0.3,0.3,0.2,0.4L840.7,352.8z"/>
					<path id="XMLID_580_" class="st25" d="M850.6,358.5c-0.2,0.1-0.5,0.1-0.8-0.1l-7.2-4.1c-0.3-0.1-0.3-0.3-0.2-0.4l4.7-2.7
						c0.2-0.1,0.5-0.1,0.8,0.1l7.2,4.1c0.3,0.1,0.3,0.4,0.2,0.4L850.6,358.5z"/>
					<path id="XMLID_579_" class="st25" d="M860.4,364.2c-0.2,0.1-0.5,0.1-0.8-0.1l-7.2-4.1c-0.3-0.1-0.3-0.3-0.2-0.4l4.7-2.7
						c0.2-0.1,0.5-0.1,0.8,0.1l7.2,4.1c0.3,0.1,0.3,0.3,0.2,0.4L860.4,364.2z"/>
					<path id="XMLID_578_" class="st25" d="M781.7,318.8c-0.2,0.1-0.5,0.1-0.8-0.1l-12.1-7c-0.3-0.1-0.3-0.4-0.2-0.5l4.7-2.7
						c0.2-0.1,0.5-0.1,0.8,0.1l12.1,7c0.3,0.1,0.3,0.4,0.2,0.4L781.7,318.8z"/>
					<path id="XMLID_577_" class="st25" d="M876.8,366.1c-0.2,0.1-0.5,0.1-0.8-0.1l-12.1-7c-0.3-0.1-0.3-0.3-0.2-0.4l4.7-2.7
						c0.2-0.1,0.5-0.1,0.8,0.1l12.1,7c0.3,0.1,0.3,0.3,0.2,0.4L876.8,366.1z"/>
					<path id="XMLID_576_" class="st25" d="M777.5,323.9c-0.2,0.1-0.5,0.1-0.8-0.1l-14.5-8.3c-0.3-0.1-0.3-0.3-0.2-0.4l4.7-2.7
						c0.2-0.1,0.5-0.1,0.8,0.1l14.5,8.3c0.3,0.2,0.3,0.4,0.2,0.4L777.5,323.9z"/>
					<path id="XMLID_575_" class="st25" d="M766.1,324.9c-0.2,0.1-0.5,0.1-0.8-0.1l-9.6-5.6c-0.3-0.1-0.3-0.4-0.2-0.4l4.7-2.7
						c0.2-0.1,0.5-0.1,0.8,0.1l9.6,5.6c0.3,0.1,0.3,0.4,0.2,0.4L766.1,324.9z"/>
					<path id="XMLID_574_" class="st25" d="M793.1,317.8c-0.2,0.1-0.5,0.1-0.8-0.1l-7.1-4.1c-0.3-0.1-0.3-0.4-0.2-0.4l4.7-2.7
						c0.2-0.1,0.5-0.1,0.8,0.1l7.1,4.1c0.3,0.2,0.3,0.4,0.2,0.4L793.1,317.8z"/>
					<path id="XMLID_573_" class="st25" d="M802.9,323.5c-0.2,0.1-0.5,0.1-0.8-0.1l-7.2-4.1c-0.3-0.1-0.3-0.4-0.2-0.4l4.7-2.7
						c0.2-0.1,0.5-0.1,0.8,0.1l7.2,4.1c0.3,0.1,0.3,0.4,0.2,0.4L802.9,323.5z"/>
					<path id="XMLID_572_" class="st25" d="M812.7,329.2c-0.2,0.1-0.5,0.1-0.8-0.1l-7.2-4.1c-0.3-0.1-0.3-0.3-0.2-0.4l4.7-2.7
						c0.2-0.1,0.5-0.1,0.8,0.1l7.2,4.1c0.3,0.1,0.3,0.3,0.2,0.4L812.7,329.2z"/>
					<path id="XMLID_571_" class="st25" d="M822.6,334.8c-0.2,0.1-0.5,0.1-0.8-0.1l-7.1-4.1c-0.3-0.1-0.3-0.4-0.2-0.4l4.7-2.7
						c0.2-0.1,0.5-0.1,0.8,0.1l7.1,4.1c0.3,0.1,0.3,0.4,0.2,0.4L822.6,334.8z"/>
					<path id="XMLID_570_" class="st25" d="M832.4,340.5c-0.2,0.1-0.5,0.1-0.8-0.1l-7.2-4.1c-0.3-0.1-0.3-0.4-0.2-0.4l4.7-2.7
						c0.2-0.1,0.5-0.1,0.8,0.1l7.2,4.1c0.3,0.1,0.3,0.3,0.2,0.4L832.4,340.5z"/>
					<path id="XMLID_569_" class="st25" d="M842.3,346.2c-0.2,0.1-0.5,0.1-0.8-0.1l-7.2-4.1c-0.3-0.1-0.3-0.3-0.2-0.4l4.7-2.7
						c0.2-0.1,0.5-0.1,0.8,0.1l7.2,4.1c0.3,0.1,0.3,0.3,0.2,0.4L842.3,346.2z"/>
					<path id="XMLID_568_" class="st25" d="M852.1,351.9c-0.2,0.1-0.5,0.1-0.8-0.1l-7.2-4.1c-0.3-0.1-0.3-0.4-0.2-0.5l4.7-2.7
						c0.2-0.1,0.5-0.1,0.8,0.1l7.2,4.1c0.3,0.1,0.3,0.3,0.2,0.4L852.1,351.9z"/>
					<path id="XMLID_567_" class="st25" d="M862,357.6c-0.2,0.1-0.5,0.1-0.8-0.1l-7.2-4.1c-0.3-0.1-0.3-0.3-0.2-0.4l4.7-2.7
						c0.2-0.1,0.5-0.1,0.8,0.1l7.2,4.1c0.3,0.1,0.3,0.3,0.2,0.4L862,357.6z"/>
					<path id="XMLID_566_" class="st25" d="M867.7,362.6c-0.1-0.1-0.3-0.1-0.4-0.1c-0.2,0-0.3,0-0.4,0l-4.7,2.7
						c-0.1,0-0.1,0.1-0.1,0.2c0,0.1,0.1,0.2,0.2,0.2l1.9,1.1l-6.2,3.6c-0.1,0-0.1,0.1-0.1,0.2c0,0.1,0.1,0.2,0.2,0.2l4.8,2.8
						c0.1,0.1,0.3,0.1,0.4,0.1c0.2,0,0.3,0,0.4,0l11.3-6.5c0.1,0,0.1-0.1,0.1-0.2c0-0.1-0.1-0.2-0.2-0.2L867.7,362.6z"/>
					<path id="XMLID_565_" class="st25" d="M764.9,322.6C764.8,322.6,764.8,322.6,764.9,322.6l-5.5-3.2c0,0,0,0,0,0l0.3-0.2
						c0,0,0,0,0.1,0l5.5,3.2c0,0,0,0,0,0L764.9,322.6z"/>
				</g>
			</g>
		</g>
	</g>
	<g id="XMLID_2273_">
		<path id="XMLID_1302_" class="st20" d="M736.6,483.5l-29.4,16.4c-1.1,0.6-1.6,1.9-1,2.8c0.6,0.9,1.9,1.2,3.1,0.6l31.3-17.5
			L736.6,483.5z"/>
		<path id="XMLID_1301_" class="st20" d="M717.7,472.6l-4.3-2.5l-29,16.5c-1.1,0.6-1.6,1.9-1,2.8c0.6,0.9,1.9,1.2,3.1,0.6
			L717.7,472.6z"/>
		<path id="XMLID_2274_" class="st6" d="M736.6,392.9l-0.2-0.1c-0.7-0.4-1.4,0.2-1.7,1.2l-3.5,13.1l-20.9-11.9l3.5-13.1
			c0.3-1,0-2.2-0.7-2.6l-0.2-0.1c-0.7-0.4-1.4,0.2-1.7,1.2l-3.8,14.2v0l-0.4,1.4l0,0l-4.5,17l0,0l-0.3,1l-4.6,17.4l0,0l0,0.1
			l-5.1,19l-0.2,0.7v0l-4.5,17v0l-0.4,1.4l0,0l-4.8,17.8c-0.3,1,0,2.2,0.7,2.6l0.2,0.1c0.7,0.4,1.4-0.2,1.7-1.2l4.5-16.7l20.9,11.9
			l-4.5,16.7c-0.3,1,0,2.2,0.7,2.6l0.2,0.1c0.7,0.4,1.4-0.2,1.7-1.2l28.6-106.8C737.6,394.4,737.2,393.3,736.6,392.9z M730.2,410.6
			l-4,14.9l-20.9-11.9l4-14.9L730.2,410.6z M721.3,443.9l-20.9-11.9l4-14.9l20.9,11.9L721.3,443.9z M716.4,462.2l-20.9-11.9l4-14.9
			l20.9,11.9L716.4,462.2z M690.6,468.7l4-14.9l20.9,11.9l-4,14.9L690.6,468.7z"/>
	</g>
	<polygon id="XMLID_1295_" class="st2" points="952.9,521.1 850.4,461.9 952.3,403.1 1055.8,462.2 	"/>
	<linearGradient id="XMLID_18_" gradientUnits="userSpaceOnUse" x1="952.9086" y1="520.4317" x2="1055.8185" y2="520.4317">
		<stop  offset="5.913980e-02" style="stop-color:#70B6EC"/>
		<stop  offset="0.9409" style="stop-color:#AED5EB"/>
	</linearGradient>
	<polygon id="XMLID_1294_" class="st26" points="952.9,521.1 953,578.7 1055.8,519.8 1055.8,462.2 	"/>
	<polygon id="XMLID_1293_" class="st4" points="850.5,461.9 850.5,519.5 953.1,578.7 953.1,521.1 	"/>
	<g id="XMLID_2242_">
		<path id="XMLID_1292_" class="st14" d="M757.9,294.5l-50.7,29.3c-2.8,1.6-6.3-0.4-6.3-3.7v-88.1c0-2.2,1.2-4.2,3.1-5.3l52.1-30.1
			c1.9-1.1,4.3,0.3,4.3,2.5v91.1C760.4,292,759.4,293.6,757.9,294.5z"/>
		<g id="XMLID_2252_">
			<path id="XMLID_2257_" class="st6" d="M713.5,281c-0.2,11,7.3,15.6,16.9,10.3c9.5-5.2,17.5-18.4,17.7-29.3
				c0.2-11-7.3-15.6-16.9-10.3C721.6,256.9,713.7,270.1,713.5,281z M730.5,282.9c-5.5,3-9.8,0.4-9.7-5.9c0.1-6.3,4.7-13.8,10.1-16.8
				c5.5-3,9.8-0.4,9.7,5.9C740.5,272.4,736,279.9,730.5,282.9z"/>
			<path id="XMLID_1289_" class="st27" d="M714.2,275.5c2.2-9.5,9-19.4,17-23.8c5.8-3.2,10.9-2.7,13.9,0.7l-2.1,2.7c0,0,0,0,0,0
				l-4.1,5.3c-1.7-1.9-4.6-2.1-7.9-0.3c-4.5,2.5-8.4,8.1-9.7,13.5L714.2,275.5z"/>
			<path id="XMLID_1288_" class="st15" d="M738,275.1c1.6-2.9,2.6-6.1,2.7-9c0.1-2.7-0.7-4.7-2-5.9l1.4-1.9c0,0,0,0-0.1-0.1l4.5-6.6
				c0.1,0.1,0.2,0.2,0.3,0.3l0,0c0,0,0,0,0,0c0,0,0,0,0.1,0.1c0,0,0.1,0.1,0.1,0.2c1.9,2.1,3.1,5.4,3,9.7c-0.1,5-1.8,10.5-4.6,15.5
				L738,275.1z"/>
		</g>
		<path id="XMLID_1287_" class="st15" d="M740.3,234.4l6.2-3.6c1-0.6,1.8-2.1,1.8-3.5l0,0c0-1.3-0.8-2-1.8-1.4l-6.2,3.6
			c-1,0.6-1.8,2.1-1.8,3.5l0,0C738.5,234.4,739.3,235,740.3,234.4z"/>
		<path id="XMLID_1286_" class="st6" d="M740.3,223.6l6.2-3.6c1-0.6,1.8-2.1,1.8-3.5l0,0c0-1.3-0.8-2-1.8-1.4l-6.2,3.6
			c-1,0.6-1.8,2.1-1.8,3.5l0,0C738.5,223.6,739.3,224.2,740.3,223.6z"/>
		<path id="XMLID_1285_" class="st6" d="M737,225.5l6.2-3.6c1-0.6,1.8-2.1,1.8-3.5l0,0c0-1.3-0.8-2-1.8-1.4l-6.2,3.6
			c-1,0.6-1.8,2.1-1.8,3.5v0C735.2,225.5,736,226.1,737,225.5z"/>
		<path id="XMLID_1284_" class="st15" d="M727.6,241.9l6.2-3.6c1-0.6,1.8-2.1,1.8-3.5l0,0c0-1.3-0.8-2-1.8-1.4l-6.2,3.6
			c-1,0.6-1.8,2.1-1.8,3.5l0,0C725.7,241.8,726.6,242.4,727.6,241.9z"/>
		<path id="XMLID_1283_" class="st15" d="M714.8,249.2l6.2-3.6c1-0.6,1.8-2.1,1.8-3.5l0,0c0-1.3-0.8-2-1.8-1.4l-6.2,3.6
			c-1,0.6-1.8,2.1-1.8,3.5l0,0C713,249.2,713.8,249.8,714.8,249.2z"/>
	</g>
	<g id="XMLID_2224_">
		<polygon id="XMLID_1282_" class="st28" points="861.5,262.1 860,326 891.4,344.3 892.9,280.4 		"/>
		<polygon id="XMLID_1281_" class="st14" points="886,292.8 871.9,284.6 871.9,282.1 886.1,290.3 		"/>
		<polygon id="XMLID_1280_" class="st14" points="885.7,304.3 871.6,296.1 871.7,293.5 885.8,301.8 		"/>
		<polygon id="XMLID_1279_" class="st14" points="885.5,315.8 871.3,307.5 871.4,305 885.5,313.2 		"/>
		<path id="XMLID_1278_" class="st6" d="M868.2,283.9l-2.8-1.7c-0.4-0.2-0.8-0.9-0.7-1.5l0.1-3c0-0.6,0.4-0.8,0.8-0.6l2.8,1.7
			c0.4,0.2,0.8,0.9,0.7,1.5l-0.1,3C868.9,283.9,868.6,284.1,868.2,283.9z"/>
		<path id="XMLID_1277_" class="st6" d="M867.9,296.1l-2.8-1.7c-0.4-0.2-0.8-0.9-0.7-1.5l0.1-3c0-0.6,0.4-0.8,0.8-0.6l2.8,1.7
			c0.4,0.2,0.8,0.9,0.7,1.5l-0.1,3C868.7,296.1,868.3,296.4,867.9,296.1z"/>
		<path id="XMLID_1276_" class="st6" d="M867.6,308.4l-2.8-1.7c-0.4-0.2-0.8-0.9-0.7-1.5l0.1-3c0-0.6,0.4-0.8,0.8-0.6l2.8,1.7
			c0.4,0.2,0.8,0.9,0.7,1.5l-0.1,3C868.4,308.4,868,308.7,867.6,308.4z"/>
		<path id="XMLID_1275_" class="st27" d="M875.5,331.9l-16.5-9.6c-2.3-1.3-4-4.9-4-7.9l0-0.9c0.1-3,2-4.4,4.2-3.1l16.5,9.6
			c2.3,1.3,4,4.9,4,7.9l0,0.9C879.6,331.9,877.7,333.3,875.5,331.9z"/>
		<path id="XMLID_1274_" class="st15" d="M874,325.6l-14.3-8.3c-0.3-0.2-0.5-0.6-0.5-1l0,0c0-0.4,0.3-0.6,0.5-0.4l14.3,8.3
			c0.3,0.2,0.5,0.6,0.5,1l0,0C874.6,325.6,874.3,325.8,874,325.6z"/>
	</g>
	<g id="XMLID_2203_">
		<polygon id="XMLID_1273_" class="st15" points="854,261.6 854.1,260.6 791.1,224 789.9,281.9 852.8,318.5 		"/>
		<g id="XMLID_2214_">
			<polygon id="XMLID_1272_" class="st29" points="847.2,305.5 794.1,274.6 795.1,231.7 848.2,262.5 			"/>
			<line id="XMLID_1271_" class="st29" x1="812.4" y1="241.7" x2="811.4" y2="284.6"/>
			<line id="XMLID_1270_" class="st29" x1="830.3" y1="252.1" x2="829.3" y2="295"/>
			<line id="XMLID_1269_" class="st30" x1="794.9" y1="239" x2="848" y2="269.9"/>
			<line id="XMLID_1268_" class="st30" x1="794.8" y1="246.2" x2="847.9" y2="277"/>
			<line id="XMLID_1267_" class="st30" x1="794.6" y1="253.3" x2="847.7" y2="284.2"/>
			<line id="XMLID_1266_" class="st30" x1="847.6" y1="291.3" x2="794.5" y2="260.5"/>
			<line id="XMLID_1265_" class="st30" x1="847.4" y1="298.5" x2="794.3" y2="267.6"/>
		</g>
		<path id="XMLID_1264_" class="st6" d="M809,287.5l-2.2-1.3c-0.3-0.2-0.5-0.6-0.5-1l0,0c0-0.4,0.2-0.6,0.5-0.4l2.2,1.3
			c0.3,0.2,0.5,0.6,0.5,1l0,0C809.5,287.5,809.3,287.7,809,287.5z"/>
		<path id="XMLID_1263_" class="st6" d="M826.8,298l-2.2-1.3c-0.3-0.2-0.5-0.6-0.5-1l0,0c0-0.4,0.2-0.6,0.5-0.4l2.2,1.3
			c0.3,0.2,0.5,0.6,0.5,1l0,0C827.3,298,827.1,298.2,826.8,298z"/>
		<path id="XMLID_1262_" class="st6" d="M844.9,308.9l-2.2-1.3c-0.3-0.2-0.5-0.6-0.5-1l0,0c0-0.4,0.2-0.6,0.5-0.4l2.2,1.3
			c0.3,0.2,0.5,0.6,0.5,1l0,0C845.4,308.9,845.1,309.1,844.9,308.9z"/>
		<path id="XMLID_1261_" class="st14" d="M847.7,285.4c-7-3.3-8.6,7.5-12,5.9c-3.4-1.6-2.7-13.3-6.3-15.4c-3.7-2.1-3.1,10-6.6,8.3
			c-3.5-1.8-1.2-15.7-7.1-18.6c-7.3-3.6-2.3,15-8.9,12.3c-5.4-2.2-0.6-7.9-5.9-11.3c-2.7-1.7-6.5,3.9-6.5,3.9l-0.1,4.1l53.1,30.9
			L847.7,285.4z"/>
	</g>
	<g id="XMLID_2166_">
		<g>
			<path id="XMLID_269_" class="st31" d="M612,297.1"/>
			<polygon id="XMLID_268_" class="st31" points="668.5,286.6 687.3,276 687.2,254.7 668.4,265.3 			"/>
			<polygon id="XMLID_267_" class="st31" points="649.7,297.2 668.5,286.6 668.4,265.3 649.6,275.9 			"/>
			<polygon id="XMLID_266_" class="st31" points="630.9,307.8 649.7,297.2 649.6,275.9 630.8,286.5 			"/>
			<polygon id="XMLID_265_" class="st31" points="612.1,318.4 630.9,307.8 630.8,286.5 612,297.1 			"/>
			<polygon id="XMLID_256_" class="st31" points="668.6,307.9 687.4,297.3 687.3,276 668.5,286.6 			"/>
			<polygon id="XMLID_252_" class="st31" points="649.8,318.5 668.6,307.9 668.5,286.6 649.7,297.2 			"/>
			<polygon id="XMLID_251_" class="st31" points="612.2,339.7 631,329.1 630.9,307.8 612.1,318.4 			"/>
			<line id="XMLID_250_" class="st31" x1="687.4" y1="297.3" x2="687.5" y2="318.6"/>
			<polygon id="XMLID_249_" class="st31" points="649.9,339.8 668.7,329.2 668.6,307.9 649.8,318.5 			"/>
			<polygon id="XMLID_247_" class="st31" points="631.1,350.4 649.9,339.8 649.8,318.5 631,329.1 			"/>
			<polygon id="XMLID_246_" class="st31" points="612.3,361 631.1,350.4 631,329.1 612.2,339.7 			"/>
			<line id="XMLID_245_" class="st31" x1="687.5" y1="318.6" x2="687.6" y2="339.9"/>
			<polygon id="XMLID_244_" class="st31" points="668.8,350.5 687.6,339.9 687.5,318.6 668.7,329.2 			"/>
			<polygon id="XMLID_243_" class="st31" points="650,361.1 668.8,350.5 668.7,329.2 649.9,339.8 			"/>
			<polygon id="XMLID_241_" class="st31" points="631.2,371.7 650,361.1 649.9,339.8 631.1,350.4 			"/>
			<polygon id="XMLID_239_" class="st31" points="612.4,382.3 631.2,371.7 631.1,350.4 612.3,361 			"/>
		</g>
	</g>
	<polyline id="XMLID_1243_" class="st32" points="617.2,376.2 628.5,334.6 646.8,332.2 652.7,301.6 668.6,301.9 679.2,276.8 	"/>
	<polyline id="XMLID_1242_" class="st32" points="675.1,278.1 679.6,276.1 680.6,280.1 	"/>
	<path id="XMLID_1241_" class="st20" d="M978.9,474.3L943,454l-4.5-45.8c1-0.6,2.5-0.6,3.4-0.1l76.4,43.2c0.9,0.5,0.8,1.4-0.2,2
		l-35.8,20.9C981.3,474.7,979.8,474.8,978.9,474.3z"/>
	<g id="XMLID_2065_">
		<g id="XMLID_2141_">
			<path id="XMLID_1240_" class="st33" d="M981.2,473.8l-41.8-25.7c-2.5-1.5-4.6-5.4-4.6-8.7l0-87.9c0-3.4,2-4.9,4.6-3.4l42.1,24.3
				c2.5,1.5,4.6,5.4,4.6,8.7l0,87.5c0,2.2-0.7,2.6-2.1,3.4L981.2,473.8z"/>
			<path id="XMLID_1239_" class="st5" d="M954.7,389.3c0,0-19.9,53.4-19.9,50.1l-1.9-89.9l3.7-1.8c0.8-0.4,1.8-0.3,2.8,0.3
				l42.1,24.3c1.2,0.7,2.3,2,3.2,3.5L954.7,389.3z"/>
			<path id="XMLID_1238_" class="st6" d="M977.6,474.2l-42-24.3c-2.5-1.5-4.5-5.4-4.5-8.7v-87.9c0-3.4,2-4.9,4.5-3.4l41.9,24.3
				c2.5,1.5,4.4,5.4,4.4,8.7v87.9C982,474.1,980.1,475.6,977.6,474.2z"/>
			<path id="XMLID_1237_" class="st9" d="M983.8,389.2v5c0,0.3,0.2,0.5,0.5,0.4l-0.1,0c0.3-0.2,0.3-0.6,0.3-0.9v-5
				c0-0.3-0.1-0.5-0.3-0.4l0,0C984,388.5,983.8,388.9,983.8,389.2z"/>
			<path id="XMLID_1236_" class="st9" d="M983.8,398v5c0,0.3,0.2,0.5,0.5,0.4l-0.1,0c0.3-0.2,0.3-0.6,0.3-0.9v-5
				c0-0.3-0.1-0.5-0.3-0.4l0,0C984,397.3,983.8,397.7,983.8,398z"/>
			<path id="XMLID_1235_" class="st14" d="M976.4,459.1l-40.9-23.6c-0.4-0.2-0.7-0.7-0.7-1.2v-74.3c0-1.1,1.1-1.7,2.1-1.2l40.9,23.6
				c0.4,0.2,0.7,0.7,0.7,1.2v74.3C978.5,459,977.3,459.7,976.4,459.1z"/>
			<path id="XMLID_1234_" class="st15" d="M964,371.4l-13-7.5c-0.5-0.3-0.8-1-0.8-1.6l0,0c0-0.6,0.4-0.9,0.8-0.6l13,7.5
				c0.5,0.3,0.8,1,0.8,1.6v0C964.8,371.3,964.4,371.6,964,371.4z"/>
		</g>
		<g id="XMLID_2066_">
			<line id="XMLID_1233_" class="st34" x1="938" y1="432.1" x2="972.5" y2="452.4"/>
			<polygon id="XMLID_1232_" class="st6" points="948,434.1 938,428.4 938,410.4 948,416.2 			"/>
			<polygon id="XMLID_1231_" class="st15" points="960.2,441.2 950.2,435.4 950.2,423.7 960.2,429.5 			"/>
			<polygon id="XMLID_1230_" class="st27" points="972.8,448.4 962.8,442.7 962.8,419.2 972.8,425 			"/>
			<g id="XMLID_2073_">
				<line id="XMLID_1229_" class="st35" x1="939.6" y1="367.7" x2="971.6" y2="386.2"/>
				<line id="XMLID_1228_" class="st35" x1="939.8" y1="385.2" x2="971.8" y2="403.6"/>
				<line id="XMLID_1227_" class="st35" x1="940" y1="402.6" x2="972" y2="421.1"/>
				<path id="XMLID_1226_" class="st35" d="M972.2,438.6"/>
				<polygon id="XMLID_1225_" class="st35" points="955.8,394.4 939.8,385.2 939.6,367.7 955.6,376.9 				"/>
				<polygon id="XMLID_1224_" class="st35" points="971.8,403.6 955.8,394.4 955.6,376.9 971.6,386.2 				"/>
				<polygon id="XMLID_1223_" class="st35" points="956,411.9 940,402.6 939.8,385.2 955.8,394.4 				"/>
				<polygon id="XMLID_1222_" class="st35" points="972,421.1 956,411.9 955.8,394.4 971.8,403.6 				"/>
				<line id="XMLID_1221_" class="st35" x1="956" y1="411.9" x2="940" y2="402.6"/>
				<line id="XMLID_1220_" class="st35" x1="956" y1="411.9" x2="972" y2="421.1"/>
			</g>
			<polyline id="XMLID_1219_" class="st36" points="940.8,401.7 949,397.3 958.4,396.5 969.4,390.3 			"/>
			<polyline id="XMLID_1218_" class="st36" points="967.6,389.3 969.9,390 968.7,392.4 			"/>
		</g>
	</g>
	<path id="XMLID_1217_" class="st15" d="M846.2,246.3c0,0.8-0.6,1.1-1.3,0.7c-0.7-0.4-1.2-1.4-1.2-2.2c0-0.8,0.6-1.1,1.3-0.7
		C845.6,244.6,846.2,245.5,846.2,246.3z"/>
	<g id="XMLID_2032_">
		<path id="XMLID_1216_" class="st20" d="M797.6,546.3c17.7-10.2,17.6-26.9-0.2-37.2l-8.4,4.8c-17.5-5.9-40.1-4.5-55,4.1
			c-17.7,10.2-17.6,26.9,0.2,37.2s46.7,10.4,64.4,0.1l-32.3-18.7l7.3-4.2L797.6,546.3z"/>
		<path id="XMLID_1215_" class="st37" d="M789.8,550.9c-17.7,10.2-46.6,10.2-64.4-0.1c-17.8-10.3-17.9-26.9-0.2-37.2
			c17.7-10.2,46.6-10.2,64.4,0.1l-32.1,18.5L789.8,550.9z"/>
		<path id="XMLID_1214_" class="st38" d="M757.5,532.3L757.5,532.3l32.4,18.6c-7.6,4.4-17.1,7.1-27.5,7.5l-0.9,0L761,552
			C759.8,545.6,758,536.1,757.5,532.3z"/>
		<polygon id="XMLID_1212_" class="st38" points="789.6,544.2 789.8,550.9 777.3,545.3 		"/>
		<path id="XMLID_1211_" class="st39" d="M789.7,536.7c0,0,17.9-9.3,13.2-24.9c-4.6-15.6-13.2,19.4-13.2,19.4V536.7z"/>
		<path id="XMLID_1209_" class="st40" d="M725.4,550.8c-17.8-10.3-17.9-26.9-0.2-37.2l32.3,18.7L725.4,550.8z"/>
		<path id="XMLID_1204_" class="st14" d="M789.6,513.7c-17.8-10.3-46.7-10.4-64.4-0.1l32.3,18.7L789.6,513.7z"/>
		<path id="XMLID_1200_" class="st40" d="M757.5,532.3L757.5,532.3l-32.2-18.7c-4.4,2.5-11,7.9-13.2,11.9v6.3
			C726.7,532.5,747,531.8,757.5,532.3z"/>
		<path id="XMLID_1182_" class="st14" d="M789.8,544.4c-17.7,10.2-46.6,10.2-64.4-0.1s-17.9-26.9-0.2-37.2s46.6-10.2,64.4,0.1
			l-32.1,18.5L789.8,544.4z"/>
		<path id="XMLID_1181_" class="st41" d="M725.4,544.3c-17.8-10.3-17.9-26.9-0.2-37.2l32.3,18.7L725.4,544.3z"/>
		<path id="XMLID_1180_" class="st42" d="M789.6,507.3c-17.8-10.3-46.7-10.4-64.4-0.1l32.3,18.7L789.6,507.3z"/>
		<path id="XMLID_1179_" class="st27" d="M789.5,494.1c17.8,10.3,17.9,26.9,0.2,37.2l-32.3-18.7L789.5,494.1z"/>
		<path id="XMLID_1178_" class="st6" d="M757.5,525.8L757.5,525.8l-32.2-18.7c-8,4.6-12.4,10.6-13.1,16.6
			C726.8,524.4,747,525.4,757.5,525.8z"/>
		<path id="XMLID_1177_" class="st15" d="M757.5,525.8L757.5,525.8l32.4,18.6c-8,4.6-18.3,7.1-28.8,7.6
			C759.8,543.5,758.3,531.9,757.5,525.8z"/>
		<polygon id="XMLID_1167_" class="st39" points="757.4,512.6 757.4,517.2 789.7,536.7 789.7,531.2 		"/>
		<path id="XMLID_1140_" class="st37" d="M725.4,550.8v-6.4c2.5,1.4,5.1,2.7,7.9,3.7L725.4,550.8z"/>
	</g>
	<g id="XMLID_2019_">
		<polygon id="XMLID_1139_" class="st43" points="936.8,371.4 908.1,354.8 908.1,383.3 936.8,399.9 		"/>
		<g id="XMLID_2020_">
			<polygon id="XMLID_1138_" class="st27" points="918.2,385.7 912.4,382.4 912.5,373.3 918.3,376.7 			"/>
			<polygon id="XMLID_1137_" class="st14" points="925.2,389.8 919.5,386.5 919.5,380.6 925.3,383.9 			"/>
			<polygon id="XMLID_1135_" class="st44" points="932.5,394 926.7,390.7 926.9,378.8 932.6,382.2 			"/>
			<path id="XMLID_1134_" class="st14" d="M917.6,371.9l-4.5-2.6c-0.4-0.2-0.8-0.9-0.8-1.4l0,0c0-0.5,0.3-0.8,0.7-0.6l4.5,2.6
				c0.4,0.2,0.8,0.9,0.8,1.4l0,0C918.3,371.9,918,372.1,917.6,371.9z"/>
			<path id="XMLID_1133_" class="st14" d="M925.2,376.4l-4.5-2.6c-0.4-0.2-0.8-0.9-0.8-1.4l0,0c0-0.5,0.3-0.8,0.7-0.6l4.5,2.6
				c0.4,0.2,0.8,0.9,0.8,1.4l0,0C925.9,376.4,925.6,376.7,925.2,376.4z"/>
			<path id="XMLID_1132_" class="st6" d="M929.6,370.3l-16.3-9.4c-0.5-0.3-1-0.1-1.1,0.4s0.3,1.2,0.8,1.5l16.3,9.4
				c0.5,0.3,1,0.1,1.1-0.4C930.5,371.3,930.2,370.6,929.6,370.3z"/>
		</g>
	</g>
	<g id="XMLID_1943_">
		<path id="XMLID_1131_" class="st5" d="M889.7,616.3c-5.5,3.6-14.5,4.2-20.1,1.3c-5.6-3-5.7-8.3-0.2-12c5.5-3.6,14.5-4.2,20.1-1.3
			S895.2,612.6,889.7,616.3z"/>
		<g id="XMLID_1944_">
			<path id="XMLID_1130_" class="st6" d="M892.4,508.5c-0.4-1,0.1-2.1,1-2.4c1.2-0.4,2.8-0.5,3.4,1.6c0.8,2.3,2.5,6.7,3.7,9.6
				c0.4,1-0.9,1.9-1.6,1.1c-0.7-0.7-1.2-1.6-1.5-2.7c0,0,0.7,1.9,1.4,3.5c0.4,0.8-0.4,1.7-1.3,1.3c-1.4-0.6-3-1.7-3.1-4
				C894.6,513.6,893.3,510.3,892.4,508.5z"/>
			
				<ellipse id="XMLID_1129_" transform="matrix(0.8377 -0.5461 0.5461 0.8377 -132.7662 569.4627)" class="st27" cx="891.8" cy="508.1" rx="1.3" ry="2.1"/>
			<path id="XMLID_1128_" class="st11" d="M879,541.9c0.4,0.2,0.7,0.4,1.1,0.4c1,0.1,2-0.4,2.9-1c0.1-0.1,0.2-0.1,0.2-0.2
				c0.1-0.2,0.1-0.4,0.1-0.6c-0.3-1.2-0.9-1.1-1.7-1.8c-0.4-0.3-0.7-0.7-1-1c-0.6-0.5-1.2-0.8-1.8-1.2l0,0c-0.8-0.4-3.6-1.9-4.2,0.2
				c-0.2,0.9-0.2,1.5,0.3,2.1c0.5,0.7,0.8,1.1,1.6,1.6C877.3,541,878.1,541.5,879,541.9z"/>
			<path id="XMLID_1127_" class="st11" d="M883,539.9c-0.3-0.8-0.4-1.2-0.8-1.9c-0.3-0.5-0.8-0.9-1.4-1.2c-1.1-0.4-3-1.1-3.6-0.6
				c-0.8,0.6,0,1.5,0.5,2.1c1,1.1,2.7,1.9,4,2.4c0.2,0.1,0.4,0,0.5-0.1c0.1,0.1-0.4-0.2-0.4-0.1C882.2,541.3,883.3,540.7,883,539.9z
				"/>
			<polygon id="XMLID_1126_" class="st45" points="882.7,539.5 884.1,540.9 881.5,543.9 880,542.4 			"/>
			<path id="XMLID_1125_" class="st6" d="M873.6,606.5l6-4.5l3.5-0.6c1.1,4.5,0.6,4-0.7,5.1l-5.2,3.2c-2.7,1.3-3.6,1.5-5.2,0.8l0,0
				C871,609.5,871.9,608.2,873.6,606.5z"/>
			<path id="XMLID_1124_" class="st6" d="M880.3,610.8l6-4.5l3.5-0.6c1.1,4.5,0.6,4-0.7,5.1l-5.2,3.2c-2.7,1.3-3.6,1.5-5.2,0.8l0,0
				C877.7,613.8,878.6,612.5,880.3,610.8z"/>
			<g id="XMLID_1123_">
				<g>
					<path class="st15" d="M891.7,525.8c-2.4-2.4-6.5-3.3-9.8-3.3c-1.2,0-1.2,1.9,0,1.9c2.7,0,6.4,0.7,8.4,2.7
						C891.2,528,892.6,526.7,891.7,525.8L891.7,525.8z"/>
				</g>
			</g>
			<g id="XMLID_1992_">
				<path id="XMLID_1122_" class="st14" d="M879,526c-0.6,7.7-1.6,15.3-3.3,22.9c-0.8,3.6-6.4,2.1-5.6-1.5
					c1.6-7.1,2.6-14.1,3.1-21.4C873.6,522.4,879.3,522.3,879,526L879,526z"/>
			</g>
			<g id="XMLID_1990_">
				<path id="XMLID_1121_" class="st11" d="M880.3,555.1c-0.2,15.7,0.6,31.1,3.2,46.5c0.6,3.6-4.9,5.2-5.6,1.5
					c-2.7-16-3.7-31.9-3.4-48.1C874.6,551.4,880.3,551.4,880.3,555.1L880.3,555.1z"/>
			</g>
			<g id="XMLID_1988_">
				<path id="XMLID_1120_" class="st11" d="M887.8,559.6c0.9,15.7,2.3,31.3,2.3,47c0,3.7-5.8,3.7-5.8,0c0-15.7-1.4-31.4-2.3-47
					C881.8,555.9,887.6,555.9,887.8,559.6L887.8,559.6z"/>
			</g>
			<path id="XMLID_1119_" class="st14" d="M893.4,561.3c-0.6,8.1-5.8,8.9-11,5.9c-5.2-3-8.1-9.9-8.1-15.9c0,0,2.9-8.9,8.1-5.9
				C887.6,548.4,894.1,552,893.4,561.3z"/>
			<path id="XMLID_1117_" class="st14" d="M875.6,527.9c0,0-3.5,5.4-3.1,8.7c0.3,2.1,1.8,4.4,2,5.1c1.8,5.5,0.8,7.1,1,8.6
				c0,0,1.2,5.2,14,0.3l5.4-15.8L875.6,527.9z"/>
			<path id="XMLID_1115_" class="st14" d="M894,538.3c0.5-0.3,0.6-1.1,0.6-1.1c0.3-2.8,1.9-4.1-1.2-8.9c-0.5-0.8-7.2-4.3-12.3-5.2
				c-2.4-0.4-4.9,0.9-5.9,3.2c-0.6,1.3-1.1,4-1.1,4c-0.2,5.2,2.1-1.6,2.4,1.2c0-0.1,0-0.1,0-0.2c0,0,0.6,4.8,1.1,8.6
				c0.3,2.3,0.5,4,0.5,4.3c0,0,0,0,0,0l8.8,6.9l4.6-8.3l0,0L894,538.3z"/>
			<path id="XMLID_1114_" class="st11" d="M881.4,523c0,0-4.4,4.5-0.6,7.7c3.8,3.2,10.3-4,10.3-4C887.7,524.7,884.5,523.2,881.4,523
				z"/>
			<path id="XMLID_1113_" class="st14" d="M874.3,551.3l-3.1,21.3c0,0.3,0.1,0.6,0.3,0.8c1.2,1.6,7.2,5.7,20.4,3.4
				c1.5-0.3,1.8-0.3,1.8-1.3l-0.8-17l-7.8-0.1L874.3,551.3z"/>
			<path id="XMLID_1016_" class="st11" d="M883.4,525.7l-2.1-8.1l5.1,1.6l1.7,6.6C888.4,526.8,884.9,529.8,883.4,525.7z"/>
			<g id="XMLID_1015_">
				<g>
					<path class="st15" d="M879.6,523.7c-0.3,3.2-2.5,6.4,1.5,8c3.9,1.6,7.8-1.6,10.5-4.2c0.9-0.9-0.5-2.2-1.4-1.4
						c-2,1.9-5.7,5.4-8.7,3.6c-1.5-0.8-0.8-2.2-0.5-3.5c0.2-0.8,0.4-1.7,0.5-2.6C881.6,522.4,879.7,522.4,879.6,523.7L879.6,523.7z"
						/>
				</g>
			</g>
			<path id="XMLID_62_" class="st11" d="M882.1,523.5l-2.6-0.8c-2-0.6-3.2-2.8-2.6-4.8l2.7-8.7c0.6-2,2.8-3.2,4.8-2.6l2.6,0.8
				c2,0.6,3.2,2.8,2.6,4.8l-2.7,8.7C886.3,522.9,884.1,524.1,882.1,523.5z"/>
			<path id="XMLID_1010_" class="st46" d="M882.5,523.5c0.7,0.1,2.4,0,3.1-0.4c0,0-1.4,1.5-3,1.7L882.5,523.5z"/>
			<path id="XMLID_978_" class="st6" d="M884.7,509.3c0,0,1.3,6.4,3.1,8.3l-0.6,1.2c-0.6,1.2-0.6,2.5-0.1,3.7l0.2,0.5
				c0,0,11.9-6.6,4.4-14.9c-5.1-5.6-13.3-2.7-13.3,3.3L884.7,509.3z"/>
			<path id="XMLID_940_" class="st11" d="M887.9,520.8c-0.9,0.3-1.6-0.1-1.6-1c0-0.9,0.7-1.9,1.5-2.2c0.9-0.3,1.6,0.1,1.6,1
				C889.4,519.5,888.7,520.5,887.9,520.8z"/>
			<g id="XMLID_1950_">
				<path id="XMLID_939_" class="st11" d="M867,553.7l1.9,1.2c0.9,0.6,2.1,0.6,2.5-0.1l0.3-0.5c0.4-0.7,0-1.7-1-2.3l-1.9-1.2
					c-0.9-0.6-2.1-0.6-2.5,0.1l-0.3,0.5C865.7,552.1,866.1,553.1,867,553.7z"/>
				<g id="XMLID_1951_">
					<path id="XMLID_938_" class="st47" d="M883.3,551.6l0-0.5l-0.6,0.2l-0.1-0.3l-15.2-8.8c-0.2-0.1-0.5-0.1-0.7,0l-6.5,3.8V546
						l-1.2,0.5v0.5h0c0,0,0.1,0.1,0.1,0.1l15.8,9.1c0.2,0.1,0.5,0.1,0.7,0l7.6-4.4C883.2,551.8,883.3,551.7,883.3,551.6L883.3,551.6
						z"/>
					<path id="XMLID_937_" class="st48" d="M874.8,555.8l-15.8-9.1c-0.2-0.1-0.2-0.3,0.1-0.4l7.6-4.4c0.2-0.1,0.5-0.1,0.7,0
						l15.8,9.1c0.2,0.1,0.2,0.3-0.1,0.4l-7.6,4.4C875.3,555.9,875,555.9,874.8,555.8z"/>
					<path id="XMLID_936_" class="st47" d="M875.9,549.9l-3.8-2.2c0,0,0-0.1,0-0.1l1.8-1.1c0.1,0,0.1,0,0.2,0l3.8,2.2
						c0,0,0,0.1,0,0.1l-1.8,1.1C876,549.9,875.9,549.9,875.9,549.9z"/>
					<path id="XMLID_935_" class="st15" d="M874.4,545.5c-0.1-0.4-0.4-0.9-0.7-1.1l-15.7-8.9c-0.1-0.1-0.3-0.1-0.3-0.1l0,0l0,0
						c0,0-0.1,0-0.1,0.1l-0.5,0.5l0.5,0l1.5,9.6c0.1,0.4,0.4,0.9,0.7,1.1l14.8,8.4l0.5,0.5l0.1,0.1c0.3,0.1,1-0.4,1-0.4L874.4,545.5
						z"/>
					<path id="XMLID_934_" class="st6" d="M874.9,556.2l-15.7-8.9c-0.3-0.2-0.7-0.7-0.7-1.1l-1.5-9.7c-0.1-0.4,0.2-0.6,0.5-0.4
						l15.7,8.9c0.3,0.2,0.7,0.7,0.7,1.1l1.5,9.7C875.4,556.2,875.2,556.4,874.9,556.2z"/>
					<path id="XMLID_933_" class="st15" d="M866.5,546.8c0.1,0.5-0.4,0.6-1,0.3c-0.7-0.4-1.3-1.1-1.3-1.6c-0.1-0.5,0.4-0.6,1-0.3
						C865.9,545.6,866.5,546.3,866.5,546.8z"/>
				</g>
			</g>
			<g id="XMLID_1948_">
				<path id="XMLID_932_" class="st11" d="M895.3,530.5c1.6,3.7,3.7,7.5,4.1,11.6c0.3,3,0.6,7.9-1.6,10.2c-2.1,2.3-5.5,1.9-8.2,1.3
					c-1.7-0.3-3.3-0.9-4.9-1.4c-0.7-0.2-1.4-0.4-2.1-0.6c-0.3-0.1-1.1-0.1-0.7-0.2c-2.7,0.7-3.8-3.5-1.1-4.2c2-0.5,4.3,0.6,6.1,1.1
					c1.9,0.6,5.4,2.1,7.3,1.3c1.6-0.7,1.2-5.4,1-7.1c-0.4-3.5-2.2-6.8-3.6-9.9C890.5,530.1,894.2,527.9,895.3,530.5L895.3,530.5z"/>
			</g>
			<g id="XMLID_1946_">
				<path id="XMLID_931_" class="st14" d="M896.2,530c3.2,6.2,3.5,13,3.5,19.7c0,3-5.8,3.1-5.8,0.1c0-6.3-0.3-12.5-3.3-18.4
					C889.3,528.6,894.8,527.2,896.2,530L896.2,530z"/>
			</g>
			<path id="XMLID_61_" class="st11" d="M875.6,550.8l-0.3-1.1c-0.2-0.9,0.3-1.8,1.2-2.1l3.8-1c0.9-0.2,1.8,0.3,2.1,1.2l0.3,1.1
				c0.2,0.9-0.3,1.8-1.2,2.1l-3.8,1C876.8,552.2,875.9,551.7,875.6,550.8z"/>
		</g>
	</g>
	<g id="XMLID_1817_">
		<path id="XMLID_930_" class="st5" d="M917.2,484.8c-6.1,3.5-16.1,3.5-22.3,0c-6.2-3.6-6.2-9.3-0.1-12.9c6.1-3.5,16.1-3.5,22.3,0
			C923.3,475.5,923.4,481.3,917.2,484.8z"/>
		<path id="XMLID_929_" class="st6" d="M900,472.3l-6.8,1.4l-0.9,2.3c-0.2,1.7-0.2,2.6,0.9,3.5c0.9,0.7,2.8,0.2,3.8-0.3l4.3-2.6
			c3.2-1.8,3-3.1,2.6-4.2l0,0C903.5,471.2,902,471.4,900,472.3z"/>
		<path id="XMLID_928_" class="st6" d="M914.3,480.6l-6.5-2.2l-2,1.6c-1,1.3-1.5,2.1-1,3.4c0.4,1.1,2.4,1.6,3.5,1.7l5.1-0.1
			c3.7,0.1,4.1-1.2,4.4-2.3l0,0C918,481.4,916.5,480.9,914.3,480.6z"/>
		<g id="XMLID_1932_">
			<path id="XMLID_927_" class="st11" d="M891.3,396.8c-3.7,5.6-5.3,12.7-6.8,19.2c-0.3,1.4-0.4,2.2-0.1,3.6
				c1.2,4.5,2.6,8.8,3.2,13.5c0.3,2.4,4,2.4,3.8,0c-0.5-4.4-1.3-8.7-2.7-12.9c-0.3-0.8-0.6-1.6-0.9-2.3c0.3,0.7-0.1,1.2,0.1,0.6
				c0.1-0.4,0.2-0.8,0.3-1.2c1.4-6.2,2.9-13.1,6.4-18.5C895.9,396.7,892.6,394.8,891.3,396.8L891.3,396.8z"/>
		</g>
		<path id="XMLID_926_" class="st49" d="M890.2,398.3c-2.5,4.3-4.3,11.7-5.9,17.6c-0.6,1.6-0.2,3.1,0.8,3.1l3.5,0.5
			c0.9-0.1,2.5-1.9,2.9-3.3l4.4-15.1c0.7-2.5,0.2-4.6-1.2-4.9l-0.3,0C894,395.3,892.1,395.3,890.2,398.3z"/>
		<path id="XMLID_925_" class="st6" d="M901.9,425.9l-17.4,10c-0.9,0.5-1.9-0.1-1.9-1.1l0-12.1c0-0.5,0.2-0.9,0.6-1.1l17.4-10
			c0.9-0.5,1.9,0.1,1.9,1.1v12.1C902.5,425.2,902.3,425.6,901.9,425.9z"/>
		<path id="XMLID_924_" class="st15" d="M895.3,422.4c0,1.4-1,3.1-2.2,3.8s-2.2,0.1-2.2-1.3c0-1.4,1-3.1,2.2-3.8
			S895.3,421,895.3,422.4z"/>
		<path id="XMLID_923_" class="st11" d="M892.4,433.7l-1.3,0.6c-1,0.4-2.1,0-2.6-1l0,0c-0.4-1,0-2.1,1-2.6l1.3-0.6
			c1-0.4,2.1,0,2.6,1l0,0C893.9,432.1,893.4,433.2,892.4,433.7z"/>
		<path id="XMLID_921_" class="st7" d="M907.1,384.7l0,0.7c0,0,0.1,2.1-2,1c-2.1-1.1-2-3.8-2-3.8S904.7,382.4,907.1,384.7z"/>
		<path id="XMLID_1915_" class="st8" d="M905.1,386.5c2.8,1.4,2.7-1.1,2.7-1.1l0,0l-0.1-0.9c-3.1-2.6-5-2.5-5-2.5
			S902.4,385,905.1,386.5z M903.2,382.7c0,0,1.6-0.1,3.9,2l0,0.6c0,0,0.1,1.9-2,0.8C903.1,385,903.2,382.7,903.2,382.7z"/>
		<polygon id="XMLID_918_" class="st8" points="908.8,385.9 907.2,385.1 907.1,384.2 908.7,384.9 		"/>
		<path id="XMLID_917_" class="st8" d="M902.8,382.8l-0.3-0.1c-0.2-0.1-0.3-0.3-0.3-0.5l0,0c0-0.2,0.1-0.3,0.3-0.2l0.3,0.1
			c0.2,0.1,0.3,0.3,0.3,0.5l0,0C903.1,382.7,903,382.8,902.8,382.8z"/>
		<path id="XMLID_915_" class="st8" d="M913.4,387.6l-0.3-0.1c-0.2-0.1-0.3-0.3-0.3-0.5l0,0c0-0.2,0.1-0.3,0.3-0.2l0.3,0.1
			c0.2,0.1,0.3,0.3,0.3,0.5l0,0C913.7,387.6,913.6,387.7,913.4,387.6z"/>
		<g id="XMLID_1885_">
			<g>
				<g id="XMLID_64_">
					<g>
						<path class="st9" d="M913.2,386.8c0,0-2.2-2-5-2.1l0.1,0.9l0,0c0,0,0.4,2.6,3.1,3.7C914.1,390.4,913.2,386.8,913.2,386.8z
							 M911.3,388.9c-2-0.8-2.3-2.8-2.3-2.8l-0.1-0.7c2.2,0,3.9,1.6,3.9,1.6S913.3,389.7,911.3,388.9z"/>
					</g>
				</g>
				<g id="XMLID_59_">
					<path id="XMLID_63_" class="st9" d="M909.4,386.6L909.4,386.6c-0.1-0.1-0.1-0.2,0-0.2l0.5-0.5c0,0,0.1,0,0.2,0.1l0,0
						c0.1,0.1,0.1,0.2,0,0.2l-0.5,0.5C909.5,386.7,909.4,386.7,909.4,386.6z"/>
				</g>
			</g>
		</g>
		<path id="XMLID_910_" class="st10" d="M903.5,383.8L903.5,383.8c-0.1-0.1-0.1-0.2,0-0.2l0.5-0.5c0,0,0.1,0,0.2,0.1l0,0
			c0.1,0.1,0.1,0.2,0,0.2l-0.5,0.5C903.7,383.9,903.6,383.9,903.5,383.8z"/>
		<g id="XMLID_1874_">
			<g>
				<g id="XMLID_31_">
					<path id="XMLID_32_" class="st6" d="M902.9,439.3c2.5,7.3,2.7,15.2,2.5,22.9c-0.2,5.7-1.1,11.5-0.9,17.2c0.1,3.8,5.9,3.8,5.9,0
						c-0.1-5.9,0.8-11.8,1-17.7c0.2-8-0.1-16.4-2.7-24C907.3,434.2,901.7,435.7,902.9,439.3L902.9,439.3z"/>
				</g>
			</g>
		</g>
		<g id="XMLID_1851_">
			<g>
				<path id="XMLID_13_" class="st6" d="M891.1,432.7c1.3,4.8,1.9,9.7,2.4,14.6c0.3,2.9,0.6,5.7,0.3,8.6c-0.6,5.8-1.7,11.8-1.7,17.6
					c0,3.8,5.9,3.8,5.9,0c0-6,1.1-12,1.7-17.9c0.3-3-0.1-5.9-0.4-8.9c-0.5-5.2-1.1-10.5-2.5-15.6C895.8,427.5,890.1,429,891.1,432.7
					L891.1,432.7z"/>
			</g>
		</g>
		<path id="XMLID_907_" class="st6" d="M895.9,440.4L895.9,440.4c0.5,0.6-1.8-2.3-1.1-1.9c1.4,0.9,9.6,6.4,11.3,6.4
			c2,0,0.9-1.9,2.4-3.3c1.4-1.3,1.8-3.4,1.9-5.3c0-0.5,0.1-1.1-0.1-1.6c-0.2-0.5-0.7-0.9-1.2-1.3c-3.6-2.7-10.7-9.5-15.8-7.3
			C887.5,428.6,893.3,437.5,895.9,440.4z"/>
		<path id="XMLID_906_" class="st5" d="M891.7,397.2c-1.1,1.4-0.9,2.2-0.9,4.1c0.1,1.8,1.3,3.4,3.1,3.9l18.1,5.1c0,0,1-7-2.5-9.1
			c-1.9-1.1-4.9-2.9-7.2-4.4C898.7,394.8,894.1,394,891.7,397.2z"/>
		<path id="XMLID_905_" class="st11" d="M899.9,396.9l1.5-6.8l4.2,2.8l-1.3,6.2C904.2,400.1,899.6,399.3,899.9,396.9z"/>
		<path id="XMLID_896_" class="st11" d="M902.4,380.2c0,0-4.2-2.9-4.2,4.2c0,4.9,3,9.2,7,11.1c2.5,1.2,5.6-0.3,5.7-2.8
			c0.6-3.6,0.6-6.9-0.6-9.8c0.2-2.9-1.9-1.9-5.4-2.1L902.4,380.2z"/>
		<path id="XMLID_895_" class="st6" d="M900.1,393.9c0,0-4.8-1.8-4.4-8.6c0.5-7.3,7.2-6.7,11-7.1c1.7-0.2,2.8-0.4,4.5,1.1
			c1.5,1.4,0.1,4.5-2.1,4.7c-0.9,0.1-0.5,2.5-0.7,3.3c-0.3,1.4-1.2,2.2-1.6,3.6c-0.3,1.3-2.3,3.4-3.5,3.6
			C901.1,394.7,900.1,393.9,900.1,393.9z"/>
		<path id="XMLID_894_" class="st5" d="M890.7,429.9c-1.2-0.4-0.9-20.2,0.2-31.2l20.4,9.7c-0.1,9.3-1.3,16.7-0.2,28L890.7,429.9z"/>
		<path id="XMLID_893_" class="st5" d="M904.3,438.4c-5-1.8-9.8-3.8-12.6-7.3c-1.4-0.8-1.2-2.2,0.4-3.1h0c1.6-0.9,4-1,5.4-0.2
			l12.6,7.3c1.4,0.8,1.2,2.2-0.4,3.1l0,0C908.1,439.1,905.7,439.2,904.3,438.4z"/>
		<path id="XMLID_892_" class="st5" d="M911.2,408.4l-3.4-1.6c-0.1,9.1-1.2,16.4-0.2,27.5l-0.1,0c0,0.6-0.4,1.3-1.3,1.8l0,0
			c-1.6,0.9-4,1-5.4,0.2c-2.4-0.9-4.8-1.8-6.9-2.9c2.8,2.1,6.4,3.6,10.2,5c1.4,0.8,3.8,0.7,5.4-0.2l0,0c0.9-0.5,1.3-1.2,1.3-1.8
			l0.1,0C910,425,911.1,417.7,911.2,408.4z"/>
		<path id="XMLID_865_" class="st9" d="M913.3,387.8l-6.2,0.6c-0.2,0-0.4-0.1-0.4-0.4l0,0c0-0.2,0.1-0.4,0.4-0.4l6.2-0.6
			c0.2,0,0.4,0.1,0.4,0.4l0,0C913.7,387.6,913.5,387.8,913.3,387.8z"/>
		<path id="XMLID_864_" class="st50" d="M907.1,399.8c-4.7-0.7-7.8,2.2-8.9-4.5l0,0c0.7-0.4,1.6-0.2,2,0.4c0.8,1.2,2.5,1.9,4.4,1.7
			c0.6-0.1,1.1,0.2,1.4,0.7L907.1,399.8z"/>
		<g id="XMLID_1824_">
			<path id="XMLID_863_" class="st11" d="M907.8,405.9c0.3,3.9,0.9,7.5,2.6,11c1.2,2.6,2.4,6.2,4.9,7.9c5.7,3.7,11.8-5.7,14.5-9.3
				c1.5-1.9-1.8-3.8-3.3-1.9c-1.5,2-7.2,10.9-10.1,7c-3.1-4.1-4.5-9.8-4.9-14.8C911.4,403.5,907.6,403.5,907.8,405.9L907.8,405.9z"
				/>
		</g>
		<path id="XMLID_861_" class="st15" d="M905.9,405.9c1.1,9.6,4.2,15.8,8.4,18.9c2.2,1.2,4.3-2.3,3.4-4.4c-4.2-3.7-5.7-9.5-6.1-16.2
			c-0.5-1.3-2.1-2.1-3.6-1.7l0,0C906.5,402.9,905.6,404.4,905.9,405.9z"/>
		<path id="XMLID_60_" class="st11" d="M924.7,416.8l1.1,0.9c0.9,0.7,2.1,0.6,2.8-0.3l2.3-2.8c0.7-0.9,0.6-2.1-0.3-2.8l-1.1-0.9
			c-0.9-0.7-2.1-0.6-2.8,0.3l-2.3,2.8C923.7,414.9,923.8,416.2,924.7,416.8z"/>
		<path id="XMLID_860_" class="st6" d="M904.5,391.5c-0.2,0.2-0.7,5.1,3.4,4.3c4.1-0.8,3.3-4.9,3.3-4.9s-3.3,0.9-4.2-3.2
			C906.1,383.5,904.5,391.5,904.5,391.5z"/>
		<path id="XMLID_859_" class="st11" d="M908,389.4c0.1,1.2-0.5,2.2-1.3,2.2c-0.1,0-0.2,0-0.3,0c-0.7-0.1-1.3-0.9-1.4-2
			c-0.1-1.2,0.5-2.2,1.3-2.2C907.2,387.4,907.9,388.3,908,389.4z"/>
	</g>
	<g id="XMLID_1805_" class="st51">
		<path id="XMLID_1809_" class="st47" d="M771.3,430.2c0.8-0.8,1-2.1,0.7-3.4c-1.3-4.7-1.4-9.9-1.4-14.6c0-1.7,0-1.9,0.2-3.5
			c-0.1,1,0.1-0.1,0.2-0.4c0.1-0.2,0.2-0.5,0.3-0.7c0.2-0.6,0.5-1.1,0.8-1.6c0,0,0-0.1,0-0.1c0,0,0,0,0.1-0.1
			c0.2-0.2,0.4-0.4,0.5-0.6c0,0,0.1-0.1,0.1-0.1c0.2-0.1,0.3-0.2,0.5-0.3c0.1-0.1,1.2-1,1.3-1.1l-6.2-3.7c-1,1.1-3.2,3.6-3.8,5
			c-1.1,2.8-1,5.7-0.9,8.8c0.1,4.9,0.5,9.9,1.8,14.9c0.1,0.3,0.2,0.6,0.4,0.9l-3.4,5c-1,2-1.3,3.4,0,4.1c1.8,0.2,2.5-0.2,4.6-2.1
			l3.6-4.4C771.2,431.3,771.7,431.1,771.3,430.2z M772.9,405C773,404.9,773.1,404.9,772.9,405L772.9,405z"/>
		<path id="XMLID_854_" class="st47" d="M781.2,405.9c-0.9,1-3.2,4.2-3.7,5.5c-1,2.5-1.3,5.1-1.9,7.8c-1.1,4.7-2.1,9.3-2.9,14
			c-0.2,1.4,0.4,2.5,1.4,3.2l-2.4,6.1c-0.5,2.1-0.6,3.7,0.8,4.1c1.7-0.1,2.4-0.6,4-2.9l2.6-5c0.3-1.1,0.8-1.3,0-2.4
			c0.3-0.3,0.5-0.8,0.5-1.3c0.7-4.6,1.7-9.1,2.8-13.6c0.3-1.1,0.4-2.3,0.6-3.4c0.1-0.6,0.2-1.2,0.4-1.8c0.1-0.3,0.1-0.5,0.2-0.8
			c0-0.1,0-0.1,0-0.2c0,0,0-0.1,0.1-0.2c0.6-1.4,3.4-4.1,4.5-5L781.2,405.9z"/>
	</g>
	<g id="XMLID_444_">
		<path id="XMLID_853_" class="st52" d="M758,430.8l3.9-5.8l3-1.5c2.8,3.9,2.1,3.5,1.3,4.9l-3.6,4.4c-2.1,1.9-2.8,2.3-4.6,2.1l0,0
			C756.6,434.2,757,432.8,758,430.8z"/>
		<path id="XMLID_852_" class="st52" d="M767.1,438.7l2.6-6.5l2.6-2c3.5,3.4,2.7,3.1,2.2,4.7l-2.6,5c-1.6,2.3-2.2,2.8-4,2.9l0,0
			C766.6,442.4,766.6,440.9,767.1,438.7z"/>
		<g id="XMLID_897_">
			<g id="XMLID_1797_">
				<path id="XMLID_851_" class="st11" d="M782.1,368.2c-2.8,3.5-4.8,6.6-6,11c-1.1,4.2-1.6,8.4-2.3,12.7c-0.4,2.7-4.8,1.5-4.4-1.1
					c0.8-4.9,1.4-9.8,2.8-14.5c1.3-4.3,3.6-7.6,6.4-11C780.3,363.1,783.7,366.1,782.1,368.2L782.1,368.2z"/>
			</g>
			<path id="XMLID_850_" class="st27" d="M776.2,363.3l-4.6,10c-0.6,3.2,7.2,5.4,7.9,2.8l3.5-10.1c0.5-1.6-0.5-3.5-2.3-4.2l0,0
				C778.9,361,776.9,361.7,776.2,363.3z"/>
			<g id="XMLID_1788_">
				<g>
					<g id="XMLID_22_">
						<path id="XMLID_23_" class="st52" d="M783.7,388.3c-4.3,1.6-8.6,3.1-13,4.5c-2.3,0.8-4.8,1.5-6.8,3c-1.9,1.4-3.1,3.3-3.9,5.5
							c-1.1,2.8-1,5.7-0.9,8.8c0.1,4.9,0.5,9.9,1.8,14.9c0.5,1.8,2.9,2.7,4.5,2.3c1.9-0.5,2.5-2.3,2-4.1c-1.3-4.7-1.4-9.9-1.4-14.6
							c0-1.7,0-1.9,0.2-3.5c-0.1,1,0.1-0.1,0.2-0.4c0.1-0.2,0.2-0.5,0.3-0.7c0.2-0.6,0.5-1.1,0.8-1.6c0.3-0.5-0.5,0.5,0.1-0.2
							c0.2-0.2,0.4-0.4,0.5-0.6c0.1-0.2,0.7-0.5-0.1,0c0.2-0.2,0.4-0.3,0.7-0.5c0.5-0.3,1.1-0.6,1.6-0.8c-0.7,0.3,0,0,0.2-0.1
							c0.4-0.1,0.7-0.3,1.1-0.4c4.9-1.7,9.8-3.2,14.6-5.1c1.7-0.6,2.7-2.2,2-4.1C787.6,389,785.4,387.7,783.7,388.3L783.7,388.3z"/>
					</g>
				</g>
			</g>
			<g id="XMLID_1764_">
				<g>
					<g id="XMLID_20_">
						<path id="XMLID_21_" class="st52" d="M789.4,394.3c-3.8,2.3-7.7,4.5-11.3,7.2c-2.2,1.7-4.2,3.6-5.3,6.2
							c-1,2.5-1.3,5.1-1.9,7.8c-1.1,4.7-2.1,9.3-2.9,14c-0.6,4.1,6.3,5.9,6.9,1.8c0.7-4.6,1.7-9.1,2.8-13.6c0.3-1.1,0.4-2.3,0.6-3.4
							c0.1-0.6,0.2-1.2,0.4-1.8c0.1-0.3,0.1-0.5,0.2-0.8c0.2-0.6-0.2,0.4,0.1-0.3c0.8-1.9,1.8-3,3.4-4.2c3.5-2.5,7.3-4.7,11-7
							C797.1,397.9,793,392.1,789.4,394.3L789.4,394.3z"/>
					</g>
				</g>
			</g>
			<path id="XMLID_847_" class="st53" d="M784.7,401.7l-8.4-4.4c-2-1-2.9-3.4-2-5.2h0c0.9-1.8,3.3-2.4,5.3-1.4l8.4,4.4
				c2,1,2.9,3.4,2,5.2l0,0C789,402.2,786.7,402.8,784.7,401.7z"/>
			<path id="XMLID_846_" class="st27" d="M774.6,388.7c0.9,0.1,3.3-7.6,1.7-23.5l21.7,10.6c-1.2,10.3,0.8,10.5-2.7,23L774.6,388.7z"
				/>
			<path id="XMLID_845_" class="st27" d="M786.8,394.4c0.5,0.8,7.6-2.7,7.1-15.7c-0.1-1.7,0.2-1.8,1.8-1.2l2.2-1.2
				c-0.4,8.4,1,10.9-0.6,18.8c-0.5,2.7-3.8,3.8-6.3,2.1L786.8,394.4z"/>
			<path id="XMLID_844_" class="st27" d="M790.2,400.9c-6.1-2.3-12-4.7-15.6-8.7c-1.7-1-1.6-2.5,0.2-3.5l0,0c1.8-1,4.4-2.4,6.1-1.4
				l14.9,9.1c1.7,1,0.8,2-1.1,3l-0.1-1C792.8,399.2,791.9,401.8,790.2,400.9z"/>
			<path id="XMLID_843_" class="st27" d="M795.9,396.8l-4.7-5.9c-8,11.7-14,2.8-16.3,1.7c3.7,3.4,8.7,5.7,14.3,7.8
				c1.7,1,4.6,0.9,6.4-0.1l0,0C797.6,399.4,797.7,397.8,795.9,396.8z"/>
			<path id="XMLID_842_" class="st27" d="M777.5,361.7c-1.3,1.4-1.2,2.4-1.2,4.5c0,2.1,1.4,4,3.5,4.9l21.3,8.5c0,0,1.5-7.6-2.6-10.5
				c-2.2-1.6-5.7-4.1-8.4-6C786,360.1,780.5,358.5,777.5,361.7z"/>
			<path id="XMLID_792_" class="st11" d="M786.6,365.2l-2.7-8.8l5.8,2.1l2.2,7.2C792.3,366.8,788.4,369.7,786.6,365.2z"/>
			<path id="XMLID_756_" class="st46" d="M786,363.1c0.1,0.2,2.7-0.6,2.6-0.9c0,0-1,1.7-2.3,2.2L786,363.1z"/>
			<g id="XMLID_1743_">
				<path id="XMLID_753_" class="st11" d="M800.1,373.5c0.8,3.8,1.9,7.6,2.7,11.5c0.6,3.3,1.7,7.7,0.2,10.8
					c-2.6,5.1-11.5,3-16.4,4.4c-2.7,0.8-4.3-3.3-1.6-4.1c2.6-0.8,5.4-1,8.2-1.1c2.3-0.1,5.4,0.3,6-2.2c0.7-2.8-0.5-6.8-1.2-9.6
					c-0.7-3.2-1.6-6.4-2.3-9.6C795,370.8,799.5,370.8,800.1,373.5L800.1,373.5z"/>
			</g>
			<path id="XMLID_743_" class="st11" d="M772.3,389L772.3,389c1.2,0.6,1.8,2.1,1.2,3.2l-1.9,3.8c-0.5,1.1-2,1.5-3.2,0.9l0,0
				c-1.2-0.6-1.8-2.1-1.2-3.2l1.9-3.8C769.6,388.7,771,388.3,772.3,389z"/>
			<path id="XMLID_741_" class="st27" d="M793.9,372.9l1.9,11.4c1.3,3.2,8.7,1.3,7.9-1.3l-2.8-10.9c-0.5-1.7-2.3-2.9-4.1-2.7l0,0
				C794.9,369.5,793.6,371.1,793.9,372.9z"/>
			<g id="XMLID_1721_">
				<path id="XMLID_739_" class="st47" d="M788,399.3l-1.9-0.5l-0.6,0.2l-0.2-0.3l-16.9-8.8c-0.2-0.1-0.5-0.1-0.7,0l-6.5,3.8l0-0.1
					l-1.2,0.5l0.1,0.5h0c0,0,0.1,0.1,0.1,0.1l17.6,9.2c0,0,0,0,0,0.1c0.4,1.3,1,2.6,2.1,1.9l7.2-4.2c0.6-0.3,0.9-0.9,0.9-1.5
					L788,399.3z"/>
				<path id="XMLID_720_" class="st48" d="M778.5,405.3l-20.3-10.5c-0.2-0.1-0.2-0.3,0-0.5l8.6-5c0.2-0.1,0.6-0.2,0.9,0l20.3,10.5
					c0.2,0.1,0.2,0.3,0,0.5l-8.6,5C779.1,405.4,778.8,405.4,778.5,405.3z"/>
				<path id="XMLID_709_" class="st47" d="M779.1,398.5l-4.9-2.6c-0.1,0-0.1-0.1,0-0.1l2.1-1.2c0.1,0,0.2,0,0.2,0l4.9,2.6
					c0.1,0,0.1,0.1,0,0.1l-2.1,1.2C779.2,398.5,779.1,398.5,779.1,398.5z"/>
				<path id="XMLID_708_" class="st15" d="M776.7,393.4c-0.1-0.5-0.6-1-1-1.3l-20.1-10.3c-0.2-0.1-0.3-0.1-0.4-0.1l0,0l0,0
					c0,0-0.1,0-0.1,0.1l-0.6,0.6l0.6,0l3,11.1c0.1,0.5,0.6,1,1,1.3l19,9.7l0.6,0.6l0.1,0.2c0.4,0.1,1.2-0.5,1.2-0.5L776.7,393.4z"/>
				<path id="XMLID_701_" class="st14" d="M778.6,405.8l-20.1-10.3c-0.4-0.2-0.9-0.8-1-1.3l-3-11.3c-0.1-0.5,0.1-0.7,0.5-0.5
					l20.1,10.3c0.4,0.2,0.9,0.8,1,1.3l3,11.3C779.3,405.8,779.1,406,778.6,405.8z"/>
				<path id="XMLID_700_" class="st15" d="M767.4,394.9c0.2,0.6-0.4,0.7-1.2,0.3c-0.8-0.4-1.7-1.3-1.8-1.9c-0.2-0.6,0.4-0.7,1.2-0.3
					C766.4,393.5,767.2,394.3,767.4,394.9z"/>
			</g>
			<path id="XMLID_699_" class="st11" d="M779.3,399.9L779.3,399.9c-0.6-1.3,0-2.7,1.3-3.1l4.5-1.5c1.3-0.4,2.8,0.3,3.4,1.6l0,0
				c0.6,1.3,0,2.7-1.3,3.1l-4.5,1.5C781.4,401.9,779.9,401.2,779.3,399.9z"/>
			<g id="XMLID_698_">
				<g>
					<path class="st10" d="M784.5,363.5c-0.9,2.6,2.3,4.6,4.6,4.4c1.2-0.1,2.8-0.4,3.5-1.4c0.6-1,0.5-2.7-0.1-3.7
						c-0.7-1.1-2.4-0.1-1.7,1c2,3.1-5.1,2.6-4.3,0.2C786.9,362.8,784.9,362.3,784.5,363.5L784.5,363.5z"/>
				</g>
			</g>
			<g id="XMLID_1688_">
				<path id="XMLID_449_" class="st11" d="M786.4,363.2l-1.6,0.2c-2.5,0.3-5.1-1.5-5.6-4l-1.8-8.1c-0.5-2.5,1.1-4.7,3.6-4.9l1.6-0.2
					c2.5-0.3,5.1,1.5,5.6,4l1.8,8.1C790.6,360.7,788.9,362.9,786.4,363.2z"/>
				<path id="XMLID_431_" class="st6" d="M784.4,352.5c-1.6,0.9-3,0.6-5.1,0c-2.2-0.6-3.2-2.5-1.9-4.1c0.7-0.9,1.2-1.8,2.9-2.6
					c5-2.5,11.1-0.5,12.4,5.4c0,0,1.6,6.5-1.4,8.9c-0.5,0.4-1.4,0.2-1.8-0.5l0,0c0,0,1.6-1.9-0.8-3.3c-0.7-0.4-1.6-1.5-1.7-2.5
					C786.9,352.9,785.3,352,784.4,352.5z"/>
				<path id="XMLID_425_" class="st11" d="M790.7,358.4c-0.6,0.7-1.4,0.6-2-0.1c-0.5-0.8-0.5-2,0-2.7c0.6-0.7,1.4-0.6,2,0.1
					C791.3,356.5,791.3,357.7,790.7,358.4z"/>
			</g>
			<path id="XMLID_424_" class="st6" d="M779.2,352.5c0,0.1,5.6,1.3,7.6,4.6c0.4,0.6,1.4,0.3,1.6-0.3c0.4-1.1,0.5-2.8-0.7-4.3
				C785.5,349.7,779.4,351.4,779.2,352.5z"/>
		</g>
	</g>
	<path id="XMLID_423_" class="st14" d="M604.9,323.2l-5.3,3c-0.7,0.4-1.3,0-1.3-1l0,0c0-1,0.6-2.1,1.3-2.5l5.3-3
		c0.7-0.4,1.3,0,1.3,1l0,0C606.2,321.7,605.6,322.8,604.9,323.2z"/>
	<path id="XMLID_415_" class="st14" d="M604.9,303.6l-5.3,3c-0.7,0.4-1.3,0-1.3-1l0,0c0-1,0.6-2.1,1.3-2.5l5.3-3
		c0.7-0.4,1.3,0,1.3,1l0,0C606.2,302.1,605.6,303.2,604.9,303.6z"/>
	<path id="XMLID_409_" class="st14" d="M604.9,342.3l-5.3,3c-0.7,0.4-1.3,0-1.3-1l0,0c0-1,0.6-2.1,1.3-2.5l5.3-3
		c0.7-0.4,1.3,0,1.3,1l0,0C606.2,340.8,605.6,341.9,604.9,342.3z"/>
	<path id="XMLID_70_" class="st14" d="M604.9,361.4l-5.3,3c-0.7,0.4-1.3,0-1.3-1l0,0c0-1,0.6-2.1,1.3-2.5l5.3-3c0.7-0.4,1.3,0,1.3,1
		l0,0C606.2,359.9,605.6,361,604.9,361.4z"/>
	<path id="XMLID_69_" class="st14" d="M604.9,382.6l-5.3,3c-0.7,0.4-1.3,0-1.3-1l0,0c0-1,0.6-2.1,1.3-2.5l5.3-3c0.7-0.4,1.3,0,1.3,1
		l0,0C606.2,381.1,605.6,382.2,604.9,382.6z"/>
</g>
</svg>
