<?xml version="1.0" encoding="utf-8"?>
<!-- Generator: Adobe Illustrator 23.0.2, SVG Export Plug-In . SVG Version: 6.00 Build 0)  -->
<svg version="1.1" id="Layer_1" xmlns="http://www.w3.org/2000/svg" xmlns:xlink="http://www.w3.org/1999/xlink" x="0px" y="0px"
	 viewBox="0 0 1430 849" style="enable-background:new 0 0 1430 849;" xml:space="preserve">
<style type="text/css">
	.st0{fill:url(#XMLID_2_);}
	.st1{opacity:0.2;fill:#FFFFFF;}
	.st2{opacity:0.2;clip-path:url(#XMLID_3_);fill:#AFD9F4;}
</style>
<linearGradient id="XMLID_2_" gradientUnits="userSpaceOnUse" x1="0" y1="424.5" x2="1430" y2="424.5">
	<stop  offset="0" style="stop-color:#00B6E3"/>
	<stop  offset="1" style="stop-color:#197ABF"/>
</linearGradient>
<rect id="XMLID_14_" y="-0.5" class="st0" width="1430" height="850"/>
<path id="XMLID_13_" class="st1" d="M310.88,21.95c-0.49-7.52-0.23-15.03-0.69-22.45h43.71c4.81,23.52,7.34,47.87,7.34,72.82
	c0,199.51-161.74,361.25-361.25,361.25l0-53.85C185.76,370.9,324,224.77,310.88,21.95z"/>
<ellipse id="XMLID_12_" transform="matrix(0.7071 -0.7071 0.7071 0.7071 -59.5792 90.093)" class="st1" cx="78.96" cy="116.96" rx="78.96" ry="78.96"/>
<g id="XMLID_8_">
	<defs>
		<rect id="XMLID_9_" x="1114.94" y="618.5" width="315.06" height="231"/>
	</defs>
	<clipPath id="XMLID_3_">
		<use xlink:href="#XMLID_9_"  style="overflow:visible;"/>
	</clipPath>
	
		<ellipse id="XMLID_10_" transform="matrix(0.7071 -0.7071 0.7071 0.7071 -156.8898 1173.163)" class="st2" cx="1337.69" cy="775.96" rx="128.08" ry="128.08"/>
</g>
</svg>
