<?xml version="1.0" encoding="utf-8"?>
<!-- Generator: Adobe Illustrator 23.0.2, SVG Export Plug-In . SVG Version: 6.00 Build 0)  -->
<svg version="1.1" id="Layer_1" xmlns="http://www.w3.org/2000/svg" xmlns:xlink="http://www.w3.org/1999/xlink" x="0px" y="0px"
	 viewBox="0 0 1430 849" style="enable-background:new 0 0 1430 849;" xml:space="preserve">
<style type="text/css">
	.st0{fill:#00B6E3;}
	.st1{opacity:0.1;fill:#00B6E3;}
</style>
<path id="XMLID_65_" class="st0" d="M1430,569.94c0,1.74-4.69,5.91-5.71,7.12c-5.59,6.64-11.53,13-17.65,19.15
	c-22.1,22.23-46.77,41.91-72.85,59.24c-39.03,25.94-81.51,46.56-125.78,61.88c-58.62,20.29-120.24,31.2-182.14,34.2
	c-39.43,1.91-79.15-0.16-118.7,0.67c-78.65,1.65-157.77,9.85-233.91,30.26c-53.37,14.3-108.92,32.54-154.7,64.24
	c-1.54,1.06-3.08,2.12-4.55,3.28h916C1430,850,1430,570,1430,569.94z"/>
<path id="XMLID_4_" class="st1" d="M492.4,0C492.4,0,27.18,113.61,0,236.6V0H492.4z"/>
</svg>
