<?xml version="1.0" encoding="utf-8"?>
<!-- Generator: Adobe Illustrator 21.1.0, SVG Export Plug-In . SVG Version: 6.00 Build 0)  -->
<svg version="1.1" id="Layer_1" xmlns="http://www.w3.org/2000/svg" xmlns:xlink="http://www.w3.org/1999/xlink" x="0px" y="0px"
	 viewBox="0 0 1600 900" style="enable-background:new 0 0 1600 900;" xml:space="preserve">
<style type="text/css">
	.st0{fill:#FFFFFF;stroke:#00D2FF;stroke-miterlimit:10;}
	.st1{fill:none;}
	.st2{fill:#3E97D8;}
	.st3{font-family:'SourceSansPro-Bold';}
	.st4{font-size:35px;}
</style>
<g id="XMLID_1192_">
	<path id="XMLID_1193_" class="st0" d="M894.7,330.2h-142c-7.9,0-14.2,6.4-14.2,14.2v104.2c0,7.8,6.4,14.2,14.2,14.2h142
		c7.9,0,14.2-6.4,14.2-14.2V344.5C908.9,336.6,902.6,330.2,894.7,330.2L894.7,330.2z M754.5,344.5h138.5c1,0,1.8,0.8,1.8,1.8v12.4
		h-142v-12.4C752.7,345.3,753.5,344.5,754.5,344.5z M892.9,448.6H754.5c-1,0-1.8-0.8-1.8-1.8v-50.3h142v50.3
		C894.7,447.8,893.9,448.6,892.9,448.6z M795.3,419v11.8c0,2-1.6,3.6-3.6,3.6h-21.3c-2,0-3.6-1.6-3.6-3.6V419c0-2,1.6-3.6,3.6-3.6
		h21.3C793.7,415.5,795.3,417.1,795.3,419z M852.1,419v11.8c0,2-1.6,3.6-3.6,3.6h-40.3c-2,0-3.6-1.6-3.6-3.6V419
		c0-2,1.6-3.6,3.6-3.6h40.3C850.5,415.5,852.1,417.1,852.1,419z"/>
</g>
<circle id="XMLID_1185_" class="st0" cx="821.5" cy="535.7" r="34.1"/>
<g id="XMLID_1183_">
	<rect id="XMLID_11_" x="808" y="522.7" class="st1" width="27" height="26"/>
	<text transform="matrix(1 0 0 1 812.2515 547.1844)" class="st2 st3 st4">2</text>
</g>
</svg>
