<?xml version="1.0" encoding="utf-8"?>
<!-- Generator: Adobe Illustrator 21.1.0, SVG Export Plug-In . SVG Version: 6.00 Build 0)  -->
<svg version="1.1" id="Layer_1" xmlns="http://www.w3.org/2000/svg" xmlns:xlink="http://www.w3.org/1999/xlink" x="0px" y="0px"
	 viewBox="0 0 1600 900" style="enable-background:new 0 0 1600 900;" xml:space="preserve">
<style type="text/css">
	.st0{fill:#FFFFFF;stroke:#00D2FF;stroke-miterlimit:10;}
	.st1{fill:none;}
	.st2{fill:#3E97D8;}
	.st3{font-family:'SourceSansPro-Bold';}
	.st4{font-size:35px;}
</style>
<g id="XMLID_1199_">
	<path id="XMLID_1201_" class="st0" d="M862.6,407.8l9.5-9.5c1.5-1.5,4.1-0.4,4.1,1.7v43.3c0,7.9-6.4,14.3-14.3,14.3H757.1
		c-7.9,0-14.3-6.4-14.3-14.3V338.4c0-7.9,6.4-14.3,14.3-14.3h81.4c2.1,0,3.2,2.6,1.7,4.1l-9.5,9.5c-0.4,0.4-1,0.7-1.7,0.7h-71.9
		v104.8h104.8v-33.8C861.9,408.8,862.1,408.2,862.6,407.8z M909.2,347.7L831,425.9l-26.9,3c-7.8,0.9-14.4-5.7-13.6-13.6l3-26.9
		l78.2-78.2c6.8-6.8,17.8-6.8,24.6,0l12.9,12.9C916,329.9,916,340.9,909.2,347.7L909.2,347.7z M879.8,356.9l-17.3-17.3l-55.3,55.3
		l-2.2,19.4l19.4-2.2L879.8,356.9z M899.1,333.2l-12.9-12.9c-1.2-1.2-3.2-1.2-4.4,0l-9.2,9.2l17.3,17.3l9.2-9.2
		C900.3,336.4,900.3,334.4,899.1,333.2z"/>
</g>
<circle id="XMLID_1188_" class="st0" cx="808.7" cy="530.3" r="34.1"/>
<g id="XMLID_1186_">
	<rect id="XMLID_11_" x="795.2" y="517.3" class="st1" width="27" height="26"/>
	<text transform="matrix(1 0 0 1 799.5046 541.8391)" class="st2 st3 st4">1</text>
</g>
</svg>
