<?xml version="1.0" encoding="utf-8"?>
<!-- Generator: Adobe Illustrator 21.1.0, SVG Export Plug-In . SVG Version: 6.00 Build 0)  -->
<svg version="1.1" id="Layer_1" xmlns="http://www.w3.org/2000/svg" xmlns:xlink="http://www.w3.org/1999/xlink" x="0px" y="0px"
	 viewBox="0 0 1600 900" style="enable-background:new 0 0 1600 900;" xml:space="preserve">
<style type="text/css">
	.st0{fill:#FFFFFF;stroke:#00D2FF;stroke-miterlimit:10;}
	.st1{fill:none;}
	.st2{fill:#3E97D8;}
	.st3{font-family:'SourceSansPro-Bold';}
	.st4{font-size:35px;}
</style>
<g>
	<path class="st0" d="M797.1,332.3c-0.5,0.7-0.9,1.3-1.3,1.8c-5.8,5.8-9.5,12.8-10.5,21c-0.2,1.8-1.2,2.9-2.9,3.4
		c-3.7,1-7.4,2.3-10.9,4c-0.8,0.4-1.6,0.8-2.3,1.4c-1.5,1.2-2,2.7-1.4,4.5c0.3,0.8,0.6,1.5,1,2.2c4,8,9.6,14.8,16.2,20.8
		c3,2.7,6,5.4,8.9,8.1c1.5,1.4,3.4,2.1,5.4,2.1c11.8,0.1,23.6,0.1,35.4,0.1c2.9,0,5.9-0.1,8.8,0c2.1,0,3.9-0.6,5.6-1.9
		c7.9-6.4,15.3-13.2,21.1-21.6c1.6-2.2,2.9-4.7,4.3-7.1c0.3-0.6,0.5-1.3,0.7-2c0.7-2.7,0-4.7-2.3-6.3c-2-1.4-4.2-2-6.5-2.7
		c-1-0.3-2.1-0.6-3.1-1c-3.6-1.2-5.8-3.8-6.3-7.6c-0.8-5.8-3.5-10.7-7-15.2c-0.9-1.2-1.9-2.3-2.9-3.5c-0.1-0.2-0.3-0.4-0.5-0.6
		c7.6,0.6,15,1.8,22.2,4.1c5,1.6,10,3.2,14.7,5.7c6.3,3.3,11.1,8,13.7,14.7c2.4,6.2,2.2,12.5,0.4,18.8c-2.3,7.9-6.5,14.9-11.8,21.2
		c-4.6,5.5-9.8,10.3-15,15.1c-2.2,2-4.3,3.9-6.5,5.9c-1.8,1.6-2.7,3.5-2.7,6c0.1,15.3,0,30.7,0,46c0,0.2,0,0.4,0,0.7
		c-26.6,0-53.2,0-79.9,0c0-0.3,0-0.7,0-1c0-14.9,0-29.7,0-44.5c0-1-0.1-2.2-0.3-3.2c-0.4-2-1.7-3.3-3.2-4.6
		c-3.7-3.1-7.4-6.2-10.9-9.5c-7.1-6.6-13.1-14.1-17.6-22.7c-2.3-4.4-4.1-8.9-5-13.8c-1.8-10,1.4-18.4,9-25.1
		c5.1-4.5,11.2-7.2,17.7-9.3c5.7-1.8,11.7-2.9,17.6-3.6c2.3-0.3,4.7-0.5,7-0.8C796.2,332.3,796.6,332.3,797.1,332.3z"/>
	<path class="st0" d="M821.5,328.2c17.6,0,31.8,14.3,31.8,31.9c0,17.6-14.3,31.8-31.9,31.8c-17.6,0-31.8-14.3-31.8-31.9
		C789.7,342.5,804,328.2,821.5,328.2z M801.7,372.9c0.2,0.6,0.4,1.2,0.7,1.7c0.8,1.7,2.1,3.1,3.6,4.2c9.5,7.5,21.1,7,30.3,0.7
		c1.8-1.2,3.3-2.8,4.3-4.7c0.3-0.6,0.5-1.2,0.8-1.9C828,372.9,814.9,372.9,801.7,372.9z"/>
</g>
<circle id="XMLID_4_" class="st0" cx="821.5" cy="541.4" r="34.1"/>
<g id="XMLID_1_">
	<rect id="XMLID_13_" x="808" y="528.4" class="st1" width="27" height="26"/>
	<text transform="matrix(1 0 0 1 812.2517 552.9698)" class="st2 st3 st4">3</text>
</g>
</svg>
