<?xml version="1.0" encoding="utf-8"?>
<!-- Generator: Adobe Illustrator 21.1.0, SVG Export Plug-In . SVG Version: 6.00 Build 0)  -->
<svg version="1.1" id="Layer_1" xmlns="http://www.w3.org/2000/svg" xmlns:xlink="http://www.w3.org/1999/xlink" x="0px" y="0px"
	 viewBox="0 0 500 500" style="enable-background:new 0 0 500 500;" xml:space="preserve">
<style type="text/css">
	.st0{fill:#EEEEEE;}
	.st1{fill:#003B7D;}
	.st2{fill:#006CAD;}
	.st3{fill:#004E8B;}
	.st4{fill:#CAECFF;}
	.st5{fill:#FFFFFF;}
	.st6{fill:#1E93D0;}
	.st7{fill:#FF289F;}
	.st8{fill:#E2E2E2;}
	.st9{fill:#E6E6E6;}
	.st10{fill:url(#XMLID_2_);}
	.st11{fill:url(#XMLID_3_);}
	.st12{fill:url(#XMLID_4_);}
	.st13{opacity:0.65;}
	.st14{opacity:0.7;}
</style>
<g id="XMLID_1160_">
	<g id="XMLID_962_">
		<g id="XMLID_991_">
			<path id="XMLID_1111_" class="st0" d="M242.9,441L20.5,312.6c-6.3-3.6-5.5-10,1.8-14.2L173.7,211c7.3-4.2,18.3-4.7,24.6-1
				l222.5,128.4c6.3,3.6,5.5,10-1.8,14.2L267.5,440C260.2,444.2,249.2,444.7,242.9,441z"/>
			<path id="XMLID_1110_" class="st1" d="M442.9,136.3L246.8,23.1c-2.3-1.3-4.6-1.5-6.6-0.8l0,0l-0.4,0.1c0,0-0.1,0-0.1,0l-7.1,2.7
				l6.4,3.1c0,0.1-0.1,0.2-0.1,0.3L207,174c-1.6,7.3,1.6,15.8,7.2,19l191.4,110.5l-0.7,8.1l7.7-3c2.6-1.2,4.7-4,5.5-7.9l31.9-145.4
				C451.7,148,448.5,139.5,442.9,136.3z"/>
			<path id="XMLID_1109_" class="st2" d="M442.9,136.3L246.8,23.1c-2.3-1.3-4.6-1.5-6.6-0.8l0,0l-0.4,0.1c0,0-0.1,0-0.1,0l-7.1,2.7
				l6.4,3.1c0,0.1-0.1,0.2-0.1,0.3l-21.1,95.8l96,74.8l135.3-55.1C447.8,140.8,445.7,137.9,442.9,136.3z"/>
			<path id="XMLID_1108_" class="st3" d="M435.6,158.7l14.9-6.4c0.3-5.8-2.1-11.8-6-14.9l-23.6,9.9L435.6,158.7z"/>
			<path id="XMLID_1107_" class="st4" d="M398,310.8L201.9,197.6c-5.5-3.2-8.7-11.7-7.2-19l31.9-145.4c1.6-7.3,7.4-10.6,12.9-7.4
				l196.1,113.2c5.5,3.2,8.7,11.7,7.2,19L411,303.4C409.4,310.7,403.6,314,398,310.8z"/>
			<path id="XMLID_1106_" class="st5" d="M437.7,138.4L241.5,25.1c-2.7-1.6-5.4-1.6-7.7-0.3c1.8-0.4,3.9-0.1,5.8,1l196.1,113.2
				c5.5,3.2,8.7,11.7,7.2,19L411,303.4c-0.8,3.8-2.8,6.4-5.2,7.7c3.3-0.7,6.1-3.7,7.1-8.4l31.9-145.4
				C446.4,150.1,443.2,141.6,437.7,138.4z"/>
			<path id="XMLID_1105_" class="st5" d="M393.8,300L209.3,193.6c-5.1-2.9-8-10.7-6.5-17.4L232,43.1c1.5-6.7,6.8-9.7,11.8-6.8
				l184.4,106.4c5.1,2.9,8,10.7,6.5,17.4l-29.2,133.1C404.2,299.9,398.9,302.9,393.8,300z"/>
			<path id="XMLID_1104_" class="st1" d="M393.8,300L209.3,193.6c-5.1-2.9-8-10.7-6.5-17.4L232,43.1c1.5-6.7,6.8-9.7,11.8-6.8
				l184.4,106.4c5.1,2.9,8,10.7,6.5,17.4l-29.2,133.1C404.2,299.9,398.9,302.9,393.8,300z"/>
			<path id="XMLID_1103_" class="st6" d="M395.4,299.3L211,192.9c-5.1-2.9-8-10.7-6.5-17.4l29.2-133.1c0.7-3.4,2.5-5.8,4.6-7
				c-2.9,0.8-5.3,3.5-6.3,7.7l-29.2,133.1c-1.5,6.7,1.5,14.4,6.5,17.4L393.8,300c2.5,1.4,5.1,1.4,7.2,0.3
				C399.2,300.7,397.3,300.4,395.4,299.3z"/>
			<path id="XMLID_1102_" class="st1" d="M400.8,315.7l-26.8-3.5l-173.1-99.9c-5.5-3.2-15.2-2.8-21.6,0.9L56.6,284l-16.2-2.1v9.2
				l0,0c-0.1,2.1,1.1,4.2,3.7,5.7l196.1,113.2c5.5,3.2,15.2,2.8,21.6-0.9L395.5,332c3.6-2.1,5.4-4.8,5.3-7.3l0,0V315.7z"/>
			<path id="XMLID_1101_" class="st2" d="M270.7,252.6l-12.3-7.1H123.3L56.6,284l-16.2-2.1v9.2l0,0c-0.1,2.1,1.1,4.2,3.7,5.7
				l196.1,113.2c2.9,1.7,7,2.4,11.2,2.1L270.7,252.6z"/>
			<path id="XMLID_1100_" class="st6" d="M47.6,282.8l-7.2-0.9v9.2l0,0c-0.1,2.1,1.1,4.2,3.7,5.7l3.5,2V282.8z"/>
			<path id="XMLID_1099_" class="st3" d="M242.2,410.9c5.3,2,12.8,1.6,18.4-1.1v-20.5h-18.4V410.9z"/>
			<path id="XMLID_1098_" class="st4" d="M240.3,400.7L44.2,287.5c-5.5-3.2-4.9-8.8,1.6-12.5l133.5-77.1c6.4-3.7,16.1-4.1,21.6-0.9
				L397,310.3c5.5,3.2,4.9,8.8-1.6,12.5l-133.5,77.1C255.5,403.5,245.8,404,240.3,400.7z"/>
			<path id="XMLID_1097_" class="st5" d="M395.5,319.4l-133.5,77.1c-6.4,3.7-16.1,4.1-21.6,0.9L44.2,284.2c-1.8-1-3-2.4-3.4-3.8
				c-0.9,2.6,0.2,5.3,3.4,7.1l196.1,113.2c5.5,3.2,15.2,2.8,21.6-0.9l133.5-77.1c4.3-2.5,6-5.8,5-8.7
				C399.8,316,398.2,317.9,395.5,319.4z"/>
			<g id="XMLID_1017_">
				<path id="XMLID_1096_" class="st6" d="M127.6,250l-8.9-5.1c-0.7-0.4-0.6-1.1,0.2-1.6l10.5-6c0.8-0.5,2.1-0.5,2.8-0.1l8.9,5.1
					c0.7,0.4,0.6,1.1-0.2,1.6l-10.5,6C129.5,250.4,128.3,250.4,127.6,250z"/>
				<path id="XMLID_1095_" class="st6" d="M141.3,257.9l-8.9-5.1c-0.7-0.4-0.6-1.1,0.2-1.6l10.5-6c0.8-0.5,2.1-0.5,2.8-0.1l8.9,5.1
					c0.7,0.4,0.6,1.1-0.2,1.6l-10.5,6C143.2,258.3,142,258.4,141.3,257.9z"/>
				<path id="XMLID_1094_" class="st6" d="M155,265.9l-8.9-5.1c-0.7-0.4-0.6-1.1,0.2-1.6l10.5-6c0.8-0.5,2.1-0.5,2.8-0.1l8.9,5.1
					c0.7,0.4,0.6,1.1-0.2,1.6l-10.5,6C156.9,266.2,155.7,266.3,155,265.9z"/>
				<path id="XMLID_1093_" class="st6" d="M173.9,259.3l-8.9-5.1c-0.7-0.4-0.6-1.1,0.2-1.6l8.8-5.1c0.8-0.5,2.1-0.5,2.8-0.1l8.9,5.1
					c0.7,0.4,0.6,1.1-0.2,1.6l-8.8,5.1C175.9,259.7,174.6,259.7,173.9,259.3z"/>
				<path id="XMLID_1092_" class="st6" d="M187.6,267.2l-8.9-5.1c-0.7-0.4-0.6-1.1,0.2-1.6l8.8-5.1c0.8-0.5,2.1-0.5,2.8-0.1l8.9,5.1
					c0.7,0.4,0.6,1.1-0.2,1.6l-8.8,5.1C189.6,267.6,188.3,267.6,187.6,267.2z"/>
				<path id="XMLID_1091_" class="st6" d="M201.3,275.1l-8.9-5.1c-0.7-0.4-0.6-1.1,0.2-1.6l8.8-5.1c0.8-0.5,2.1-0.5,2.8-0.1l8.9,5.1
					c0.7,0.4,0.6,1.1-0.2,1.6l-8.8,5.1C203.3,275.5,202,275.6,201.3,275.1z"/>
				<path id="XMLID_1090_" class="st6" d="M215,283.1l-8.9-5.1c-0.7-0.4-0.6-1.1,0.2-1.6l8.8-5.1c0.8-0.5,2.1-0.5,2.8-0.1l8.9,5.1
					c0.7,0.4,0.6,1.1-0.2,1.6l-8.8,5.1C217,283.4,215.7,283.5,215,283.1z"/>
				<path id="XMLID_1089_" class="st6" d="M228.7,291l-8.9-5.1c-0.7-0.4-0.6-1.1,0.2-1.6l8.8-5.1c0.8-0.5,2.1-0.5,2.8-0.1l8.9,5.1
					c0.7,0.4,0.6,1.1-0.2,1.6l-8.8,5.1C230.7,291.3,229.4,291.4,228.7,291z"/>
				<path id="XMLID_1088_" class="st6" d="M242.4,298.9l-8.9-5.1c-0.7-0.4-0.6-1.1,0.2-1.6l8.8-5.1c0.8-0.5,2.1-0.5,2.8-0.1l8.9,5.1
					c0.7,0.4,0.6,1.1-0.2,1.6l-8.8,5.1C244.4,299.2,243.2,299.3,242.4,298.9z"/>
				<path id="XMLID_1087_" class="st6" d="M256.1,306.8l-8.9-5.1c-0.7-0.4-0.6-1.1,0.2-1.6l8.8-5.1c0.8-0.5,2.1-0.5,2.8-0.1l8.9,5.1
					c0.7,0.4,0.6,1.1-0.2,1.6l-8.8,5.1C258.1,307.2,256.9,307.2,256.1,306.8z"/>
				<path id="XMLID_1086_" class="st6" d="M269.8,314.7l-8.9-5.1c-0.7-0.4-0.6-1.1,0.2-1.6l8.8-5.1c0.8-0.5,2.1-0.5,2.8-0.1l8.9,5.1
					c0.7,0.4,0.6,1.1-0.2,1.6l-8.8,5.1C271.8,315.1,270.6,315.1,269.8,314.7z"/>
				<path id="XMLID_1085_" class="st6" d="M283.6,322.6l-8.9-5.1c-0.7-0.4-0.6-1.1,0.2-1.6l8.8-5.1c0.8-0.5,2.1-0.5,2.8-0.1l8.9,5.1
					c0.7,0.4,0.6,1.1-0.2,1.6l-8.8,5.1C285.5,323,284.3,323,283.6,322.6z"/>
				<path id="XMLID_1084_" class="st6" d="M297.3,330.5l-8.9-5.1c-0.7-0.4-0.6-1.1,0.2-1.6l8.8-5.1c0.8-0.5,2.1-0.5,2.8-0.1l8.9,5.1
					c0.7,0.4,0.6,1.1-0.2,1.6l-8.8,5.1C299.2,330.9,298,330.9,297.3,330.5z"/>
				<path id="XMLID_1083_" class="st6" d="M194.1,255.6l-8.9-5.1c-0.7-0.4-0.6-1.1,0.2-1.6l8.8-5.1c0.8-0.5,2.1-0.5,2.8-0.1l8.9,5.1
					c0.7,0.4,0.6,1.1-0.2,1.6l-8.8,5.1C196.1,255.9,194.8,256,194.1,255.6z"/>
				<path id="XMLID_1082_" class="st6" d="M180.2,247.5l-8.9-5.1c-0.7-0.4-0.6-1.1,0.2-1.6l8.8-5.1c0.8-0.5,2.1-0.5,2.8-0.1l8.9,5.1
					c0.7,0.4,0.6,1.1-0.2,1.6l-8.8,5.1C182.2,247.9,180.9,248,180.2,247.5z"/>
				<path id="XMLID_1081_" class="st6" d="M166.3,239.5l-19.1-11c-0.7-0.4-0.6-1.1,0.2-1.6l8.8-5.1c0.8-0.5,2.1-0.5,2.8-0.1l19.1,11
					c0.7,0.4,0.6,1.1-0.2,1.6l-8.8,5.1C168.2,239.9,167,239.9,166.3,239.5z"/>
				<path id="XMLID_1080_" class="st6" d="M176,229.7l-15.5-9c-0.7-0.4-0.6-1.1,0.2-1.6l8.8-5.1c0.8-0.5,2.1-0.5,2.8-0.1l15.5,9
					c0.7,0.4,0.6,1.1-0.2,1.6l-8.8,5.1C178,230.1,176.7,230.1,176,229.7z"/>
				<path id="XMLID_1079_" class="st6" d="M207.8,263.5l-8.9-5.1c-0.7-0.4-0.6-1.1,0.2-1.6l8.8-5.1c0.8-0.5,2.1-0.5,2.8-0.1l8.9,5.1
					c0.7,0.4,0.6,1.1-0.2,1.6l-8.8,5.1C209.8,263.8,208.5,263.9,207.8,263.5z"/>
				<path id="XMLID_1078_" class="st6" d="M221.5,271.4l-8.9-5.1c-0.7-0.4-0.6-1.1,0.2-1.6l8.8-5.1c0.8-0.5,2.1-0.5,2.8-0.1l8.9,5.1
					c0.7,0.4,0.6,1.1-0.2,1.6l-8.8,5.1C223.5,271.8,222.2,271.8,221.5,271.4z"/>
				<path id="XMLID_1077_" class="st6" d="M235.2,279.3l-8.9-5.1c-0.7-0.4-0.6-1.1,0.2-1.6l8.8-5.1c0.8-0.5,2.1-0.5,2.8-0.1l8.9,5.1
					c0.7,0.4,0.6,1.1-0.2,1.6l-8.8,5.1C237.2,279.7,235.9,279.7,235.2,279.3z"/>
				<path id="XMLID_1076_" class="st6" d="M248.9,287.2l-8.9-5.1c-0.7-0.4-0.6-1.1,0.2-1.6l8.8-5.1c0.8-0.5,2.1-0.5,2.8-0.1l8.9,5.1
					c0.7,0.4,0.6,1.1-0.2,1.6l-8.8,5.1C250.9,287.6,249.6,287.6,248.9,287.2z"/>
				<path id="XMLID_1075_" class="st6" d="M262.6,295.1l-8.9-5.1c-0.7-0.4-0.6-1.1,0.2-1.6l8.8-5.1c0.8-0.5,2.1-0.5,2.8-0.1l8.9,5.1
					c0.7,0.4,0.6,1.1-0.2,1.6l-8.8,5.1C264.6,295.5,263.3,295.5,262.6,295.1z"/>
				<path id="XMLID_1074_" class="st6" d="M276.3,303l-8.9-5.1c-0.7-0.4-0.6-1.1,0.2-1.6l8.8-5.1c0.8-0.5,2.1-0.5,2.8-0.1l8.9,5.1
					c0.7,0.4,0.6,1.1-0.2,1.6l-8.8,5.1C278.3,303.4,277,303.5,276.3,303z"/>
				<path id="XMLID_1073_" class="st6" d="M290,311l-8.9-5.1c-0.7-0.4-0.6-1.1,0.2-1.6l8.8-5.1c0.8-0.5,2.1-0.5,2.8-0.1l8.9,5.1
					c0.7,0.4,0.6,1.1-0.2,1.6l-8.8,5.1C292,311.3,290.8,311.4,290,311z"/>
				<path id="XMLID_1072_" class="st6" d="M303.7,318.9l-8.9-5.1c-0.7-0.4-0.6-1.1,0.2-1.6l8.8-5.1c0.8-0.5,2.1-0.5,2.8-0.1l8.9,5.1
					c0.7,0.4,0.6,1.1-0.2,1.6l-8.8,5.1C305.7,319.2,304.5,319.3,303.7,318.9z"/>
				<path id="XMLID_1071_" class="st6" d="M317.4,326.8l-8.9-5.1c-0.7-0.4-0.6-1.1,0.2-1.6l8.8-5.1c0.8-0.5,2.1-0.5,2.8-0.1l8.9,5.1
					c0.7,0.4,0.6,1.1-0.2,1.6l-8.8,5.1C319.4,327.1,318.2,327.2,317.4,326.8z"/>
				<path id="XMLID_1070_" class="st6" d="M341.8,340.8l-19.4-11.2c-0.7-0.4-0.6-1.1,0.2-1.6l8.8-5.1c0.8-0.5,2.1-0.5,2.8-0.1
					l19.4,11.2c0.7,0.4,0.6,1.1-0.2,1.6l-8.8,5.1C343.8,341.2,342.5,341.3,341.8,340.8z"/>
				<path id="XMLID_1069_" class="st6" d="M368.5,325.4l-16.3-9.4c-0.7-0.4-0.6-1.1,0.2-1.6l8.8-5.1c0.8-0.5,2.1-0.5,2.8-0.1
					l16.3,9.4c0.7,0.4,0.6,1.1-0.2,1.6l-8.8,5.1C370.4,325.8,369.2,325.9,368.5,325.4z"/>
				<path id="XMLID_1068_" class="st6" d="M231.8,261.9l-8.9-5.1c-0.7-0.4-0.6-1.1,0.2-1.6l8.8-5.1c0.8-0.5,2.1-0.5,2.8-0.1l8.9,5.1
					c0.7,0.4,0.6,1.1-0.2,1.6l-8.8,5.1C233.8,262.3,232.5,262.4,231.8,261.9z"/>
				<path id="XMLID_1067_" class="st6" d="M217.8,253.8l-8.9-5.1c-0.7-0.4-0.6-1.1,0.2-1.6l8.8-5.1c0.8-0.5,2.1-0.5,2.8-0.1l8.9,5.1
					c0.7,0.4,0.6,1.1-0.2,1.6l-8.8,5.1C219.7,254.2,218.5,254.2,217.8,253.8z"/>
				<path id="XMLID_1066_" class="st6" d="M203.7,245.7l-8.9-5.1c-0.7-0.4-0.6-1.1,0.2-1.6l8.8-5.1c0.8-0.5,2.1-0.5,2.8-0.1l8.9,5.1
					c0.7,0.4,0.6,1.1-0.2,1.6l-8.8,5.1C205.7,246.1,204.4,246.1,203.7,245.7z"/>
				<path id="XMLID_1065_" class="st6" d="M189.7,237.6l-8.9-5.1c-0.7-0.4-0.6-1.1,0.2-1.6l8.8-5.1c0.8-0.5,2.1-0.5,2.8-0.1l8.9,5.1
					c0.7,0.4,0.6,1.1-0.2,1.6l-8.8,5.1C191.6,238,190.4,238,189.7,237.6z"/>
				<path id="XMLID_1064_" class="st6" d="M245.5,269.9l-8.9-5.1c-0.7-0.4-0.6-1.1,0.2-1.6l8.8-5.1c0.8-0.5,2.1-0.5,2.8-0.1l8.9,5.1
					c0.7,0.4,0.6,1.1-0.2,1.6l-8.8,5.1C247.5,270.2,246.2,270.3,245.5,269.9z"/>
				<path id="XMLID_1063_" class="st6" d="M259.2,277.8l-8.9-5.1c-0.7-0.4-0.6-1.1,0.2-1.6l8.8-5.1c0.8-0.5,2.1-0.5,2.8-0.1l8.9,5.1
					c0.7,0.4,0.6,1.1-0.2,1.6l-8.8,5.1C261.2,278.1,259.9,278.2,259.2,277.8z"/>
				<path id="XMLID_1062_" class="st6" d="M272.9,285.7l-8.9-5.1c-0.7-0.4-0.6-1.1,0.2-1.6l8.8-5.1c0.8-0.5,2.1-0.5,2.8-0.1l8.9,5.1
					c0.7,0.4,0.6,1.1-0.2,1.6l-8.8,5.1C274.9,286,273.6,286.1,272.9,285.7z"/>
				<path id="XMLID_1061_" class="st6" d="M286.6,293.6l-8.9-5.1c-0.7-0.4-0.6-1.1,0.2-1.6l8.8-5.1c0.8-0.5,2.1-0.5,2.8-0.1l8.9,5.1
					c0.7,0.4,0.6,1.1-0.2,1.6l-8.8,5.1C288.6,293.9,287.3,294,286.6,293.6z"/>
				<path id="XMLID_1060_" class="st6" d="M300.3,301.5l-8.9-5.1c-0.7-0.4-0.6-1.1,0.2-1.6l8.8-5.1c0.8-0.5,2.1-0.5,2.8-0.1l8.9,5.1
					c0.7,0.4,0.6,1.1-0.2,1.6l-8.8,5.1C302.3,301.9,301,301.9,300.3,301.5z"/>
				<path id="XMLID_1059_" class="st6" d="M314,309.4l-8.9-5.1c-0.7-0.4-0.6-1.1,0.2-1.6l8.8-5.1c0.8-0.5,2.1-0.5,2.8-0.1l8.9,5.1
					c0.7,0.4,0.6,1.1-0.2,1.6l-8.8,5.1C316,309.8,314.7,309.8,314,309.4z"/>
				<path id="XMLID_1058_" class="st6" d="M327.7,317.3l-8.9-5.1c-0.7-0.4-0.6-1.1,0.2-1.6l8.8-5.1c0.8-0.5,2.1-0.5,2.8-0.1l8.9,5.1
					c0.7,0.4,0.6,1.1-0.2,1.6l-8.8,5.1C329.7,317.7,328.5,317.7,327.7,317.3z"/>
				<path id="XMLID_1057_" class="st6" d="M341.4,325.2l-8.9-5.1c-0.7-0.4-0.6-1.1,0.2-1.6l8.8-5.1c0.8-0.5,2.1-0.5,2.8-0.1l8.9,5.1
					c0.7,0.4,0.6,1.1-0.2,1.6l-8.8,5.1C343.4,325.6,342.2,325.6,341.4,325.2z"/>
				<path id="XMLID_1056_" class="st6" d="M355.1,333.1l-8.9-5.1c-0.7-0.4-0.6-1.1,0.2-1.6l8.8-5.1c0.8-0.5,2.1-0.5,2.8-0.1l8.9,5.1
					c0.7,0.4,0.6,1.1-0.2,1.6l-8.8,5.1C357.1,333.5,355.9,333.6,355.1,333.1z"/>
				<path id="XMLID_1055_" class="st6" d="M224.6,242.4l-8.9-5.1c-0.7-0.4-0.6-1.1,0.2-1.6l8.8-5.1c0.8-0.5,2.1-0.5,2.8-0.1l8.9,5.1
					c0.7,0.4,0.6,1.1-0.2,1.6l-8.8,5.1C226.6,242.7,225.3,242.8,224.6,242.4z"/>
				<path id="XMLID_1054_" class="st6" d="M211,234.5l-8.9-5.1c-0.7-0.4-0.6-1.1,0.2-1.6l8.8-5.1c0.8-0.5,2.1-0.5,2.8-0.1l8.9,5.1
					c0.7,0.4,0.6,1.1-0.2,1.6l-8.8,5.1C212.9,234.9,211.7,234.9,211,234.5z"/>
				<path id="XMLID_1053_" class="st6" d="M197.3,226.6l-8.9-5.1c-0.7-0.4-0.6-1.1,0.2-1.6l8.8-5.1c0.8-0.5,2.1-0.5,2.8-0.1l8.9,5.1
					c0.7,0.4,0.6,1.1-0.2,1.6l-8.8,5.1C199.3,227,198,227,197.3,226.6z"/>
				<path id="XMLID_1052_" class="st6" d="M183.7,218.8l-8.9-5.1c-0.7-0.4-0.6-1.1,0.2-1.6l8.8-5.1c0.8-0.5,2.1-0.5,2.8-0.1l8.9,5.1
					c0.7,0.4,0.6,1.1-0.2,1.6l-8.8,5.1C185.7,219.1,184.4,219.2,183.7,218.8z"/>
				<path id="XMLID_1051_" class="st6" d="M197.7,210.7l-8.9-5.1c-0.7-0.4-0.6-1.1,0.2-1.6l2.9-1.7c0.8-0.5,2.1-0.5,2.8-0.1l8.9,5.1
					c0.7,0.4,0.6,1.1-0.2,1.6l-2.9,1.7C199.7,211,198.4,211.1,197.7,210.7z"/>
				<path id="XMLID_1050_" class="st6" d="M215.5,220.9l-8.9-5.1c-0.7-0.4-0.6-1.1,0.2-1.6l2.9-1.7c0.8-0.5,2.1-0.5,2.8-0.1l8.9,5.1
					c0.7,0.4,0.6,1.1-0.2,1.6l-2.9,1.7C217.5,221.3,216.2,221.3,215.5,220.9z"/>
				<path id="XMLID_1049_" class="st6" d="M229.1,228.8l-8.9-5.1c-0.7-0.4-0.6-1.1,0.2-1.6l2.9-1.7c0.8-0.5,2.1-0.5,2.8-0.1l8.9,5.1
					c0.7,0.4,0.6,1.1-0.2,1.6l-2.9,1.7C231,229.1,229.8,229.2,229.1,228.8z"/>
				<path id="XMLID_1048_" class="st6" d="M242.7,236.6l-8.9-5.1c-0.7-0.4-0.6-1.1,0.2-1.6l2.9-1.7c0.8-0.5,2.1-0.5,2.8-0.1l8.9,5.1
					c0.7,0.4,0.6,1.1-0.2,1.6l-2.9,1.7C244.6,237,243.4,237,242.7,236.6z"/>
				<path id="XMLID_1047_" class="st6" d="M256.2,244.5l-8.9-5.1c-0.7-0.4-0.6-1.1,0.2-1.6l2.9-1.7c0.8-0.5,2.1-0.5,2.8-0.1l8.9,5.1
					c0.7,0.4,0.6,1.1-0.2,1.6l-2.9,1.7C258.2,244.8,257,244.9,256.2,244.5z"/>
				<path id="XMLID_1046_" class="st6" d="M332.1,288.2l-8.9-5.1c-0.7-0.4-0.6-1.1,0.2-1.6l2.9-1.7c0.8-0.5,2.1-0.5,2.8-0.1l8.9,5.1
					c0.7,0.4,0.6,1.1-0.2,1.6l-2.9,1.7C334,288.6,332.8,288.6,332.1,288.2z"/>
				<path id="XMLID_1045_" class="st6" d="M345.6,296.1l-8.9-5.1c-0.7-0.4-0.6-1.1,0.2-1.6l2.9-1.7c0.8-0.5,2.1-0.5,2.8-0.1l8.9,5.1
					c0.7,0.4,0.6,1.1-0.2,1.6l-2.9,1.7C347.6,296.4,346.3,296.5,345.6,296.1z"/>
				<path id="XMLID_1044_" class="st6" d="M359.2,303.9l-8.9-5.1c-0.7-0.4-0.6-1.1,0.2-1.6l2.9-1.7c0.8-0.5,2.1-0.5,2.8-0.1l8.9,5.1
					c0.7,0.4,0.6,1.1-0.2,1.6l-2.9,1.7C361.2,304.3,359.9,304.3,359.2,303.9z"/>
				<path id="XMLID_1043_" class="st6" d="M372.8,311.7l-8.9-5.1c-0.7-0.4-0.6-1.1,0.2-1.6l2.9-1.7c0.8-0.5,2.1-0.5,2.8-0.1l8.9,5.1
					c0.7,0.4,0.6,1.1-0.2,1.6l-2.9,1.7C374.7,312.1,373.5,312.1,372.8,311.7z"/>
				<path id="XMLID_1042_" class="st6" d="M238.3,250.3l-8.9-5.1c-0.7-0.4-0.6-1.1,0.2-1.6l8.8-5.1c0.8-0.5,2.1-0.5,2.8-0.1l8.9,5.1
					c0.7,0.4,0.6,1.1-0.2,1.6l-8.8,5.1C240.3,250.6,239,250.7,238.3,250.3z"/>
				<path id="XMLID_1041_" class="st6" d="M252,258.2l-8.9-5.1c-0.7-0.4-0.6-1.1,0.2-1.6l8.8-5.1c0.8-0.5,2.1-0.5,2.8-0.1l8.9,5.1
					c0.7,0.4,0.6,1.1-0.2,1.6l-8.8,5.1C254,258.6,252.7,258.6,252,258.2z"/>
				<path id="XMLID_1040_" class="st6" d="M265.7,266.1l-8.9-5.1c-0.7-0.4-0.6-1.1,0.2-1.6l8.8-5.1c0.8-0.5,2.1-0.5,2.8-0.1l8.9,5.1
					c0.7,0.4,0.6,1.1-0.2,1.6l-8.8,5.1C267.7,266.5,266.4,266.5,265.7,266.1z"/>
				<path id="XMLID_1039_" class="st6" d="M279.4,274l-8.9-5.1c-0.7-0.4-0.6-1.1,0.2-1.6l8.8-5.1c0.8-0.5,2.1-0.5,2.8-0.1l8.9,5.1
					c0.7,0.4,0.6,1.1-0.2,1.6l-8.8,5.1C281.4,274.4,280.1,274.4,279.4,274z"/>
				<path id="XMLID_1038_" class="st6" d="M293.1,281.9l-8.9-5.1c-0.7-0.4-0.6-1.1,0.2-1.6l8.8-5.1c0.8-0.5,2.1-0.5,2.8-0.1l8.9,5.1
					c0.7,0.4,0.6,1.1-0.2,1.6l-8.8,5.1C295.1,282.3,293.8,282.3,293.1,281.9z"/>
				<path id="XMLID_1037_" class="st6" d="M306.8,289.8l-8.9-5.1c-0.7-0.4-0.6-1.1,0.2-1.6l8.8-5.1c0.8-0.5,2.1-0.5,2.8-0.1l8.9,5.1
					c0.7,0.4,0.6,1.1-0.2,1.6l-8.8,5.1C308.8,290.2,307.5,290.3,306.8,289.8z"/>
				<path id="XMLID_1036_" class="st6" d="M320.5,297.8l-8.9-5.1c-0.7-0.4-0.6-1.1,0.2-1.6l8.8-5.1c0.8-0.5,2.1-0.5,2.8-0.1l8.9,5.1
					c0.7,0.4,0.6,1.1-0.2,1.6l-8.8,5.1C322.5,298.1,321.2,298.2,320.5,297.8z"/>
				<path id="XMLID_1035_" class="st6" d="M334.2,305.7l-8.9-5.1c-0.7-0.4-0.6-1.1,0.2-1.6l8.8-5.1c0.8-0.5,2.1-0.5,2.8-0.1l8.9,5.1
					c0.7,0.4,0.6,1.1-0.2,1.6l-8.8,5.1C336.2,306,334.9,306.1,334.2,305.7z"/>
				<path id="XMLID_1034_" class="st6" d="M347.9,313.6l-8.9-5.1c-0.7-0.4-0.6-1.1,0.2-1.6l8.8-5.1c0.8-0.5,2.1-0.5,2.8-0.1l8.9,5.1
					c0.7,0.4,0.6,1.1-0.2,1.6l-8.8,5.1C349.9,313.9,348.6,314,347.9,313.6z"/>
				<path id="XMLID_1033_" class="st6" d="M160,251.3l-26.1-15.1c-0.7-0.4-0.6-1.1,0.2-1.6l8.8-5.1c0.8-0.5,2.1-0.5,2.8-0.1
					l26.1,15.1c0.7,0.4,0.6,1.1-0.2,1.6l-8.8,5.1C161.9,251.6,160.7,251.7,160,251.3z"/>
				<path id="XMLID_1032_" class="st6" d="M328.3,348.5l-26.1-15.1c-0.7-0.4-0.6-1.1,0.2-1.6l8.8-5.1c0.8-0.5,2.1-0.5,2.8-0.1
					l26.1,15.1c0.7,0.4,0.6,1.1-0.2,1.6l-8.8,5.1C330.3,348.8,329,348.9,328.3,348.5z"/>
				<path id="XMLID_1031_" class="st6" d="M273.5,334.3l-8.9-5.1c-0.7-0.4-0.6-1.1,0.2-1.6l10.5-6c0.8-0.5,2.1-0.5,2.8-0.1l8.9,5.1
					c0.7,0.4,0.6,1.1-0.2,1.6l-10.5,6C275.5,334.7,274.2,334.7,273.5,334.3z"/>
				<path id="XMLID_1030_" class="st6" d="M174,276.8l-14.2-8.2c-0.7-0.4-0.6-1.1,0.2-1.6l10.5-6c0.8-0.5,2.1-0.5,2.8-0.1l14.2,8.2
					c0.7,0.4,0.6,1.1-0.2,1.6l-10.5,6C175.9,277.2,174.7,277.3,174,276.8z"/>
				<path id="XMLID_1029_" class="st6" d="M260.3,326.7l-14.2-8.2c-0.7-0.4-0.6-1.1,0.2-1.6l10.5-6c0.8-0.5,2.1-0.5,2.8-0.1
					l14.2,8.2c0.7,0.4,0.6,1.1-0.2,1.6l-10.5,6C262.3,327,261,327.1,260.3,326.7z"/>
				<path id="XMLID_1028_" class="st6" d="M193.8,288.3l-14.2-8.2c-0.7-0.4-0.6-1.1,0.2-1.6l10.5-6c0.8-0.5,2.1-0.5,2.8-0.1
					l14.2,8.2c0.7,0.4,0.6,1.1-0.2,1.6l-10.5,6C195.7,288.6,194.5,288.7,193.8,288.3z"/>
				<path id="XMLID_1027_" class="st6" d="M193.1,272.3l61.7,35.6c0.8,0.4,0.8,1.2,0,1.6l-10.7,6.2c-0.8,0.4-2,0.4-2.8,0l-61.7-35.6
					L193.1,272.3z"/>
				<path id="XMLID_1026_" class="st6" d="M311.8,348.6l9.9,5.7c0.6,0.3,0.5,0.9-0.2,1.3l-4.3,2.5c-0.7,0.4-1.7,0.4-2.3,0.1
					l-9.9-5.7c-0.6-0.3-0.5-0.9,0.2-1.3l4.3-2.5C310.2,348.3,311.2,348.3,311.8,348.6z"/>
				<path id="XMLID_1025_" class="st6" d="M298,340.7l9.9,5.7c0.6,0.3,0.5,0.9-0.2,1.3l-4.3,2.5c-0.7,0.4-1.7,0.4-2.3,0.1l-9.9-5.7
					c-0.6-0.3-0.5-0.9,0.2-1.3l4.3-2.5C296.4,340.4,297.4,340.3,298,340.7z"/>
				<path id="XMLID_1024_" class="st6" d="M284.3,332.8l9.9,5.7c0.6,0.3,0.5,0.9-0.2,1.3l-4.3,2.5c-0.7,0.4-1.7,0.4-2.3,0.1
					l-9.9-5.7c-0.6-0.3-0.5-0.9,0.2-1.3l4.3-2.5C282.7,332.5,283.7,332.4,284.3,332.8z"/>
				<path id="XMLID_1018_" class="st6" d="M305.6,336.3l9.9,5.7c0.6,0.3,0.5,0.9-0.2,1.3l-4.3,2.5c-0.7,0.4-1.7,0.4-2.3,0.1
					l-9.9-5.7c-0.6-0.3-0.5-0.9,0.2-1.3l4.3-2.5C304,336,305,336,305.6,336.3z"/>
			</g>
			<g id="XMLID_1004_">
				<polygon id="XMLID_1014_" class="st4" points="359.7,181.9 285.9,139.3 286.8,134.5 360.6,177.1 				"/>
				<polygon id="XMLID_1012_" class="st4" points="333.3,190 281.7,160.3 282.7,155.5 334.2,185.2 				"/>
				<polygon id="XMLID_1011_" class="st5" points="328.4,175.5 283.8,149.8 284.7,145 329.3,170.7 				"/>
				<polygon id="XMLID_1009_" class="st7" points="357.6,192.4 335.3,179.5 336.3,174.7 358.6,187.6 				"/>
				<polygon id="XMLID_1008_" class="st4" points="278,97.4 255.7,84.6 256.7,79.8 279,92.6 				"/>
				<polygon id="XMLID_1007_" class="st5" points="275.6,108.6 253.3,95.7 254.3,90.9 276.5,103.8 				"/>
				<polygon id="XMLID_1006_" class="st4" points="385,263.3 362.7,250.4 363.6,245.6 385.9,258.5 				"/>
				<polygon id="XMLID_1005_" class="st4" points="270.8,130.9 248.5,118 249.4,113.2 271.7,126.1 				"/>
			</g>
			<g id="XMLID_992_">
				<path id="XMLID_1003_" class="st7" d="M318.9,134.3c-0.7,1.5-2.5,2.1-4,1.2c-1.5-0.9-2.1-2.8-1.4-4.4c0.7-1.5,2.5-2.1,4-1.2
					C319,130.8,319.6,132.8,318.9,134.3z"/>
				<path id="XMLID_1002_" class="st5" d="M328.5,139.9c-0.7,1.5-2.5,2.1-4,1.2c-1.5-0.9-2.1-2.8-1.4-4.4c0.7-1.5,2.5-2.1,4-1.2
					C328.6,136.4,329.2,138.3,328.5,139.9z"/>
				<path id="XMLID_1000_" class="st4" d="M338.1,145.4c-0.7,1.5-2.5,2.1-4,1.2c-1.5-0.9-2.1-2.8-1.4-4.4c0.7-1.5,2.5-2.1,4-1.2
					C338.2,141.9,338.8,143.9,338.1,145.4z"/>
				<path id="XMLID_993_" class="st7" d="M347.7,151c-0.7,1.5-2.5,2.1-4,1.2c-1.5-0.9-2.1-2.8-1.4-4.4c0.7-1.5,2.5-2.1,4-1.2
					C347.8,147.5,348.4,149.4,347.7,151z"/>
			</g>
		</g>
		<g id="XMLID_967_">
			<g id="XMLID_987_">
				<path id="XMLID_990_" class="st6" d="M235.5,126L190,99.7c-0.9-0.5-1.8-0.5-2.6-0.2c0,0,0,0,0,0l-5.4,2.6c0,0,2,0.7,3.2,1.1
					l-6.6,33.1c-0.5,2.7,0.7,5.8,2.7,7l43.5,25.1l-0.8,3.9l5.5-2.6l0,0c0.9-0.5,1.7-1.5,2-2.9l6.7-33.8
					C238.8,130.3,237.6,127.2,235.5,126z"/>
				<path id="XMLID_988_" class="st4" d="M221.4,172.2l-45.5-26.3c-2-1.2-3.2-4.3-2.7-7l6.7-33.8c0.5-2.7,2.6-3.9,4.6-2.8l45.5,26.3
					c2,1.2,3.2,4.3,2.7,7l-6.7,33.8C225.5,172.2,223.4,173.4,221.4,172.2z"/>
			</g>
		</g>
		<path id="XMLID_966_" class="st5" d="M213.8,147.6l2.8-10.8c0.2-0.8-0.5-2-1.4-2.6l-23.5-13.8l-0.5-3c-0.1-0.7-0.7-1.6-1.4-2
			l-6.1-3.6c-0.8-0.5-1.4-0.2-1.4,0.6v1c0,0.8,0.6,1.8,1.4,2.3l4.2,2.4l4.2,23c-1,0-1.7,0.7-1.7,1.9c0,1.9,1.5,4.2,3.4,5.3
			c1.9,1.1,3.4,0.5,3.4-1.4c0-0.9-0.4-2-1-3l12.6,7.3c-0.6,0.2-1,0.9-1,1.8c0,1.9,1.5,4.2,3.4,5.3c1.9,1.1,3.4,0.5,3.4-1.4
			c0-1.3-0.8-2.9-1.9-4.1l0.3-1.3c0.2-0.8-0.5-2-1.4-2.6l-16.1-9.4l-0.4-2.1l17.6,10.3C213.1,148.3,213.7,148.2,213.8,147.6z"/>
	</g>
	<path id="XMLID_1174_" class="st8" d="M403.5,474l-84.9-49c5.2-2.5,10.9-5.2,15.5-7.8c10.8-5.9,33-21.8,33-21.8l-8.9-5.2
		c0.1,0,0.1-0.1,0.1-0.1l-9-5.2c0,0-13.5,10.8-30.9,20.9c-10.5,6.1-16.9,8.6-22.5,11c6.4-3,14.2-6.6,20.4-10
		c10.8-5.9,33-21.8,33-21.8l-9-5.2c0,0-13.5,10.8-30.9,20.9c-17.4,10.1-23.5,10.5-33.3,16.2c-4.1,2.4-4.6,5-2.1,6.4l0,0
		c2.5,1.4,7.4,0.9,11.1-1.2c0.2-0.1,0.4-0.2,0.6-0.3c-0.2,0.1-0.3,0.2-0.5,0.3c-4.1,2.4-4.6,5-2.1,6.4l0,0c2.5,1.4,7.4,0.9,11.1-1.2
		c0.2-0.1,0.4-0.2,0.6-0.3c-0.2,0.1-0.4,0.2-0.7,0.4c-3.9,2.2-4.5,4.7-2.5,6.2l0,0l0.2,0.1c0.1,0,0.1,0.1,0.1,0.1l0,0
		c0,0,0.1,0,0.2,0.1l90.6,52.3h12.1v-7L403.5,474z M325.2,412c10.3-5.7,31-20.4,32.8-21.7c-0.6,0.5-13.8,11-30.9,20.9
		c-10.7,6.2-17.1,8.7-22.7,11.1C310.9,419.3,319,415.5,325.2,412z"/>
	<path id="XMLID_1172_" class="st9" d="M391.5,481.3L391.5,481.3c0,4.3,3,6,6.6,3.9l64.2-37.1v-5.4c0,0,0,0-0.1,0l0.1,0l-3.2-1.9
		c2-1.6,3.2-2.7,3.2-2.7v-3.6c0,0-16.1,12.1-33.6,22.2C411.3,466.8,391.5,477.1,391.5,481.3z"/>
	<path id="XMLID_1171_" class="st5" d="M305.2,418.8c9.8-5.7,13.2-3.1,30.7-13.2c17.4-10.1,33.6-23.9,33.6-23.9l92.9,52.9
		c0,0-13.5,13.6-29.9,23.2c-17.2,10-40.6,14.2-40.6,23.6l-93.2-53.7C298.7,423.4,301.2,421.1,305.2,418.8z"/>
	<path id="XMLID_1170_" class="st9" d="M300.6,432.1c-1.2-0.7-1.9-2.2-1.9-4.3v-0.1c0-0.1,0-0.1,0-0.2l93.2,53.7
		c0,1.3,0.5,2.7,1.4,4.2C393.3,485.5,301.8,432.8,300.6,432.1z"/>
	<g id="XMLID_1168_">
		<linearGradient id="XMLID_2_" gradientUnits="userSpaceOnUse" x1="391.5274" y1="460.3128" x2="462.3637" y2="460.3128">
			<stop  offset="0" style="stop-color:#FFFFFF"/>
			<stop  offset="1" style="stop-color:#E3E3E3"/>
		</linearGradient>
		<path id="XMLID_1169_" class="st10" d="M398.1,471.6c9.8-5.7,13.2-3.1,30.7-13.2c17.4-10.1,33.6-23.9,33.6-23.9v6.1
			c0,0-16,11.3-33.6,21.5c-17.5,10.1-23,11.2-30.7,15.6c-1.1,0.6-1.8,1.4-1.8,2c0,0.6,0.7,0.6,1.8,0c0,0,39.2-22.6,28.8-16.6
			c-10.3,6,35.4-20.4,35.4-20.4v5.4c0,0-45.8,26.4-35.4,20.4c10.3-6-28.8,16.6-28.8,16.6c-3.6,2.1-6.6,0.4-6.6-3.8v-0.1
			C391.5,477.1,394,474,398.1,471.6z"/>
	</g>
	<path id="XMLID_1165_" class="st9" d="M391.5,466.5L391.5,466.5c0,4.3,3,6,6.6,3.9l64.2-37.1v-5.4c0,0,0,0-0.1,0l0.1,0l-3.2-1.9
		c2-1.6,3.2-2.7,3.2-2.7V418c0,0-16.1,13.8-33.6,23.9C411.3,452,391.5,462.3,391.5,466.5z"/>
	<path id="XMLID_1164_" class="st5" d="M305.2,401.6c9.8-5.7,13.2-3.1,30.7-13.2c17.4-10.1,33.6-23.9,33.6-23.9l92.9,53.5
		c0,0-13.5,15.3-29.9,24.9c-17.2,10-40.6,14.2-40.6,23.6l-93.2-53.7C298.7,408.6,301.2,403.9,305.2,401.6z"/>
	<path id="XMLID_1163_" class="st9" d="M300.6,417.3c-1.2-0.7-1.9-2.2-1.9-4.3V413c0-0.1,0-0.1,0-0.2l93.2,53.7
		c0,1.3,0.5,2.7,1.4,4.2C393.3,470.8,301.8,418,300.6,417.3z"/>
	<g id="XMLID_1161_">
		<linearGradient id="XMLID_3_" gradientUnits="userSpaceOnUse" x1="391.5274" y1="444.6544" x2="462.3637" y2="444.6544">
			<stop  offset="0" style="stop-color:#FFFFFF"/>
			<stop  offset="1" style="stop-color:#E3E3E3"/>
		</linearGradient>
		<path id="XMLID_1162_" class="st11" d="M398.1,455.1c9.8-5.7,13.2-3.1,30.7-13.2c17.4-10.1,33.6-23.9,33.6-23.9v5.4
			c0,0-16,13.8-33.6,23.9c-17.5,10.1-23,8.7-30.7,13.2c-1.1,0.6-1.9,2.1-1.9,3.3c0,1.3,0.9,1.8,1.9,1.2c0,0,39.2-22.6,28.8-16.6
			c-10.3,6,35.4-20.4,35.4-20.4v5.4c0,0-45.8,26.4-35.4,20.4c10.3-6-28.8,16.6-28.8,16.6c-3.6,2.1-6.6,0.4-6.6-3.8v-0.1
			C391.5,462.3,394,457.4,398.1,455.1z"/>
	</g>
	<g id="XMLID_1112_">
		<path id="XMLID_1158_" class="st9" d="M391.5,450.5L391.5,450.5c0,4.3,3,6,6.6,3.9l64.2-37.1v-5.4c0,0,0,0-0.1,0l0.1,0l-3.2-1.9
			c2-1.6,3.2-2.7,3.2-2.7v-5.4c0,0-16.1,13.8-33.6,23.9C411.3,435.9,391.5,446.3,391.5,450.5z"/>
		<path id="XMLID_1157_" class="st5" d="M305.2,385.5c9.8-5.7,13.2-3.1,30.7-13.2c17.4-10.1,33.6-23.9,33.6-23.9l92.9,53.5
			c0,0-13.5,15.3-29.9,24.9c-17.2,10-40.6,14.2-40.6,23.6l-93.2-53.7C298.7,392.6,301.2,387.8,305.2,385.5z"/>
		<path id="XMLID_1156_" class="st9" d="M300.6,401.3c-1.2-0.7-1.9-2.2-1.9-4.3v-0.1c0-0.1,0-0.1,0-0.2l93.2,53.7
			c0,1.3,0.5,2.7,1.4,4.2C393.3,454.7,301.8,402,300.6,401.3z"/>
		<g id="XMLID_1154_">
			<linearGradient id="XMLID_4_" gradientUnits="userSpaceOnUse" x1="391.5274" y1="428.595" x2="462.3637" y2="428.595">
				<stop  offset="0" style="stop-color:#FFFFFF"/>
				<stop  offset="1" style="stop-color:#E3E3E3"/>
			</linearGradient>
			<path id="XMLID_1155_" class="st12" d="M398.1,439c9.8-5.7,13.2-3.1,30.7-13.2c17.4-10.1,33.6-23.9,33.6-23.9v5.4
				c0,0-16,13.8-33.6,23.9c-17.5,10.1-23,8.7-30.7,13.2c-1.1,0.6-1.9,2.1-1.9,3.3c0,1.3,0.9,1.8,1.9,1.2c0,0,18.5-6.5,28.8-12.5
				c11.4-6.6,35.4-24.6,35.4-24.6v5.4c0,0-24.9,19-35.4,24.6c-10.9,5.8-25.2,10.4-28.8,12.5c-3.6,2.1-6.6,0.4-6.6-3.8v-0.1
				C391.5,446.3,394,441.4,398.1,439z"/>
		</g>
		<g id="XMLID_1142_">
			<g id="XMLID_1151_" class="st13">
				<path id="XMLID_1153_" class="st6" d="M317.8,387.6c4.5-1.4,10-3,19.3-8.3c0.6-0.3,1.4-0.4,2,0l26,15c0.6,0.4,0.6,1.3-0.1,1.6
					c-2.8,1.2-5.6,2.4-8.3,3.5c-8.1,3.3-15.7,4.5-20.6,9.9c-0.6,0.7-1.6,0.8-2.4,0.3l-26.7-15.3c-0.5-0.3-0.6-0.9-0.2-1.3
					C309.7,389.9,314.7,388.5,317.8,387.6z"/>
				<path id="XMLID_1152_" class="st6" d="M371,357.1l79.1,45.6c0.9,0.5,1,1.7,0.3,2.4c-0.3,0.3-0.7,0.6-1,1
					c-0.5,0.5-1.2,0.5-1.8,0.2l-79.2-45.7c-0.9-0.5-1-1.8-0.2-2.5c0.4-0.3,0.7-0.6,1.1-0.9C369.8,356.8,370.5,356.7,371,357.1z"/>
			</g>
			<g id="XMLID_1148_" class="st14">
				<path id="XMLID_1149_" class="st3" d="M420.9,396.7l15.2,8.5c0.5,0.3,0.6,1.1,0.2,1.5c-5,4.4-11.1,9.2-17.7,13
					c-0.4,0.2-0.8,0.4-1.2,0.7c-0.9,0.5-2,0.5-2.8,0l-15-8.4c-0.6-0.3-0.6-1.2,0-1.6c7-3.9,13.5-9.4,18.8-13.4
					C419.1,396.3,420.1,396.2,420.9,396.7z"/>
			</g>
			<g id="XMLID_1146_">
				<path id="XMLID_1147_" class="st4" d="M363.9,363.4l49.5,28.6c0.7,0.4,0.8,1.5,0.2,2c-5.4,4.2-11.2,8.7-17.3,12.8
					c-0.4,0.3-0.8,0.5-1.2,0.7c-0.8,0.5-1.9,0.4-2.7,0l-50.6-29.2c-0.6-0.4-0.6-1.2,0-1.6c7.2-4.1,14.4-9.1,19.8-13.1
					C362.3,363.1,363.1,363,363.9,363.4z"/>
			</g>
			<g id="XMLID_1143_" class="st14">
				<path id="XMLID_1144_" class="st1" d="M369.2,400.1l39.7,22.9c0.6,0.4,0.6,1.3-0.1,1.5c-8.4,3.8-16.9,6.7-22.9,9.9
					c-0.9,0.5-1.9,0.5-2.8,0l-40.2-23.2c-0.5-0.3-0.6-1.1-0.1-1.5c6.1-4.1,12-3.9,23.6-9.8C367.3,399.6,368.3,399.6,369.2,400.1z"/>
			</g>
		</g>
	</g>
</g>
</svg>
