<?xml version="1.0" encoding="utf-8"?>
<!-- Generator: Adobe Illustrator 21.1.0, SVG Export Plug-In . SVG Version: 6.00 Build 0)  -->
<svg version="1.1" xmlns="http://www.w3.org/2000/svg" xmlns:xlink="http://www.w3.org/1999/xlink" x="0px" y="0px"
	 viewBox="0 0 800 800" style="enable-background:new 0 0 800 800;" xml:space="preserve">
<style type="text/css">
	.st0{fill:#D4ECFF;}
	.st1{fill:#00747B;}
	.st2{fill:#FFFFFF;}
	.st3{fill:#3A7BD5;}
	.st4{fill:#6397D6;}
	.st5{fill:#009BA4;}
</style>
<g id="background">
	<g>
		<path class="st0" d="M523.9,409.3c10.8-32.2,16.9-65.1,20.2-94.7c2.6-22.6,3.6-43.2,3.9-60.1l-0.1,0c0-0.1,0-0.3,0-0.4
			c-19.1,4.4-38.4,6.6-57.9,6.6c-38.8,0-70.5-8.9-90-16.7v-38.4c8.4,5.2,86.1,41.8,181,0.2l0.3,0.3c1.2,12.7,28,315.3-181.3,388.7
			v-38.6c1.9-0.8,3.7-1.6,5.5-2.5c6.7-3,13-6.4,19.1-10C476,512.8,506.3,462,523.9,409.3z"/>
		<path class="st1" d="M581.3,206l-0.3-0.3l0.3-0.1C581.2,205.6,581.2,205.7,581.3,206z"/>
		<path class="st2" d="M547.9,254.4L547.9,254.4c-0.2,16.9-1.2,37.6-3.8,60.1C546.7,292,547.7,271.4,547.9,254.4z"/>
		<path class="st3" d="M434.5,319.8c6.7,7.8,10.8,18,10.8,29.1v19.6h7.9c2.6,0,4.6,2.1,4.6,4.6V460c0,2.6-2.1,4.6-4.6,4.6H347.9
			c-1.2,0-2.3-0.5-3.2-1.3c-0.9-0.8-1.5-2-1.5-3.4v-86.9c0-2.6,2.1-4.6,4.6-4.6h7.9V349c0-24.7,20.1-44.8,44.8-44.8
			C414.1,304.2,426.3,310.3,434.5,319.8z M423.9,368.5V349c0-12.9-10.5-23.4-23.4-23.4c-12.9,0-23.4,10.5-23.4,23.4v19.6H423.9z
			 M407.8,421.4c3.2-2.3,5.3-6,5.3-10.2c0-6.9-5.6-12.5-12.5-12.5c-6.9,0-12.5,5.6-12.5,12.5c0,4.2,2.1,7.9,5.3,10.2v18.5
			c0,1.6,1.3,2.9,2.9,2.9h8.6c1.6,0,2.9-1.3,2.9-2.9V421.4z"/>
		<path class="st4" d="M400,556.1v38.6l-0.1,0c-29.5-10.5-54.3-25.8-75.2-44.3L304,529.8c-104.9-118.3-87.4-324.6-87.4-324.6
			c95.4,42,171.4,5.2,183.3,0.2l0.1,0.1v38.4l0,0c-18.3,6.9-49.8,16.4-90.2,16.4c-19.4,0-38.7-2.2-57.7-6.6c0.2,9,0.6,19,1.3,29.8
			c5.8,87,33.3,224.6,145.6,273.1C399.3,556.4,399.7,556.2,400,556.1z"/>
		<path class="st5" d="M304,529.8l20.7,20.7C317.3,544,310.4,537.1,304,529.8z"/>
	</g>
</g>
<g id="objects">
</g>
</svg>
