<?xml version="1.0" encoding="utf-8"?>
<!-- Generator: Adobe Illustrator 21.1.0, SVG Export Plug-In . SVG Version: 6.00 Build 0)  -->
<svg version="1.1" id="Layer_1" xmlns="http://www.w3.org/2000/svg" xmlns:xlink="http://www.w3.org/1999/xlink" x="0px" y="0px"
	 viewBox="0 0 1600 900" style="enable-background:new 0 0 1600 900;" xml:space="preserve">
<style type="text/css">
	.st0{opacity:0.84;}
	.st1{fill:#65B1DF;}
	.st2{fill:#53F7E4;}
	.st3{fill:#FFFFFF;}
	.st4{opacity:0.7;}
	.st5{fill:#4877F7;}
	.st6{opacity:0.87;}
	.st7{fill:#3951A6;}
</style>
<g class="st0">
	<g>
		
			<ellipse transform="matrix(0.6716 -0.7409 0.7409 0.6716 92.4605 971.3273)" class="st1" cx="1142" cy="381.4" rx="27.9" ry="27.9"/>
		
			<ellipse transform="matrix(0.6716 -0.7409 0.7409 0.6716 78.103 1014.7805)" class="st1" cx="1183.8" cy="419.3" rx="27.9" ry="27.9"/>
	</g>
</g>
<ellipse transform="matrix(0.6716 -0.7409 0.7409 0.6716 63.0253 985.9951)" class="st2" cx="1143.8" cy="421.9" rx="27.9" ry="27.9"/>
<path class="st3" d="M477.9,389.8l-32.8,17.5c-5.2-10.6-11.6-15.9-19.2-15.9c-3.6,0-6.8,1.2-9.3,3.6c-2.6,2.4-3.9,5.5-3.9,9.3
	c0,6.6,7.6,13.1,22.9,19.6c21,9,35.2,17.4,42.5,25c7.3,7.6,10.9,17.9,10.9,30.8c0,16.6-6.1,30.4-18.3,41.6
	c-11.9,10.6-26.2,15.9-43,15.9c-28.8,0-49.2-14-61.2-42.1l33.8-15.7c4.7,8.2,8.3,13.5,10.8,15.7c4.8,4.5,10.6,6.7,17.3,6.7
	c13.4,0,20.1-6.1,20.1-18.3c0-7.1-5.2-13.6-15.5-19.7c-4-2-8-3.9-12-5.8c-4-1.9-8.1-3.8-12.2-5.8c-11.5-5.6-19.6-11.3-24.3-16.9
	c-6-7.2-9-16.4-9-27.7c0-14.9,5.1-27.3,15.3-37c10.5-9.8,23.1-14.6,38.1-14.6C450.9,355.8,467.2,367.1,477.9,389.8z"/>
<path class="st3" d="M676,367.8h38v14.7c7-7.3,13.2-12.3,18.6-15c5.5-2.8,12.1-4.2,19.6-4.2c10,0,20.5,3.3,31.4,9.8l-17.4,34.8
	c-7.2-5.2-14.3-7.8-21.1-7.8c-20.7,0-31.1,15.7-31.1,47v85.3h-38V367.8z"/>
<path class="st3" d="M925,459.1H807c1,13.5,5.4,24.3,13.2,32.3c7.8,7.9,17.7,11.8,29.9,11.8c9.5,0,17.3-2.3,23.5-6.8
	c6.1-4.5,13-12.8,20.8-25l32.1,17.9c-5,8.5-10.2,15.7-15.7,21.7c-5.5,6-11.4,11-17.7,14.9c-6.3,3.9-13.1,6.7-20.4,8.5
	c-7.3,1.8-15.3,2.7-23.8,2.7c-24.6,0-44.3-7.9-59.2-23.7c-14.9-15.9-22.3-37-22.3-63.2c0-26,7.2-47.1,21.6-63.2
	c14.5-15.9,33.8-23.8,57.8-23.8c24.2,0,43.4,7.7,57.5,23.2c14,15.3,21,36.6,21,63.7L925,459.1z M885.9,428
	c-5.3-20.3-18.1-30.4-38.4-30.4c-4.6,0-9,0.7-13,2.1c-4.1,1.4-7.7,3.4-11.1,6.1c-3.3,2.6-6.2,5.8-8.5,9.5c-2.4,3.7-4.2,7.9-5.4,12.7
	H885.9z"/>
<path class="st3" d="M525.2,384.6c13.6-11.9,34.6-21.3,61.1-21.3c22.2,0,40.7,8.2,55.4,24.7c14.8,16.5,22.1,37,22.1,61.7
	c0,25.1-7.4,46.1-22.1,62.9c-14.9,16.5-33.7,24.7-56.4,24.7c-18,0-34.9-7.3-50.5-22L534.5,622h-38.2c0,0,0.2-151,0.2-172.8
	c0-10,2.9-24,7.2-34.8C508.3,402.6,517.1,391.6,525.2,384.6z M611.9,412.6c-8.8-9.9-19.7-14.9-32.8-14.9c-13.9,0-25.1,4.9-33.8,14.7
	c-8.7,10-13,22.8-13,38.2c0,15.4,4.3,28.2,13,38.2c8.7,9.7,20.1,14.5,34.1,14.5c13.2,0,24.1-5,32.8-15c8.5-9.9,12.7-22.8,12.7-38.5
	C624.9,435,620.6,422.6,611.9,412.6z"/>
<path class="st3" d="M1072.7,515.4c-13.6,11.9-34.6,21.3-61.1,21.3c-22.2,0-40.7-8.2-55.4-24.7c-14.8-16.5-22.1-37-22.1-61.7
	c0-25.1,7.4-46.1,22.1-62.9c14.9-16.5,33.7-24.7,56.4-24.7c18,0,34.9,7.3,50.5,22l0.2-106.6h38.2c0,0-0.2,151-0.2,172.8
	c0,10-2.9,24-7.2,34.8C1089.5,497.4,1080.7,508.4,1072.7,515.4z M985.9,487.4c8.8,9.9,19.7,14.9,32.8,14.9
	c13.9,0,25.1-4.9,33.8-14.7c8.7-10,13-22.8,13-38.2c0-15.4-4.3-28.2-13-38.2c-8.7-9.7-20.1-14.5-34.1-14.5c-13.2,0-24.1,5-32.8,15
	c-8.5,9.9-12.7,22.8-12.7,38.5C972.9,465,977.3,477.4,985.9,487.4z"/>
<g class="st0">
	<g>
		
			<ellipse transform="matrix(0.6716 -0.7409 0.7409 0.6716 92.4005 971.5851)" class="st1" cx="1142.2" cy="381.6" rx="27.9" ry="27.9"/>
		
			<ellipse transform="matrix(0.6716 -0.7409 0.7409 0.6716 78.043 1015.0383)" class="st1" cx="1184.1" cy="419.5" rx="27.9" ry="27.9"/>
	</g>
</g>
<g class="st4">
	<g>
		
			<ellipse transform="matrix(0.6716 -0.7409 0.7409 0.6716 119.0373 956.2657)" class="st5" cx="1138.3" cy="343.8" rx="27.9" ry="27.9"/>
		
			<ellipse transform="matrix(0.6716 -0.7409 0.7409 0.6716 104.6798 999.7189)" class="st5" cx="1180.1" cy="381.8" rx="27.9" ry="27.9"/>
		
			<ellipse transform="matrix(0.6716 -0.7409 0.7409 0.6716 90.3223 1043.172)" class="st5" cx="1222" cy="419.7" rx="27.9" ry="27.9"/>
	</g>
</g>
<g class="st4">
	<g>
		
			<ellipse transform="matrix(0.6716 -0.7409 0.7409 0.6716 119.3462 956.6907)" class="st5" cx="1138.9" cy="343.7" rx="27.9" ry="27.9"/>
		
			<ellipse transform="matrix(0.6716 -0.7409 0.7409 0.6716 104.9887 1000.1439)" class="st5" cx="1180.8" cy="381.6" rx="27.9" ry="27.9"/>
		
			<ellipse transform="matrix(0.6716 -0.7409 0.7409 0.6716 90.6312 1043.5969)" class="st5" cx="1222.6" cy="419.6" rx="27.9" ry="27.9"/>
	</g>
</g>
<g class="st6">
	
		<ellipse transform="matrix(0.6716 -0.7409 0.7409 0.6716 146.8047 945.4385)" class="st7" cx="1139.9" cy="307.1" rx="27.9" ry="27.9"/>
	
		<ellipse transform="matrix(0.6716 -0.7409 0.7409 0.6716 133.761 984.9296)" class="st7" cx="1178" cy="341.6" rx="27.9" ry="27.9"/>
	
		<ellipse transform="matrix(0.6716 -0.7409 0.7409 0.6716 120.2793 1025.7415)" class="st7" cx="1217.3" cy="377.2" rx="27.9" ry="27.9"/>
	
		<ellipse transform="matrix(0.6716 -0.7409 0.7409 0.6716 107.2355 1065.2325)" class="st7" cx="1255.3" cy="411.6" rx="27.9" ry="27.9"/>
</g>
</svg>
